<svg width="134" height="29" viewBox="0 0 134 29" fill="none" xmlns="http://www.w3.org/2000/svg">
<g clip-path="url(#clip0_11904_847)">
<path d="M65.2118 2.97264H67.8955C67.9048 3.15039 67.9202 3.3302 67.9212 3.51C67.9376 5.22178 67.9407 6.93355 67.9726 8.64532C67.9859 9.35839 68.2788 9.70978 68.9672 9.87932C69.296 9.96049 69.6433 10.0006 69.9823 10.0036C71.4886 10.016 72.9959 10.0129 74.5022 10.0067C76.0403 9.99953 76.5366 9.49812 76.5376 7.97232C76.5386 6.48249 76.5417 4.99368 76.5469 3.50384C76.5469 3.33739 76.5623 3.17094 76.5725 2.97366H79.2604C79.2604 3.29732 79.2584 3.60145 79.2604 3.90558C79.2738 5.49714 79.2984 7.08972 79.2953 8.68128C79.2943 9.29263 79.6005 9.65019 80.1389 9.82178C80.4605 9.92453 80.8078 9.99542 81.1448 9.9985C83.1134 10.016 85.0831 10.0098 87.0517 10.0098C87.1175 10.0098 87.1843 9.99337 87.3148 9.97693V2.98291H90.0386C90.053 3.25622 90.0653 3.50692 90.0797 3.7679C90.1434 3.7679 90.201 3.7864 90.2338 3.76482C90.9931 3.2891 91.8326 3.02812 92.7131 3.01682C94.9191 2.98805 97.1313 2.91921 99.3311 3.04456C101.289 3.15553 102.52 4.52515 102.711 6.49173C102.825 7.65895 102.803 8.81485 102.279 9.97898C102.496 9.99234 102.655 10.0119 102.815 10.0119C107.232 10.0139 111.651 10.0129 116.068 10.0119C116.789 10.0119 116.792 10.0088 116.792 9.30393C116.792 8.29393 116.793 7.28392 116.792 6.27288C116.79 5.17965 116.489 4.87757 115.376 4.87655C112.671 4.87346 109.965 4.87552 107.26 4.87552H106.658V2.96955C106.817 2.96133 106.982 2.94695 107.147 2.94695C110.195 2.94592 113.242 2.94489 116.291 2.949C116.529 2.949 116.77 2.96853 117.006 3.00551C118.649 3.26341 119.474 4.19533 119.506 5.86498C119.528 7.04554 119.512 8.22817 119.512 9.40873C119.512 9.59162 119.512 9.77452 119.512 10.0088C120.927 10.0088 122.275 10.0129 123.622 10.0067C124.255 10.0036 124.892 10.0221 125.519 9.96254C126.381 9.88034 126.768 9.4786 126.886 8.62991C126.928 8.32578 126.945 8.01651 126.945 7.70929C126.951 5.32966 126.949 2.949 126.949 0.569373C126.949 0.386483 126.949 0.203593 126.949 -0.00292969H129.629C129.64 0.189208 129.655 0.355659 129.655 0.52211C129.657 3.14217 129.659 5.7612 129.655 8.38126C129.652 10.5482 128.533 11.7812 126.352 11.8798C124.558 11.961 122.757 11.9322 120.959 11.9322C108.067 11.9322 95.1739 11.9291 82.2812 11.923C81.4253 11.923 80.5622 11.96 79.7176 11.8572C79.1217 11.7853 78.5525 11.3599 77.9699 11.3589C77.3894 11.3579 76.8171 11.7956 76.2242 11.85C75.1361 11.9507 74.0357 11.9178 72.9404 11.9271C71.7424 11.9373 70.5433 11.9384 69.3453 11.9312C68.4668 11.926 67.6017 11.85 66.8084 11.4061C66.7047 11.3476 66.529 11.3856 66.3964 11.4174C65.7543 11.5726 65.1183 11.8634 64.473 11.8819C62.1807 11.9466 59.8853 11.9353 57.591 11.9158C57.105 11.9117 56.5861 11.8346 56.1422 11.6486C55.1425 11.2304 54.7644 10.3561 54.7418 9.33167C54.7141 8.09973 54.7387 6.86676 54.7387 5.63379C54.7387 5.27315 54.7942 4.89915 54.2373 4.87244C53.3855 4.83236 52.955 5.01012 52.8965 5.5516C52.8389 6.07766 52.8451 6.61092 52.8307 7.1411C52.8143 7.75758 52.8307 8.3751 52.7906 8.98952C52.6992 10.4023 51.8299 11.4411 50.447 11.7483C49.9168 11.8665 49.3619 11.9127 48.8174 11.9168C46.5405 11.9343 44.2626 11.9343 41.9857 11.9168C41.4411 11.9127 40.8853 11.8685 40.3561 11.7493C38.9752 11.4401 38.069 10.3972 38.0197 8.9885C37.9611 7.32913 37.9847 5.6677 37.9909 4.0073C37.9909 3.88606 38.1399 3.6631 38.2262 3.66002C39.0256 3.6333 39.826 3.6446 40.6942 3.6446C40.6942 4.15629 40.6942 4.61248 40.6942 5.06868C40.6952 6.07869 40.6798 7.08972 40.7024 8.0987C40.7342 9.49196 41.1771 9.96871 42.558 9.99234C44.4753 10.0252 46.3936 10.0273 48.3108 9.99029C49.6897 9.96357 50.1346 9.4673 50.1459 8.08227C50.1521 7.31166 50.1192 6.54105 50.1305 5.77148C50.1593 3.87476 51.1179 2.93359 53.0043 2.93462C53.8602 2.93462 54.7161 2.93667 55.573 2.94798C56.8594 2.96544 57.4266 3.50589 57.4512 4.79435C57.4759 6.1126 57.4554 7.43085 57.4605 8.7491C57.4646 9.74369 57.7246 10.0036 58.7068 10.0057C60.2131 10.0078 61.7194 10.0129 63.2267 10.0036C64.6929 9.99439 65.2015 9.48477 65.2087 8.01651C65.2169 6.35714 65.2107 4.69674 65.2107 2.97058L65.2118 2.97264ZM94.1547 10.0129C94.2749 10.0129 94.3941 10.0149 94.5143 10.0129C95.7627 9.99439 97.0152 10.0252 98.2594 9.93994C99.2838 9.86904 99.7647 9.37586 99.9003 8.35249C99.9733 7.79971 99.9609 7.22227 99.8911 6.66743C99.7421 5.48378 99.1903 4.9423 98.0056 4.9084C96.261 4.85805 94.5133 4.856 92.7676 4.9012C91.324 4.93922 89.9461 6.14342 90.0283 7.78122C90.0581 8.37921 90.0437 8.98028 90.0181 9.57827C90.0037 9.91528 90.1188 10.0242 90.4558 10.0201C91.6887 10.0036 92.9207 10.0139 94.1536 10.0139L94.1547 10.0129Z" fill="#475467"/>
<path d="M15.8683 3.88013C15.7563 4.14008 15.6844 4.32503 15.5991 4.50278C14.1524 7.52767 12.7047 10.5526 11.256 13.5764C10.6539 14.833 10.7854 15.8225 11.668 16.6753C12.6646 17.637 14.0312 17.8784 15.1624 17.2866C16.0194 16.8386 16.5793 16.1102 16.9944 15.2676C17.1465 14.9584 17.3314 14.8515 17.6695 14.8638C18.3486 14.8895 19.0299 14.8721 19.7696 14.8721C19.7018 15.0601 19.6669 15.1875 19.6114 15.3046C18.3116 18.0963 17.0211 20.8931 15.7039 23.6765C14.5901 26.0284 12.2454 27.0774 9.67264 26.4877C7.15739 25.9112 5.36136 23.3497 5.55247 21.2701C5.60487 20.703 5.73536 20.1111 5.97682 19.5995C7.13273 17.1561 8.33898 14.7354 9.52674 12.3075C9.73121 11.8893 9.6634 11.7393 9.19898 11.7321C7.46974 11.7054 5.7405 11.692 4.01126 11.7002C3.85714 11.7002 3.64548 11.8626 3.55917 12.0085C3.19442 12.627 2.85535 13.262 2.53067 13.9031C2.38991 14.1806 2.22037 14.308 1.89672 14.2946C1.28434 14.27 0.669913 14.2874 0 14.2874C1.27407 11.7085 2.50498 9.17676 3.78213 6.66973C4.04928 6.14572 4.45616 5.67821 4.85893 5.23948C5.70967 4.3127 6.7577 3.84828 8.05129 3.86986C10.4474 3.9089 12.8455 3.88116 15.2426 3.88116C15.4244 3.88116 15.6063 3.88116 15.8693 3.88116L15.8683 3.88013Z" fill="#475467"/>
<path d="M24.9255 14.8614C25.9868 14.8614 27.0482 14.8614 28.1096 14.8614C28.1784 14.8614 28.2463 14.8614 28.3151 14.8645C29.7834 14.9334 30.2519 15.6957 29.6087 17.0078C28.0192 20.2495 26.3434 23.4511 24.8556 26.739C24.199 28.1898 23.3113 28.7406 21.766 28.646C20.0768 28.5433 18.3774 28.6234 16.682 28.6224C16.494 28.6224 16.3039 28.6265 16.118 28.6029C14.9127 28.4549 14.5531 27.8056 15.0679 26.7123C16.7714 23.0894 18.4791 19.4676 20.1796 15.8427C20.4929 15.1758 20.9399 14.8111 21.7393 14.8563C22.7976 14.9159 23.862 14.8707 24.9234 14.8707C24.9234 14.8676 24.9234 14.8645 24.9234 14.8604L24.9255 14.8614Z" fill="#475467"/>
<path d="M17.2716 14.286C16.4846 14.286 15.6965 14.2767 14.9095 14.2891C14.2159 14.3004 13.6446 14.0158 13.1484 13.5719C12.7066 13.1763 12.5935 12.716 12.8432 12.1766C14.0073 9.66133 15.1848 7.15224 16.3685 4.64623C16.6223 4.10886 17.1144 3.89412 17.6765 3.88898C19.2855 3.87357 20.8955 3.87768 22.5046 3.88898C22.7388 3.89104 22.9792 3.95782 23.2063 4.02975C24.2975 4.37703 24.6027 5.05106 24.1115 6.08572C22.8714 8.69756 21.6106 11.2991 20.3725 13.912C20.2318 14.2089 20.053 14.2994 19.7396 14.2922C18.9187 14.2726 18.0967 14.286 17.2747 14.286H17.2716Z" fill="#475467"/>
<path d="M120.493 18.4936C121.315 18.4936 122.1 18.474 122.882 18.51C123.037 18.5172 123.225 18.7063 123.325 18.8583C124.471 20.603 125.603 22.3569 126.74 24.1077C126.818 24.2289 126.908 24.342 127.074 24.5711V18.5275H129.505V28.2536C128.728 28.2536 127.962 28.271 127.199 28.2381C127.059 28.232 126.894 28.046 126.8 27.9032C125.618 26.101 124.446 24.2906 123.271 22.4833C123.198 22.3702 123.121 22.2603 122.95 22.0075V28.2248H120.493V18.4925V18.4936Z" fill="#475467"/>
<path d="M64.3438 18.5158C64.5318 18.5065 64.6818 18.4932 64.8328 18.4921C65.4976 18.4901 66.1614 18.4921 66.9063 18.4921C66.9063 19.3696 66.9063 20.2008 66.9063 21.032C66.9063 21.7006 67.2378 22.0349 67.9009 22.0349C68.805 22.0349 69.7102 22.0349 70.7007 22.0349V18.5363H73.2889C73.3002 18.676 73.3239 18.8384 73.3239 19.0018C73.3259 21.9126 73.3187 24.8234 73.3331 27.7343C73.3352 28.1237 73.2478 28.287 72.8235 28.2655C72.1423 28.2305 71.459 28.2562 70.7151 28.2562V24.0364H66.9248V28.2141H64.3448V18.5158H64.3438Z" fill="#475467"/>
<path d="M85.3604 25.0355H87.7986C87.8788 25.6643 88.1325 26.2038 88.8127 26.399C89.7303 26.662 90.6519 26.6631 91.5088 26.2254C91.7256 26.1144 91.926 25.7445 91.9208 25.4979C91.9167 25.2811 91.6547 24.9533 91.4359 24.8783C90.7434 24.641 90.0149 24.5105 89.3059 24.3184C88.5641 24.117 87.8068 23.9485 87.0948 23.6669C85.3635 22.9816 84.9248 20.9297 86.1834 19.5385C86.8883 18.7597 87.8202 18.433 88.8251 18.3056C89.9409 18.1648 91.0516 18.1977 92.1017 18.6683C93.3562 19.2303 94.1083 20.1653 94.2203 21.6634C93.4158 21.6634 92.638 21.6716 91.8623 21.651C91.7832 21.649 91.664 21.4846 91.6403 21.3788C91.5314 20.8958 91.2191 20.6051 90.7865 20.4263C90.131 20.155 89.4539 20.1283 88.7747 20.3174C88.599 20.3667 88.4223 20.4633 88.2846 20.5825C87.7894 21.0109 87.8685 21.6243 88.4839 21.8236C89.197 22.0559 89.944 22.1822 90.6694 22.3775C91.4277 22.5819 92.2044 22.7504 92.9278 23.0453C94.5543 23.708 95.0351 25.8513 93.833 27.1388C93.4395 27.56 92.898 27.9104 92.3565 28.1118C90.8019 28.6913 89.197 28.6923 87.6219 28.1765C86.1372 27.6895 85.2628 26.4411 85.3604 25.0366V25.0355Z" fill="#475467"/>
<path d="M95.2334 25.0301H97.685C98.0713 26.2343 98.5244 26.5806 99.8098 26.5539C100.299 26.5436 100.795 26.445 101.268 26.3155C101.627 26.2169 101.9 25.9549 101.883 25.5274C101.868 25.1236 101.596 24.9048 101.246 24.8133C100.419 24.5965 99.5806 24.426 98.7535 24.2112C98.1751 24.0602 97.5935 23.904 97.0387 23.6852C95.2468 22.9793 94.8183 20.8391 96.1776 19.4509C96.8691 18.7451 97.7528 18.4348 98.7042 18.3104C99.8375 18.1625 100.966 18.1902 102.029 18.6742C103.279 19.2413 104.037 20.1722 104.122 21.6292H101.653C101.173 20.3901 99.8375 19.8311 98.5696 20.349C98.1802 20.5082 97.9028 20.7712 97.8935 21.2264C97.8843 21.7052 98.2696 21.8172 98.6076 21.9046C99.5683 22.1511 100.541 22.3484 101.503 22.5878C101.934 22.6947 102.355 22.8437 102.771 22.9988C103.728 23.3543 104.27 24.0396 104.371 25.064C104.476 26.1223 104.127 26.9844 103.257 27.6111C102.468 28.1793 101.561 28.4023 100.609 28.4855C99.3988 28.5924 98.2069 28.5225 97.0942 27.9903C95.8889 27.4139 95.2714 26.4378 95.2334 25.0301Z" fill="#475467"/>
<path d="M75.1486 18.5235H77.6341C77.6444 18.7023 77.6639 18.8821 77.6649 19.0619C77.667 20.858 77.6618 22.655 77.668 24.451C77.6731 26.1782 79.1969 27.0762 80.7329 26.2306C80.9878 26.0899 81.2025 25.7785 81.3124 25.497C81.4316 25.1898 81.4388 24.8271 81.4419 24.488C81.4532 22.692 81.447 20.895 81.447 19.0989C81.447 18.916 81.447 18.7342 81.447 18.5215H83.9839C83.9839 20.9032 84.0712 23.2623 83.953 25.61C83.875 27.1543 82.8454 28.0462 81.3289 28.3493C80.0682 28.601 78.8126 28.6123 77.5693 28.2661C76.1011 27.8571 75.2144 26.8502 75.1414 25.3624C75.0305 23.1277 75.0952 20.8836 75.088 18.6438C75.088 18.614 75.1168 18.5842 75.1496 18.5235H75.1486Z" fill="#475467"/>
<path d="M115.366 28.2547C114.546 28.2547 113.728 28.263 112.911 28.2455C112.808 28.2434 112.686 28.1263 112.61 28.0328C112.538 27.9434 112.517 27.815 112.474 27.703C112.129 26.8057 111.484 26.357 110.538 26.357C109.905 26.357 109.271 26.3714 108.639 26.3508C108.322 26.3406 108.133 26.4186 108.042 26.7526C107.945 27.1142 107.759 27.4513 107.662 27.8129C107.562 28.1859 107.349 28.2773 106.989 28.264C106.291 28.2393 105.593 28.2568 104.847 28.2568C104.884 28.0955 104.896 27.9814 104.936 27.8787C106.122 24.9103 107.316 21.945 108.49 18.9715C108.629 18.6201 108.793 18.4598 109.192 18.4814C109.857 18.5174 110.527 18.4732 111.192 18.505C111.353 18.5122 111.592 18.6479 111.648 18.7845C112.907 21.8885 114.146 25.0007 115.388 28.1119C115.393 28.1253 115.383 28.1448 115.364 28.2547H115.366ZM110.086 21.3162C109.681 22.4043 109.324 23.366 108.96 24.3462H111.233C110.85 23.3342 110.492 22.3858 110.087 21.3162H110.086Z" fill="#475467"/>
<path d="M48.5274 28.2523C47.7013 28.2523 46.8659 28.2626 46.0327 28.239C45.9279 28.2359 45.785 28.0766 45.7337 27.9574C45.5518 27.5341 45.4244 27.0851 45.2261 26.67C45.1583 26.5282 44.9425 26.3721 44.7904 26.369C43.764 26.3423 42.7365 26.3402 41.7111 26.369C41.5467 26.3741 41.3186 26.5416 41.2416 26.6947C41.0504 27.0738 40.9148 27.4848 40.7864 27.8917C40.7011 28.1629 40.5573 28.2667 40.2685 28.2605C39.5236 28.2431 38.7777 28.2544 37.9434 28.2544C38.3338 27.2762 38.6873 26.3926 39.0417 25.5079C39.9192 23.3174 40.8038 21.1299 41.6659 18.9342C41.7995 18.592 41.9711 18.4636 42.3389 18.481C43.0047 18.5119 43.6736 18.4718 44.3404 18.5026C44.5007 18.5098 44.7432 18.6403 44.7976 18.7749C46.0614 21.8779 47.3047 24.9901 48.55 28.1013C48.5602 28.128 48.5418 28.167 48.5284 28.2513L48.5274 28.2523ZM44.3928 24.3582C44.0075 23.3431 43.651 22.4039 43.24 21.3189C42.8321 22.4173 42.4817 23.3605 42.1118 24.3582H44.3938H44.3928Z" fill="#475467"/>
<path d="M49.6248 18.5176H52.174C52.1853 18.7025 52.2048 18.8823 52.2048 19.0611C52.2068 20.6691 52.2048 22.2771 52.2068 23.8861C52.2068 24.1255 52.2058 24.366 52.2243 24.6043C52.3188 25.7695 52.7925 26.2267 53.9556 26.2462C54.9307 26.2617 55.9057 26.2503 56.8808 26.2503C57.0668 26.2503 57.2528 26.2503 57.4757 26.2503V28.1871C57.4202 28.2077 57.3586 28.2488 57.298 28.2488C55.7239 28.2436 54.1488 28.2868 52.5778 28.2118C50.9287 28.1337 49.7132 27.0158 49.6464 25.3975C49.5529 23.1279 49.6227 20.851 49.6227 18.5176H49.6248Z" fill="#475467"/>
<path d="M133.727 11.91H131.043V0.00878906H133.727V11.91Z" fill="#475467"/>
<path d="M133.734 28.2545C132.94 28.2545 132.176 28.2535 131.41 28.2545C131.046 28.2545 131.125 27.9863 131.125 27.7788C131.121 26.2057 131.123 24.6337 131.123 23.0606C131.123 21.7444 131.123 20.4282 131.123 19.112C131.123 18.9291 131.123 18.7452 131.123 18.5264H133.734V28.2535V28.2545Z" fill="#475467"/>
<path d="M118.831 28.2535C118.042 28.2535 117.293 28.27 116.546 28.235C116.444 28.2299 116.273 27.971 116.271 27.8281C116.25 26.5469 116.258 25.2646 116.258 23.9823C116.258 22.3589 116.258 20.7345 116.258 19.1111V18.5254H118.831V28.2535Z" fill="#475467"/>
<path d="M59.2471 25.3301H62.9378V27.1425H59.2471V25.3301Z" fill="#475467"/>
<path d="M75.1606 13.0391H77.8095V14.9635H75.1606V13.0391Z" fill="#475467"/>
<path d="M65.2065 1.89158V0H67.8626V1.89158H65.2065Z" fill="#475467"/>
<path d="M78.2904 13.0469H80.9649V15.0104C80.1491 15.0104 79.3508 15.0176 78.5535 15.0001C78.4641 14.998 78.3048 14.8532 78.3017 14.7689C78.2791 14.21 78.2904 13.65 78.2904 13.0469Z" fill="#475467"/>
<path d="M45.7502 13.0645C45.7502 13.6347 45.7636 14.1782 45.7379 14.7207C45.7328 14.8204 45.5735 14.9941 45.481 14.9971C44.7638 15.0208 44.0456 15.0218 43.3285 15.0002C43.2319 14.9971 43.0623 14.8348 43.0572 14.7392C43.0305 14.1967 43.0449 13.6511 43.0449 13.0655H45.7502V13.0645Z" fill="#475467"/>
<path d="M46.1953 13.0449H48.8678V15.0064C48.053 15.0064 47.2393 15.0136 46.4265 14.994C46.3474 14.992 46.2087 14.8276 46.2056 14.7341C46.184 14.1906 46.1953 13.645 46.1953 13.0449Z" fill="#475467"/>
</g>
<defs>
<clipPath id="clip0_11904_847">
<rect width="133.734" height="28.6563" fill="white"/>
</clipPath>
</defs>
</svg>
