<svg width="131" height="23" viewBox="0 0 131 23" fill="none" xmlns="http://www.w3.org/2000/svg">
<path d="M0 22.6266V21.9398L2.31628 20.1337V4.11404L0 2.30589V1.62109H9.26511C15.0558 1.62109 17.7893 3.55211 17.7893 6.9499C17.7893 9.69259 15.7321 11.2802 12.708 11.6553C16.6643 12.0582 18.5933 14.0864 18.5933 16.829C18.5933 20.5682 15.2161 22.6261 9.68128 22.6261L0 22.6266ZM6.88367 3.39703V11.0954L9.26406 10.9705C11.8389 10.8139 12.9313 9.25604 12.9313 7.16792C12.9313 5.07981 11.7742 3.64879 9.29611 3.5224L6.88367 3.39703ZM6.88367 12.7147V20.8502L8.88047 20.755C12.2592 20.5682 13.7705 19.4152 13.7705 16.7973C13.7705 14.6478 12.6455 13.0884 9.26669 12.8396L6.88367 12.7147Z" fill="#475467"/>
<path d="M20.6538 14.9922C20.6538 10.0073 23.9354 6.70215 29.0508 6.70215C33.6503 6.70215 36.7406 9.84968 36.7406 14.6171C36.7406 19.6362 33.4264 22.9071 28.4718 22.9071C23.7105 22.9071 20.6538 19.7596 20.6538 14.9922ZM25.1907 14.5556C25.1907 18.6382 26.4776 20.9443 28.7939 20.9443C30.9173 20.9443 32.2037 18.7948 32.2037 15.0224C32.2037 10.9715 30.8858 8.66539 28.6651 8.66539C26.4445 8.66539 25.1907 10.8164 25.1907 14.5566" fill="#475467"/>
<path d="M38.1538 8.91271V8.1962L44.3948 6.73145V16.236C44.3948 18.5738 45.1999 19.7269 47.1614 19.7269C48.2293 19.7238 49.2795 19.4667 50.2181 18.9787V10.2224L48.2896 8.91322V8.1962L54.496 6.73145V20.0703L56.8763 20.9736V21.6599L52.0509 22.9998L50.2181 20.4752C49.6832 21.2352 48.9589 21.8555 48.1109 22.28C47.2629 22.7045 46.3178 22.9197 45.3612 22.9062C42.0796 22.9062 40.0854 20.9424 40.0854 17.5456V10.2224L38.1538 8.91271Z" fill="#475467"/>
<path d="M64.5655 6.98139H68.8449V8.8827H64.5655V17.8892C64.5655 20.0403 65.402 20.6002 67.0105 20.6002C67.7601 20.597 68.5062 20.5029 69.2311 20.3203V21.0368C67.8332 22.1957 66.0602 22.8562 64.2124 22.9064C61.6055 22.9064 60.2545 21.5051 60.2545 18.7624V8.8827H57.8105V7.63648L60.2566 7.26135V4.14655L64.5655 3.27344V6.98139Z" fill="#475467"/>
<path d="M73.5404 9.97281L71.6104 8.72659V7.97835L77.853 6.66918V20.506L79.783 21.9391V22.6254H71.6104V21.9401L73.5404 20.507V9.97281ZM77.8845 2.46274C77.8725 3.11018 77.5962 3.72733 77.1149 4.18181C76.6335 4.63629 75.9854 4.89188 75.3097 4.89376C74.6408 4.88936 74.001 4.63098 73.5307 4.17526C73.0603 3.71954 72.7977 3.10369 72.8005 2.46274C72.7964 1.81828 73.0577 1.19825 73.5276 0.7372C73.9976 0.276147 74.6383 0.011255 75.3107 0C75.9898 0.0090852 76.6385 0.271328 77.1192 0.731101C77.5999 1.19087 77.8748 1.812 77.8855 2.46274" fill="#475467"/>
<path d="M94.485 13.3709C94.485 11.033 93.5197 9.87992 91.6868 9.87992C90.4959 9.87743 89.3309 10.2137 88.3396 10.8462V20.5073L90.174 21.9403V22.6266H82.1301V21.9403L84.0601 20.5073V10.2545L82.0029 9.00832V8.32151L87.1173 6.66895L88.0154 9.19513C89.6238 7.73038 91.2323 6.70067 93.7104 6.70067C96.8302 6.70067 98.7933 8.66441 98.7933 12.0612V20.5073L100.723 21.9721V22.6266H92.6831V21.9721L94.4844 20.5073L94.485 13.3709Z" fill="#475467"/>
<path d="M102.076 14.9922C102.076 10.0073 105.358 6.70215 110.473 6.70215C115.073 6.70215 118.163 9.84968 118.163 14.6171C118.163 19.6362 114.849 22.9071 109.894 22.9071C105.134 22.9046 102.076 19.759 102.076 14.9922ZM106.613 14.5556C106.613 18.6382 107.9 20.9443 110.216 20.9443C112.34 20.9443 113.626 18.7948 113.626 15.0224C113.626 10.9715 112.308 8.66539 110.088 8.66539C107.867 8.66539 106.613 10.8164 106.613 14.5566" fill="#475467"/>
<path d="M126.334 6.98139H130.614V8.8827H126.334V17.8892C126.334 20.0403 127.171 20.6002 128.779 20.6002C129.529 20.597 130.275 20.5029 131 20.3203V21.0368C129.602 22.196 127.829 22.8565 125.981 22.9064C123.374 22.9064 122.023 21.5051 122.023 18.7624V8.8827H119.579V7.63648L122.024 7.26135V4.14655L126.332 3.27344L126.334 6.98139Z" fill="#475467"/>
</svg>
