<svg width="162" height="29" viewBox="0 0 162 29" fill="none" xmlns="http://www.w3.org/2000/svg">
<path d="M162 1.63014C162 2.46205 161.35 3.11571 160.498 3.11571C159.656 3.11571 158.987 2.46205 158.987 1.63014C158.987 0.816751 159.656 0.163086 160.498 0.163086C161.35 0.163086 162 0.816751 162 1.63014ZM159.362 1.63014C159.362 2.28322 159.844 2.80176 160.508 2.80176C161.152 2.80176 161.625 2.28323 161.625 1.63911C161.625 0.986027 161.152 0.457651 160.498 0.457651C159.844 0.457651 159.362 0.986021 159.362 1.63014ZM160.265 2.39955H159.924V0.93249C160.06 0.90442 160.247 0.887348 160.49 0.887348C160.766 0.887348 160.891 0.93249 160.999 0.994125C161.079 1.0572 161.144 1.17382 161.144 1.31619C161.144 1.47793 161.018 1.60352 160.838 1.65676V1.67528C160.981 1.72881 161.061 1.83501 161.107 2.03235C161.152 2.25661 161.177 2.34631 161.215 2.39955H160.848C160.803 2.34631 160.776 2.21118 160.731 2.0419C160.704 1.88015 160.613 1.80897 160.427 1.80897H160.265V2.39955ZM160.274 1.56705H160.435C160.623 1.56705 160.776 1.50484 160.776 1.35264C160.776 1.21751 160.676 1.12839 160.463 1.12839C160.372 1.12839 160.31 1.13823 160.274 1.1469V1.56705Z" fill="#003F53"/>
<path d="M151.229 0.699092V1.11433C151.623 1.03562 151.911 0.995687 152.093 0.995687C152.369 0.995687 152.58 1.05877 152.726 1.18492C152.872 1.31166 152.945 1.46937 152.945 1.65919C152.945 1.80908 152.926 1.98327 152.886 2.18062L152.555 3.33053L148.62 16.8517H150.469L151.69 12.645L153.314 11.235C154.048 14.4425 154.573 16.2797 154.89 16.7456C155.071 17.006 155.328 17.1368 155.66 17.1368C156.038 17.1368 156.458 16.9649 156.915 16.6208C157.372 16.2777 158.034 15.5641 158.894 14.4816L158.481 14.1862C158.015 14.8413 157.576 15.3196 157.165 15.6199C156.982 15.7542 156.825 15.821 156.69 15.821C156.533 15.821 156.379 15.6631 156.229 15.3471C156.078 15.0311 155.791 14.0279 155.363 12.3369C155.11 11.3177 154.897 10.5234 154.724 9.95485L155.742 9.05436C155.996 8.82548 156.521 8.4143 157.318 7.82169C157.722 7.5222 158.137 7.29476 158.568 7.14053C159 6.98631 159.511 6.89371 160.103 6.86159L160.223 6.41135H155.043L154.914 6.86159H155.328C155.676 6.86159 155.917 6.88156 156.056 6.9212C156.195 6.96083 156.288 7.01235 156.335 7.07543C156.382 7.1385 156.406 7.20564 156.406 7.27682C156.406 7.37954 156.335 7.52972 156.194 7.72707C155.75 8.32749 154.79 9.2517 153.314 10.5003L151.962 11.6502L155.328 0L151.229 0.699092Z" fill="#003F53"/>
<path d="M143.12 8.00606C144.025 7.14868 144.88 6.71985 145.685 6.71985C146.073 6.71985 146.372 6.82257 146.581 7.02831C146.79 7.23318 146.895 7.50228 146.895 7.83417C146.895 8.37875 146.652 8.95371 146.165 9.55818C145.68 10.1627 144.951 10.6821 143.98 11.1164C143.245 11.4405 142.292 11.6694 141.123 11.8039C141.55 10.1291 142.216 8.86343 143.12 8.00606ZM144.773 11.6262C146.108 11.1439 147.12 10.5119 147.807 9.73006C148.328 9.12993 148.59 8.50144 148.59 7.84575C148.59 7.37988 148.387 6.9768 147.986 6.6368C147.581 6.29709 146.962 6.12695 146.125 6.12695C144.963 6.12695 143.833 6.46898 142.735 7.15216C141.636 7.8362 140.723 8.7934 139.997 10.0261C139.271 11.259 138.907 12.4636 138.907 13.6411C138.907 14.5178 139.199 15.3196 139.785 16.0468C140.368 16.7731 141.237 17.1371 142.392 17.1371C144.09 17.1371 145.875 16.2085 147.747 14.3523L147.499 14.0083C146.464 14.8066 145.683 15.3219 145.158 15.5549C144.633 15.7878 144.086 15.9041 143.517 15.9041C142.807 15.9041 142.202 15.6576 141.704 15.1634C141.206 14.67 140.957 14.0713 140.957 13.3682C140.957 13.1072 140.985 12.7796 141.04 12.3841C142.643 12.2032 143.888 11.9503 144.773 11.6262Z" fill="#003F53"/>
<path d="M132.824 8.00606C133.728 7.14868 134.583 6.71985 135.389 6.71985C135.776 6.71985 136.074 6.82257 136.284 7.02831C136.494 7.23318 136.598 7.50228 136.598 7.83417C136.598 8.37875 136.355 8.95371 135.869 9.55818C135.384 10.1627 134.654 10.6821 133.683 11.1164C132.948 11.4405 131.996 11.6694 130.827 11.8039C131.253 10.1291 131.919 8.86343 132.824 8.00606ZM134.476 11.6262C135.811 11.1439 136.823 10.5119 137.511 9.73006C138.032 9.12993 138.293 8.50144 138.293 7.84575C138.293 7.37988 138.091 6.9768 137.688 6.6368C137.286 6.29709 136.665 6.12695 135.828 6.12695C134.665 6.12695 133.536 6.46898 132.439 7.15216C131.339 7.8362 130.428 8.7934 129.7 10.0261C128.974 11.259 128.611 12.4636 128.611 13.6411C128.611 14.5178 128.903 15.3196 129.488 16.0468C130.072 16.7731 130.94 17.1371 132.094 17.1371C133.794 17.1371 135.578 16.2085 137.452 14.3523L137.203 14.0083C136.167 14.8066 135.388 15.3219 134.862 15.5549C134.337 15.7878 133.79 15.9041 133.221 15.9041C132.51 15.9041 131.905 15.6576 131.407 15.1634C130.909 14.67 130.661 14.0713 130.661 13.3682C130.661 13.1072 130.688 12.7796 130.743 12.3841C132.347 12.2032 133.591 11.9503 134.476 11.6262Z" fill="#003F53"/>
<path d="M121.183 7.23039C121.625 7.15922 121.929 7.12362 122.095 7.12362C122.356 7.12362 122.565 7.18641 122.723 7.31258C122.842 7.40777 122.901 7.52642 122.901 7.66907C122.901 8.03221 122.775 8.63987 122.521 9.49377L120.329 16.8528H122.143L122.521 15.3597C122.569 15.1785 122.759 14.6371 123.09 13.7361C123.327 13.0804 123.613 12.4918 123.944 11.971C124.71 10.7383 125.421 9.73509 126.076 8.9599C126.496 8.45497 126.807 8.1465 127.013 8.03568C127.132 7.97318 127.258 7.94106 127.392 7.94106C127.48 7.94106 127.554 7.97318 127.617 8.03568C127.673 8.08343 127.709 8.18239 127.724 8.33228C127.755 8.57765 127.836 8.75908 127.968 8.87772C128.098 8.99636 128.253 9.0551 128.435 9.0551C128.792 9.0551 129.064 8.87772 129.253 8.5221C129.522 8.04784 129.656 7.55043 129.656 7.029C129.656 6.73646 129.581 6.51365 129.43 6.35942C129.281 6.20519 129.075 6.12793 128.815 6.12793C128.412 6.12793 127.89 6.39646 127.251 6.9338C126.12 7.87451 124.864 9.52531 123.482 11.8874L125.188 6.12793L121.1 6.79172L121.183 7.23039Z" fill="#003F53"/>
<path d="M120.767 0.415039C120.436 0.786292 120.199 1.01199 120.056 1.0907C119.915 1.17027 119.748 1.20934 119.559 1.20934C119.369 1.20934 119.061 1.13034 118.635 0.972061C117.662 0.600813 116.786 0.415039 116.004 0.415039C114.337 0.415039 112.683 0.889305 111.044 1.83753C109.405 2.78519 108.115 4.08934 107.175 5.74823C106.235 7.40742 105.765 9.11436 105.765 10.8679C105.765 12.0135 106.029 13.0841 106.558 14.0795C107.087 15.0746 107.857 15.8475 108.869 16.3964C109.88 16.9453 111.042 17.2202 112.354 17.2202C113.83 17.2202 115.099 16.8938 116.157 16.2422C117.216 15.5905 118.18 14.5737 119.049 13.1909H118.492C117.758 14.2097 116.961 14.9643 116.105 15.4542C115.247 15.9441 114.269 16.1889 113.171 16.1889C111.718 16.1889 110.537 15.7248 109.628 14.7965C108.719 13.8685 108.264 12.6255 108.264 11.0693C108.264 9.54464 108.581 8.03968 109.213 6.5541C109.979 4.75255 111.038 3.35812 112.39 2.37082C113.447 1.5965 114.684 1.20934 116.098 1.20934C116.627 1.20934 117.11 1.28659 117.544 1.44083C117.979 1.59419 118.338 1.80744 118.623 2.08031C118.908 2.35289 119.12 2.67494 119.262 3.04648C119.405 3.41773 119.496 3.83991 119.535 4.31417L119.582 5.61802H120.01L121.206 0.415039H120.767Z" fill="#003F53"/>
<path d="M90.4521 7.23039C90.8948 7.15922 91.1989 7.12362 91.3647 7.12362C91.6251 7.12362 91.8349 7.18641 91.9923 7.31258C92.1118 7.40777 92.1706 7.52642 92.1706 7.66907C92.1706 8.03221 92.0444 8.63987 91.7909 9.49377L89.5996 16.8528H91.4127L91.7909 15.3597C91.839 15.1785 92.0282 14.6371 92.361 13.7361C92.5983 13.0804 92.8818 12.4918 93.2134 11.971C93.9797 10.7383 94.6909 9.73509 95.3475 8.9599C95.7656 8.45497 96.0778 8.1465 96.2835 8.03568C96.4013 7.97318 96.5275 7.94106 96.6632 7.94106C96.7494 7.94106 96.8235 7.97318 96.888 8.03568C96.9427 8.08343 96.9783 8.18239 96.9948 8.33228C97.0263 8.57765 97.1071 8.75908 97.2373 8.87772C97.3675 8.99636 97.5237 9.0551 97.7046 9.0551C98.0611 9.0551 98.3339 8.87772 98.5229 8.5221C98.7914 8.04784 98.9257 7.55043 98.9257 7.029C98.9257 6.73646 98.8504 6.51365 98.7011 6.35942C98.5504 6.20519 98.3446 6.12793 98.0842 6.12793C97.6814 6.12793 97.1606 6.39646 96.5205 6.9338C95.39 7.87451 94.1345 9.52531 92.7516 11.8874L94.458 6.12793L90.3699 6.79172L90.4521 7.23039Z" fill="#003F53"/>
<path d="M83.7855 8.00606C84.6901 7.14868 85.5454 6.71985 86.351 6.71985C86.7376 6.71985 87.0365 6.82257 87.246 7.02831C87.4558 7.23318 87.56 7.50228 87.56 7.83417C87.56 8.37875 87.3175 8.95371 86.8308 9.55818C86.3455 10.1627 85.6163 10.6821 84.645 11.1164C83.9103 11.4405 82.9577 11.6694 81.7887 11.8039C82.2149 10.1291 82.881 8.86343 83.7855 8.00606ZM85.4384 11.6262C86.7732 11.1439 87.7848 10.5119 88.4726 9.73006C88.9935 9.12993 89.2553 8.50144 89.2553 7.84575C89.2553 7.37988 89.0539 6.9768 88.6509 6.6368C88.2478 6.29709 87.6271 6.12695 86.7897 6.12695C85.6288 6.12695 84.4982 6.46898 83.4004 7.15216C82.302 7.8362 81.3899 8.7934 80.6628 10.0261C79.9359 11.259 79.5728 12.4636 79.5728 13.6411C79.5728 14.5178 79.8644 15.3196 80.4498 16.0468C81.0343 16.7731 81.903 17.1371 83.0564 17.1371C84.7546 17.1371 86.5403 16.2085 88.4136 14.3523L88.1644 14.0083C87.1297 14.8066 86.3484 15.3219 85.8235 15.5549C85.2986 15.7878 84.7517 15.9041 84.1831 15.9041C83.4716 15.9041 82.8674 15.6576 82.3691 15.1634C81.8717 14.67 81.6229 14.0713 81.6229 13.3682C81.6229 13.1072 81.6504 12.7796 81.7059 12.3841C83.3098 12.2032 84.5544 11.9503 85.4384 11.6262Z" fill="#003F53"/>
<path d="M78.34 3.18848C77.6288 4.34997 76.9846 5.16625 76.4082 5.63617C75.8312 6.10609 75.1081 6.45969 74.2386 6.6961L74.1208 7.15879H75.91L73.931 14.0201C73.6781 14.8974 73.5522 15.5491 73.5522 15.9759C73.5522 16.315 73.6625 16.5939 73.8839 16.8113C74.1043 17.0286 74.3888 17.1374 74.7369 17.1374C75.1871 17.1374 75.6333 16.9875 76.076 16.6865C76.7242 16.2528 77.4109 15.5057 78.1386 14.4472L77.7471 14.1503C77.0914 14.9646 76.6687 15.4504 76.4788 15.6087C76.1548 15.8847 75.8943 16.0233 75.697 16.0233C75.6099 16.0233 75.5346 15.9875 75.4716 15.9163C75.4085 15.8457 75.3769 15.7429 75.3769 15.6087C75.3769 15.3873 75.4872 14.9015 75.7086 14.1503L77.7471 7.15879H79.5961L79.7975 6.41195H77.9363L78.8608 3.18848H78.34Z" fill="#003F53"/>
<path d="M69.1426 7.19382C69.4036 7.49418 69.5338 7.98002 69.5338 8.65133C69.5338 10.4289 68.8581 12.1633 67.5074 13.8537C66.4958 15.1263 65.56 15.7624 64.6986 15.7624C64.3511 15.7624 64.0429 15.6061 63.7741 15.2936C63.5055 14.9819 63.3713 14.5569 63.3713 14.0198C63.3713 12.9535 63.6849 11.7605 64.3134 10.4407C64.9419 9.12154 65.6587 8.12643 66.4645 7.45424C67.0331 6.97998 67.5705 6.74358 68.0763 6.74358C68.5262 6.74358 68.8818 6.89376 69.1426 7.19382ZM70.4108 6.41139L69.984 7.76271C69.8179 7.1782 69.5754 6.75949 69.2554 6.50659C68.9354 6.25369 68.5346 6.12695 68.0523 6.12695C67.247 6.12695 66.389 6.45943 65.4813 7.12264C64.3195 7.96005 63.3617 9.0764 62.6071 10.4708C61.8518 11.8652 61.4751 13.1905 61.4751 14.4466C61.4751 15.284 61.684 15.9418 62.1036 16.4195C62.5214 16.8978 63.0197 17.1368 63.5967 17.1368C64.1968 17.1368 64.8097 16.9429 65.4332 16.5558C66.3028 16.0187 67.2545 15.0743 68.2892 13.7238L68.0404 14.6124C67.8665 15.245 67.7803 15.7543 67.7803 16.1414C67.7803 16.4655 67.8645 16.712 68.0343 16.8819C68.2042 17.052 68.4594 17.1368 68.7991 17.1368C69.289 17.1368 69.822 16.9218 70.3993 16.4907C70.9754 16.0604 71.5367 15.4342 72.0816 14.6124L71.6785 14.328C71.1652 15.0471 70.754 15.521 70.4464 15.7499C70.2806 15.8767 70.1463 15.9397 70.0436 15.9397C69.949 15.9397 69.8694 15.9041 69.8064 15.8335C69.7276 15.7383 69.6877 15.6281 69.6877 15.5014C69.6877 15.4299 69.6996 15.3437 69.7236 15.2409L69.984 14.1622L72.2954 6.12696L70.4108 6.41139Z" fill="#003F53"/>
<path d="M60.1704 6.49046C59.8498 6.10822 59.4378 5.91406 58.9459 5.91406C58.745 5.91406 58.5216 5.95255 58.2832 6.0298L58.2647 6.0353L58.2525 6.04977C57.9577 6.3779 57.7438 6.61315 57.6825 6.67623L56.9684 7.35304L57.3425 7.77059L57.3903 7.74657C57.6186 7.63199 57.835 7.57383 58.0338 7.57383C58.3292 7.57383 58.5711 7.69565 58.7731 7.94652C58.9759 8.2 59.079 8.608 59.079 9.15807C59.079 10.1057 58.8602 11.2056 58.4293 12.4276C57.9996 13.6458 57.4342 14.5772 56.7482 15.1959C56.2612 15.6392 55.7655 15.8646 55.2765 15.8646C54.9044 15.8646 54.5884 15.7048 54.3109 15.3773C54.0345 15.05 53.8942 14.5517 53.8942 13.8972C53.8942 13.5089 53.9243 13.0913 53.9839 12.6564C54.0586 12.0601 54.2006 11.2921 54.4046 10.3722C54.6089 9.4535 54.8042 8.67224 54.9831 8.05358L55.571 6.10532L55.3448 5.92707L55.308 5.94097C54.7226 6.1629 54.1592 6.31279 53.6346 6.38774L53.5831 6.3944L53.5747 6.4459C53.2993 8.1809 52.9445 9.78367 52.5189 11.2096C52.2955 11.9753 52.0241 12.6735 51.713 13.2861C51.4005 13.8981 51.0593 14.4299 50.6968 14.8657C50.3377 15.2986 50.0081 15.5995 49.7176 15.7592C49.5477 15.8443 49.3764 15.8871 49.2092 15.8871C48.8912 15.8871 48.6336 15.7523 48.421 15.4762C48.1388 15.1001 47.9956 14.5271 47.9956 13.7734C47.9956 12.8549 48.1273 11.9568 48.3868 11.1034C48.6467 10.2504 49.0419 9.3693 49.5619 8.48531C49.8958 7.92887 50.4048 7.23527 51.075 6.42274L51.1059 6.38484L50.862 5.96758L50.8085 5.98407C50.3611 6.12442 49.936 6.19589 49.5463 6.19589C49.3319 6.19589 49.057 6.18402 48.7063 6.16145C47.6139 6.09375 46.9724 6.06076 46.7435 6.06076C46.4675 6.06076 46.1509 6.10677 45.8028 6.19792L45.7684 6.2066L45.7554 6.23958C45.3271 7.30645 45.0572 8.24398 44.9524 9.02525L44.9414 9.10338L45.532 9.11697L45.5491 9.06981C45.9356 8.02204 46.113 7.71358 46.1946 7.64037C46.3086 7.53621 46.5462 7.48325 46.8998 7.48325L48.0948 7.50582C48.6553 7.50582 49.129 7.46965 49.5058 7.39702C49.0434 7.89443 48.5315 8.53247 47.9811 9.29725C47.3651 10.1532 46.9082 10.9862 46.6217 11.7739C46.3352 12.5624 46.19 13.3567 46.19 14.1336C46.19 15.1582 46.4258 15.9757 46.8923 16.5648C47.2574 17.0145 47.7337 17.2428 48.3081 17.2428C48.6171 17.2428 48.9036 17.1838 49.1591 17.0674C49.5634 16.8851 49.9904 16.5741 50.4288 16.1424C50.866 15.7127 51.2636 15.208 51.6117 14.6409L52.419 13.2059C52.3189 13.8064 52.2689 14.3819 52.2689 14.9218C52.2689 15.3802 52.3557 15.794 52.5284 16.1505C52.7026 16.5116 52.9587 16.7871 53.2891 16.9699C53.6176 17.1508 53.9414 17.2428 54.2518 17.2428C54.6891 17.2428 55.1729 17.1042 55.6903 16.8302C56.3789 16.4821 57.1232 15.8443 57.9015 14.934C58.6779 14.0263 59.3616 12.8604 59.934 11.4701C60.4083 10.3256 60.6479 9.24112 60.6479 8.24601C60.6479 7.46069 60.4879 6.87069 60.1704 6.49046Z" fill="#003F53"/>
<path d="M38.9006 13.0728C37.6601 14.8504 36.6288 15.7393 35.8074 15.7393C35.4439 15.7393 35.1314 15.5836 34.8713 15.2711C34.61 14.9594 34.4798 14.5072 34.4798 13.9143C34.4798 12.4128 35.0191 10.841 36.0979 9.19712C37.1763 7.55385 38.2131 6.73206 39.2088 6.73206C39.659 6.73206 40.0303 6.88629 40.3222 7.19475C40.6148 7.50321 40.7609 7.90947 40.7609 8.41527C40.7609 9.74257 40.1408 11.2953 38.9006 13.0728ZM41.0809 0.676621V1.11501C41.4996 1.05974 41.7997 1.03167 41.9814 1.03167C42.2424 1.03167 42.4557 1.09939 42.6221 1.23364C42.7398 1.34389 42.7995 1.48249 42.7995 1.6483C42.7995 1.85374 42.7514 2.11417 42.6571 2.43073C42.6021 2.60406 42.5303 2.83728 42.4438 3.12982L41.2823 7.25349C40.9823 6.8507 40.6781 6.56221 40.3703 6.38889C40.0621 6.21498 39.6946 6.12788 39.2678 6.12788C38.4535 6.12788 37.5614 6.46354 36.5892 7.13515C35.3568 7.97313 34.3655 9.05939 33.6152 10.3942C32.864 11.7296 32.4893 12.9857 32.4893 14.1631C32.4893 15.0792 32.7118 15.8041 33.1585 16.3374C33.6047 16.8712 34.1285 17.1377 34.7286 17.1377C35.3215 17.1377 35.9416 16.9039 36.5892 16.4387C37.5299 15.7589 38.5722 14.5347 39.718 12.7644L39.2562 14.2343C39.0189 14.9921 38.9006 15.5966 38.9006 16.0474C38.9006 16.395 38.9874 16.6635 39.1607 16.8527C39.3349 17.0425 39.5563 17.1377 39.8248 17.1377C40.3306 17.1377 40.8732 16.8924 41.4545 16.4025C42.035 15.9132 42.6096 15.2731 43.1785 14.4823L42.7754 14.2343C42.1437 14.9921 41.6929 15.4664 41.425 15.6562C41.2823 15.7589 41.1596 15.8104 41.0569 15.8104C40.9863 15.8104 40.9166 15.7749 40.85 15.7034C40.7829 15.6322 40.749 15.5576 40.749 15.478C40.749 15.2416 40.8596 14.7436 41.0809 13.9849L45.158 0.000976562L41.0809 0.676621Z" fill="#003F53"/>
<path d="M28.7971 0.676633V1.11502C29.1687 1.05975 29.4453 1.03168 29.627 1.03168C29.9427 1.03168 30.1759 1.09332 30.3261 1.21601C30.476 1.33783 30.5506 1.49408 30.5506 1.6839C30.5506 1.81816 30.4207 2.33988 30.16 3.24847L26.9484 14.3645C26.6955 15.2491 26.5693 15.8342 26.5693 16.118C26.5693 16.3869 26.67 16.6244 26.8717 16.8293C27.0731 17.035 27.3231 17.1377 27.6241 17.1377C28.0428 17.1377 28.4846 16.9876 28.9513 16.6869C29.583 16.2682 30.2746 15.5301 31.0255 14.4707L30.6693 14.1035C30.219 14.7832 29.7887 15.2847 29.3776 15.6091C29.2042 15.7433 29.0416 15.8105 28.8917 15.8105C28.7815 15.8105 28.6889 15.7705 28.6137 15.6918C28.5381 15.6122 28.5011 15.5136 28.5011 15.3958C28.5011 15.2375 28.5998 14.8072 28.7971 14.1035L32.8505 0.000976562L28.7971 0.676633Z" fill="#003F53"/>
<path d="M21.8594 14.0625C20.8837 15.7173 19.8394 16.5452 18.7251 16.5452C18.1481 16.5452 17.6707 16.3418 17.2916 15.9346C16.912 15.5284 16.7222 14.9491 16.7222 14.1988C16.7222 12.5555 17.21 10.9021 18.1866 9.23912C19.1617 7.57589 20.2306 6.74455 21.3921 6.74455C21.9602 6.74455 22.4249 6.93987 22.784 7.33109C23.1436 7.72172 23.3239 8.2851 23.3239 9.01979C23.3239 10.7259 22.8355 12.407 21.8594 14.0625ZM24.2771 7.1592C23.6023 6.47198 22.7429 6.12793 21.6997 6.12793C20.6569 6.12793 19.5764 6.46793 18.4586 7.14677C17.3408 7.82676 16.4481 8.75098 15.7806 9.92C15.1124 11.0899 14.7788 12.2554 14.7788 13.4163C14.7788 14.5147 15.1208 15.4097 15.804 16.101C16.4872 16.7926 17.3703 17.1378 18.4531 17.1378C19.511 17.1378 20.6022 16.7981 21.7237 16.1184C22.8456 15.4392 23.7206 14.5188 24.3482 13.3573C24.9767 12.1958 25.2907 11.0227 25.2907 9.83725C25.2907 8.73942 24.9527 7.84643 24.2771 7.1592Z" fill="#003F53"/>
<path d="M15.0036 0.415039C14.672 0.786292 14.4347 1.01199 14.2924 1.0907C14.1506 1.17027 13.9848 1.20934 13.795 1.20934C13.6051 1.20934 13.2973 1.13034 12.8704 0.972061C11.8988 0.600813 11.0217 0.415039 10.2399 0.415039C8.57258 0.415039 6.91976 0.889305 5.27995 1.83753C3.64073 2.78519 2.35047 4.08934 1.41092 5.74823C0.470211 7.40742 0 9.11436 0 10.8679C0 12.0135 0.264475 13.0841 0.794296 14.0795C1.32411 15.0746 2.0941 15.8475 3.1057 16.3964C4.11644 16.9453 5.27793 17.2202 6.58931 17.2202C8.06678 17.2202 9.33533 16.8938 10.3941 16.2422C11.452 15.5905 12.4161 14.5737 13.2851 13.1909H12.7287C11.994 14.2097 11.1977 14.9643 10.3406 15.4542C9.48319 15.9441 8.50545 16.1889 7.40761 16.1889C5.95358 16.1889 4.77212 15.7248 3.86353 14.7965C2.95494 13.8685 2.50123 12.6255 2.50123 11.0693C2.50123 9.54464 2.81721 8.03968 3.44888 6.5541C4.2151 4.75255 5.27445 3.35812 6.62518 2.37082C7.68395 1.5965 8.92009 1.20934 10.3342 1.20934C10.864 1.20934 11.3458 1.28659 11.7801 1.44083C12.2147 1.59419 12.5744 1.80744 12.8589 2.08031C13.1433 2.35289 13.3563 2.67494 13.4989 3.04648C13.6407 3.41773 13.7319 3.83991 13.7715 4.31417L13.819 5.61802H14.2452L15.4423 0.415039H15.0036Z" fill="#003F53"/>
<path d="M139.983 25.9355C130.732 27.3759 119.967 27.2237 112.309 27.2237C104.652 27.2237 91.9127 25.8602 88.5029 25.4812C85.089 25.1015 73.6419 23.7363 65.9082 22.8633C58.1742 21.9898 43.7699 21.3106 38.3102 21.2345C37.1638 21.2195 35.6721 21.2606 34.0323 21.3355C25.6655 21.4759 16.0822 22.4296 11.3647 23.4342C11.2475 23.4588 8.2408 24.127 7.32266 24.5897C4.81449 25.5353 3.94092 26.4219 3.94092 26.4219C6.68665 24.8871 10.4096 24.2751 16.8114 23.5864C19.0027 23.3966 21.4573 23.2094 24.1516 23.0471C33.9432 22.455 46.5689 23.2979 53.7566 23.7563C62.7059 24.3272 83.1952 27.2237 93.4298 28.0585C103.665 28.8921 113.338 28.8751 122.512 28.6476C131.686 28.4216 144.356 26.5912 149.966 25.0755C155.577 23.5589 157.217 21.6903 157.217 21.6903C153.981 23.7363 149.233 24.4956 139.983 25.9355Z" fill="#003F53"/>
</svg>
