<svg width="200" height="20" viewBox="0 0 200 20" fill="none" xmlns="http://www.w3.org/2000/svg">
<mask id="mask0_11906_995" style="mask-type:luminance" maskUnits="userSpaceOnUse" x="0" y="0" width="200" height="20">
<path d="M199.921 0H0V19.4084H199.921V0Z" fill="white"/>
</mask>
<g mask="url(#mask0_11906_995)">
<path d="M56.5098 0.260742H70.1202V4.69391H60.7527V5.84448H70.1202V9.86457H60.7527V11.0373H70.1202V15.4705H56.5098V0.260742Z" fill="#13275B"/>
<path d="M80.3261 18.5782V15.7531H76.0832C73.1686 15.5784 71.8408 13.4076 71.8408 9.58163V6.14933C71.8408 3.99789 71.8628 0.0221798 76.7911 0H82.6912C87.6189 0.0221798 87.6415 3.99789 87.6415 6.14933V9.55943C87.6415 12.0158 87.3089 14.231 85.409 15.1432C85.1444 15.2735 84.5238 15.3178 83.9065 15.3178H83.8839V15.5119C84.2585 15.5119 85.3185 15.5341 85.719 15.5979L87.2442 15.8806V19.3795L80.3287 18.5755L80.3261 18.5782ZM77.0784 11.5584H82.4039C83.2212 11.5584 83.3539 11.1009 83.3539 9.60382V6.43208C83.3539 4.91002 83.2439 4.45535 82.4039 4.43316H77.0784C76.2385 4.45535 76.1284 4.93221 76.1284 6.43208V9.60382C76.1284 11.1037 76.2611 11.5584 77.0784 11.5584Z" fill="#13275B"/>
<path d="M89.3615 9.6261V0.260742H93.646V9.16869C93.646 10.7323 93.756 11.3201 94.4866 11.3201H99.7889C100.519 11.3201 100.629 10.7545 100.629 9.1465V0.260742H104.914V9.6261C104.914 11.6029 104.892 15.7311 100.096 15.7533H94.176C89.3584 15.7311 89.3584 11.6029 89.3584 9.6261H89.3615Z" fill="#13275B"/>
<path d="M106.859 0.260742H111.257V15.4705H106.859V0.260742Z" fill="#13275B"/>
<path d="M113.199 0.260742H123.96C127.142 0.260742 128.997 2.17374 128.997 5.43138V6.01914C128.997 9.3433 127.207 11.1898 123.982 11.1898H117.442V15.4705H113.199V0.260742ZM123.76 7.01724C124.357 7.01724 124.687 6.6263 124.687 5.95261V5.77795C124.687 5.45079 124.51 4.69112 123.715 4.69112H117.439V7.01724H123.76Z" fill="#13275B"/>
<path d="M135.574 0.260742L139.507 6.6263C139.684 7.08377 139.836 7.90714 139.836 8.23434H139.992C139.992 7.90714 140.234 7.08377 140.389 6.6263L144.322 0.260742H149.292V15.4705H145.094V9.36549C145.094 8.79988 145.162 8.1484 145.227 7.56337L145.049 7.51904C144.984 7.82398 144.807 8.30087 144.652 8.69175L141.449 13.8846H138.421L135.284 8.56147C135.106 8.17059 134.886 7.73526 134.842 7.47471L134.664 7.51904C134.751 8.1484 134.774 8.97461 134.774 9.45422V15.4732H130.599V0.260742H135.574Z" fill="#13275B"/>
<path d="M151.237 0.260742H164.848V4.69391H155.48V5.84448H164.848V9.86457H155.48V11.0373H164.848V15.4705H151.237V0.260742Z" fill="#13275B"/>
<path d="M166.793 0.260742H171.497L177.993 9.06055C178.17 9.29896 178.345 9.6483 178.523 10.103L178.7 10.0587V9.95052C178.613 9.51518 178.568 9.1465 178.568 8.8415V0.260742H182.743V15.4705H177.948L171.453 6.41008C171.342 6.25762 171.21 6.01914 171.1 5.692C171.055 5.60606 171.013 5.49792 170.99 5.40919L170.813 5.45358C170.857 5.75854 170.9 6.06069 170.922 6.36569C170.967 6.67069 170.99 6.95343 170.99 7.19191L170.967 15.4705H166.793V0.260742Z" fill="#13275B"/>
<path d="M189.864 4.64956H184.451V0.260742H199.651V4.64956H194.239V15.4705H189.864V4.64956Z" fill="#13275B"/>
<path d="M0.159668 0.260742H10.765C15.7153 0.260742 15.7351 4.25865 15.7351 6.41006V9.34333C15.7351 11.4726 15.7126 15.4705 10.7848 15.4705H0.159668V0.260742ZM10.5226 11.0373C11.3401 11.0373 11.45 10.5798 11.45 9.08272V6.73719C11.45 5.21514 11.3401 4.6939 10.4775 4.6939H4.40237V11.04H10.5226V11.0373Z" fill="#13275B"/>
<path d="M16.8882 0.260742H21.3508V5.88884H28.3337V0.260742H32.7962V15.4705H28.3337V9.97268H21.3508V15.4705H16.8882V0.260742Z" fill="#13275B"/>
<path d="M33.9497 10.1111V9.8394H38.0796V10.1749C38.0796 10.8652 38.5476 11.2228 38.8464 11.2228L44.1914 11.245C44.5947 11.2228 44.8512 11.0371 44.8512 10.7626V10.5963C44.8512 10.1361 44.1266 9.92534 38.1247 9.19341C35.8046 8.71103 34.0371 7.56046 34.0145 4.67155V4.60775C34.0145 1.57192 35.8243 0.274414 38.8266 0.274414H44.2141C46.4917 0.274414 49.1757 1.13387 49.1757 5.17334V5.80272H45.0683V5.55041C45.0683 5.00702 44.8988 4.52459 44.324 4.52459H38.9789C38.6378 4.52459 38.3841 4.7353 38.3841 5.06799V5.13178C38.3841 5.63357 40.3433 5.80272 44.665 6.40989C47.1992 6.95324 49.201 7.77117 49.2207 10.9317V10.9955C49.2207 13.926 47.391 15.4758 44.2591 15.4758H38.8718C35.6157 15.4758 33.9553 13.6544 33.9553 10.1166L33.9497 10.1111Z" fill="#13275B"/>
</g>
</svg>
