<svg width="118" height="34" viewBox="0 0 118 34" fill="none" xmlns="http://www.w3.org/2000/svg">
<path d="M39.3002 17.1923C36.956 17.4557 34.5995 17.5956 32.2404 17.6114C31.1676 17.6114 30.3766 17.3599 29.876 16.857C29.3753 16.3541 29.1187 15.5745 29.1187 14.5058V9.26288C29.1187 8.11874 29.3795 7.28473 29.9012 6.74828C30.4229 6.21183 31.2517 5.96875 32.4045 5.96875H38.2947V8.26123H33.0609C32.9272 8.24236 32.7909 8.25471 32.6628 8.29732C32.5347 8.33993 32.4183 8.41163 32.3228 8.50674C32.2273 8.60186 32.1554 8.7178 32.1126 8.84539C32.0698 8.97299 32.0574 9.10874 32.0764 9.24193V14.4891C32.0637 14.6022 32.0767 14.7168 32.1145 14.8242C32.1523 14.9317 32.2139 15.0293 32.2947 15.1098C32.3755 15.1903 32.4735 15.2517 32.5814 15.2893C32.6892 15.327 32.8042 15.3399 32.9178 15.3273C34.1772 15.3273 35.3258 15.2993 36.3636 15.2435V12.8588H34.2094V10.8974H39.3002V17.1923Z" fill="#475467"/>
<path d="M42.99 17.4233H39.7925L44.1428 5.99023H47.4245L51.7748 17.4233H48.5731L47.8368 15.3781H43.7221L42.99 17.4233ZM44.471 13.2323H47.0879L45.7752 9.38914L44.471 13.2323Z" fill="#475467"/>
<path d="M57.0295 17.4233H54.0844V8.28272H50.6387V5.99023H60.4879V8.28272H57.0421L57.0295 17.4233Z" fill="#475467"/>
<path d="M70.737 17.4233H61.624V5.99023H70.737V8.28272H64.5817V10.4914H69.4243V12.7797H64.5817V15.1518H70.737V17.4233Z" fill="#475467"/>
<path d="M80.4219 5.99023L82.3951 13.3496L84.1117 5.99023H87.3134L84.2001 17.4233H81.0825L79.1093 10.2986L77.1403 17.4233H74.0143L70.9009 5.99023H74.1026L75.8276 13.3496L77.8008 5.99023H80.4219Z" fill="#475467"/>
<path d="M89.3707 17.4225H86.1689L90.5193 5.97266H93.7883L98.1555 17.4225H94.9537L94.209 15.394H90.107L89.3707 17.4225ZM90.8474 13.2315H93.477L92.1643 9.38833L90.8474 13.2315Z" fill="#475467"/>
<path d="M96.3506 5.99023H99.4682L102.178 11.5559L104.887 5.99442H108.005L103.654 14.4184V17.4233H100.709V14.4142L96.3506 5.99023Z" fill="#475467"/>
<path d="M13.5684 30.0965C21.0621 30.0965 27.1369 24.0451 27.1369 16.5805C27.1369 9.11577 21.0621 3.06445 13.5684 3.06445C6.0748 3.06445 0 9.11577 0 16.5805C0 24.0451 6.0748 30.0965 13.5684 30.0965Z" fill="#475467"/>
<path d="M11.4858 8.5587L11.0651 9.12868H11.4858C11.4296 8.9428 11.4296 8.74457 11.4858 8.5587ZM13.9765 2.02073C13.9765 2.02073 13.9302 1.97462 14.1448 2.06683C14.1448 2.06683 13.8334 -0.07897 15.8277 0.113816C15.8277 0.113816 16.8543 0.231164 17.1193 0.972973C17.1193 0.972973 17.3591 1.94948 17.1446 2.40211C17.1395 2.93175 16.9944 3.4507 16.7238 3.90668L16.4377 4.32578C16.4377 4.32578 17.7378 4.84966 18.0575 5.31486C18.0575 5.31486 19.2819 5.93513 19.3197 6.76914C19.3763 7.17578 19.4985 7.57063 19.6816 7.93843C19.6816 7.93843 20.422 9.03647 20.4473 9.79924C20.4473 9.79924 20.6366 12.7832 20.6366 13.5209C20.6366 13.5209 21.3098 15.981 20.8764 16.1444C20.8764 16.1444 20.1822 16.5635 20.157 16.6725C20.157 16.6725 19.9424 17.1251 19.7026 16.7186C19.537 16.5834 19.3949 16.422 19.2819 16.2408C19.2819 16.2408 19.021 15.9307 19.4039 16.0732C19.4039 16.0732 19.2356 15.1176 19.5722 15.432C19.5669 15.1691 19.6599 14.9137 19.833 14.7153C19.9546 14.0242 19.8803 13.313 19.6184 12.6617C19.6184 12.6617 18.6381 10.3944 18.6592 9.41786C18.558 9.05869 18.3686 8.73029 18.108 8.4623C18.108 8.4623 16.7449 9.91659 16.6481 13.6885C16.6481 13.6885 17.4138 14.8578 17.0688 16.9114C17.0506 17.2206 16.9638 17.5219 16.8147 17.7936C16.6655 18.0654 16.4578 18.3008 16.2063 18.483C16.2063 18.483 15.8445 18.6506 16.1348 19.032C16.1348 19.032 16.4209 19.4134 15.6047 20.4905C15.6047 20.4905 14.3131 22.016 14.3425 22.6614C14.4697 23.1621 14.4697 23.6863 14.3425 24.187C14.3425 24.187 14.7001 26.5968 13.2613 26.7644C13.2613 26.7644 12.2094 26.6219 12.4955 24.8324C12.4955 24.8324 12.6386 22.0873 13.1435 22.2298C13.4742 21.8409 13.6975 21.3729 13.7914 20.8719C13.7914 20.8719 13.8839 20.2516 13.5516 19.9876C13.4302 19.6661 13.4213 19.3131 13.5263 18.9859C13.5263 18.9859 13.947 18.3908 13.6694 18.3657C13.6694 18.3657 13.4043 18.1729 13.3833 18.0052C13.3833 18.0052 12.8321 20.2726 11.9949 21.0144C11.684 21.941 11.3201 22.8491 10.9052 23.7343C10.59 24.1478 10.4401 24.663 10.4845 25.1802C10.4683 25.843 10.1901 26.4726 9.71032 26.9321C9.71032 26.9321 8.89832 28.6085 9.25594 29.5305C9.25594 29.5305 9.52099 29.7484 9.20965 30.3436C9.20965 30.3436 8.78893 31.7014 8.87307 32.087C8.87307 32.087 8.9446 33.1096 7.77077 32.9462C7.62409 32.9324 7.48135 32.8912 7.35004 32.8246C6.4581 32.3385 7.3837 31.362 7.49309 30.6788C7.49309 30.6788 7.66138 29.2204 7.99375 29.2204C8.167 28.8253 8.22532 28.3896 8.16204 27.9631C8.16204 27.9631 7.99375 24.1451 8.69216 23.7427C8.69216 23.7427 9.19283 22.9548 9.14655 22.7159C9.03299 21.0832 9.2009 19.4432 9.643 17.8669C9.643 17.8669 10.6485 15.0967 11.0314 14.3088C11.0314 14.3088 11.5573 11.66 11.3217 10.847C10.9577 11.0422 10.559 11.1646 10.1479 11.2074C10.1479 11.2074 9.35691 11.5637 9.11709 11.0859C8.99523 10.8401 8.93573 10.5683 8.9438 10.2943C8.95186 10.0203 9.02726 9.75248 9.16337 9.51425C9.36505 9.15313 9.51784 8.76699 9.61776 8.36591C9.69654 7.99518 9.83886 7.64074 10.0385 7.31816C10.2264 7.05815 10.3411 6.75286 10.3709 6.43386C10.3709 6.43386 10.5392 4.4557 11.9528 4.14557C12.6266 3.86208 13.355 3.73042 14.0859 3.75999L14.17 3.17325C14.17 3.17325 13.3538 2.28057 13.9765 2.02073Z" fill="white"/>
<path d="M7.99384 33.03C7.9098 33.036 7.82544 33.036 7.7414 33.03C7.58319 33.015 7.42913 32.971 7.28702 32.9001C6.60965 32.5313 6.89995 31.8985 7.15239 31.3411C7.25985 31.1323 7.34178 30.9113 7.39641 30.6831C7.43427 30.3478 7.58574 29.2707 7.91811 29.1785C8.0696 28.8084 8.1204 28.4051 8.06536 28.0092C8.06536 27.5901 7.91811 24.1786 8.61231 23.726C8.81549 23.4358 8.95852 23.1081 9.03304 22.7621C8.92844 21.1031 9.11204 19.4386 9.57578 17.8418C9.57578 17.8083 10.5855 15.0758 10.9684 14.2837C10.9978 14.1244 11.448 11.7691 11.2755 10.9309C10.9297 11.1134 10.5505 11.2245 10.1606 11.2578C10.0386 11.3122 9.31913 11.5972 9.05407 11.1027C8.92551 10.846 8.86283 10.5616 8.87164 10.2749C8.88045 9.98822 8.96048 9.70816 9.10456 9.45982C9.3037 9.11176 9.45377 8.73804 9.55053 8.3492C9.62474 7.9653 9.76723 7.5977 9.97126 7.26373C10.1504 7.01702 10.262 6.72818 10.2952 6.42552C10.2952 6.33751 10.4845 4.38869 11.9318 4.07018C12.5963 3.78962 13.3142 3.65661 14.0355 3.68041L14.0986 3.1733C14.0018 3.06015 13.6105 2.58656 13.6779 2.23452C13.6934 2.17418 13.7222 2.11805 13.7622 2.0702C13.8023 2.02235 13.8525 1.98399 13.9093 1.95791C13.9387 1.916 13.9766 1.916 14.0565 1.95791C13.9894 1.41664 14.1407 0.870959 14.4772 0.440765C14.6535 0.270193 14.8676 0.143367 15.1023 0.0705566C15.3369 -0.0022542 15.5854 -0.019004 15.8278 0.0216638C15.8741 0.0216638 16.9048 0.155776 17.1783 0.926922C17.1783 0.973023 17.4181 1.92438 17.2078 2.39797C17.2019 2.9341 17.057 3.45962 16.787 3.92349L16.5472 4.26296C16.8291 4.38869 17.8094 4.84132 18.0913 5.23947C18.2428 5.3191 19.3535 5.9226 19.3829 6.74404C19.4378 7.14784 19.5586 7.53998 19.7405 7.90495C19.7658 7.94686 20.4894 9.02395 20.5147 9.7951C20.5147 9.82443 20.704 12.7623 20.7082 13.5125C20.826 13.9316 21.3645 16.0271 20.9017 16.2073C20.655 16.3365 20.4271 16.4987 20.2244 16.6893C20.2244 16.727 20.0982 16.9491 19.9215 16.9533C19.8205 16.9533 19.7321 16.8947 19.6522 16.7647C19.4859 16.627 19.3437 16.4627 19.2315 16.2786C19.1768 16.2115 19.0968 16.0942 19.1515 16.0146C19.2062 15.9349 19.2525 15.9601 19.324 15.9768C19.2862 15.7254 19.2651 15.3901 19.3998 15.3147C19.4175 15.3064 19.4369 15.3021 19.4566 15.3021C19.4762 15.3021 19.4956 15.3064 19.5133 15.3147C19.5313 15.0821 19.6243 14.8616 19.7784 14.686C19.8821 14.012 19.8066 13.3228 19.5596 12.6869C19.5218 12.5989 18.5793 10.4154 18.5962 9.43048C18.5028 9.11035 18.3405 8.81432 18.1207 8.56294C17.8893 8.85631 16.8081 10.3776 16.7197 13.676C16.8207 13.8352 17.4686 14.9836 17.1404 16.9198C17.1202 17.2377 17.0301 17.5473 16.8768 17.8268C16.7234 18.1063 16.5104 18.3489 16.2527 18.5375C16.2205 18.5545 16.192 18.5777 16.1688 18.6057C16.1457 18.6338 16.1285 18.6662 16.1181 18.701C16.1103 18.7517 16.1146 18.8036 16.1307 18.8524C16.1468 18.9012 16.1742 18.9455 16.2106 18.9818C16.2401 19.0279 16.5009 19.4386 15.6805 20.5199C15.6805 20.5199 14.4183 22.0245 14.4183 22.6405C14.546 23.1468 14.546 23.6766 14.4183 24.1828C14.4183 24.3421 14.6035 25.6706 14.0523 26.3873C13.959 26.5062 13.8421 26.6048 13.7089 26.6769C13.5758 26.749 13.4291 26.7931 13.2782 26.8064C13.0398 26.757 12.8293 26.6192 12.6892 26.4208C12.3976 25.9312 12.3129 25.3464 12.4535 24.7947C12.4535 24.5642 12.5882 22.4729 13.0047 22.1753C13.0432 22.146 13.0909 22.1312 13.1393 22.1334C13.4494 21.7601 13.6593 21.3146 13.7494 20.8384C13.7494 20.8384 13.8335 20.2517 13.5348 20.0002C13.4149 19.6583 13.4149 19.286 13.5348 18.9441C13.6695 18.7597 13.7915 18.525 13.7578 18.4453C13.7578 18.4453 13.7578 18.4453 13.7284 18.4453C13.6422 18.3843 13.5656 18.3109 13.5012 18.2274C13.3497 18.7806 12.8574 20.4361 12.1464 21.0773C11.8279 22.0059 11.4527 22.9142 11.0231 23.7973C10.7103 24.1957 10.56 24.6972 10.6023 25.2012C10.5887 25.8785 10.3075 26.523 9.8198 26.995C9.76089 27.1207 9.04566 28.6714 9.36541 29.5096C9.42431 29.5725 9.61364 29.8323 9.31913 30.3897C9.13882 30.941 9.02857 31.5127 8.99096 32.0913C8.99967 32.2254 8.98022 32.3599 8.93386 32.4862C8.8875 32.6125 8.81525 32.7278 8.7217 32.8247C8.62147 32.9076 8.50493 32.9687 8.37958 33.0041C8.25423 33.0394 8.12283 33.0483 7.99384 33.03ZM7.96018 29.2917C7.79189 29.2917 7.60257 30.0125 7.53946 30.6831C7.48711 30.9252 7.4022 31.1593 7.28702 31.3788C7.03458 31.932 6.79477 32.4559 7.36275 32.766C7.49446 32.8301 7.63727 32.8685 7.78348 32.8792C7.92045 32.9121 8.06313 32.9138 8.20084 32.884C8.33854 32.8543 8.46771 32.7939 8.57865 32.7073C8.65543 32.6248 8.71474 32.5277 8.75305 32.4219C8.79136 32.316 8.80788 32.2036 8.80164 32.0913C8.73011 31.7057 9.12139 30.3813 9.13822 30.3227C9.42431 29.782 9.21816 29.5934 9.20974 29.585C8.84371 28.6379 9.63047 26.9992 9.66834 26.9321C10.1359 26.4864 10.408 25.875 10.4256 25.2306C10.3763 24.6999 10.5262 24.1698 10.8464 23.7428C11.2703 22.862 11.6439 21.9581 11.9655 21.0354C12.7775 20.3187 13.3287 18.1017 13.3329 18.064L13.417 17.7161L13.4675 18.0681C13.4675 18.1645 13.619 18.2987 13.7115 18.3699C13.7386 18.3736 13.7643 18.3839 13.7864 18.4C13.8084 18.4161 13.8261 18.4375 13.8377 18.4621C13.9177 18.6297 13.6821 18.9776 13.6021 19.0908C13.502 19.3914 13.502 19.7163 13.6021 20.017C13.7105 20.1448 13.7892 20.2947 13.8329 20.4563C13.8765 20.6178 13.8839 20.7869 13.8546 20.9516C13.7587 21.4665 13.5295 21.9475 13.1898 22.3472L13.1604 22.3807H13.1183C13.1087 22.3752 13.0978 22.3723 13.0867 22.3723C13.0757 22.3723 13.0648 22.3752 13.0552 22.3807C12.7775 22.5777 12.6092 23.9984 12.5587 24.8953C12.4234 25.4115 12.4991 25.9601 12.7691 26.4208C12.8885 26.5868 13.0628 26.7055 13.2613 26.7561C13.3941 26.7411 13.5223 26.6992 13.6381 26.6329C13.7539 26.5666 13.8548 26.4773 13.9345 26.3705C14.473 25.6706 14.2711 24.275 14.2669 24.275V24.1703C14.3881 23.6803 14.3881 23.1683 14.2669 22.6783C14.2669 22.0161 15.4996 20.5241 15.5543 20.4612C16.3116 19.4596 16.0802 19.0908 16.076 19.0866C16.0284 19.0337 15.9934 18.9708 15.9738 18.9026C15.9541 18.8344 15.9502 18.7626 15.9624 18.6926C15.9944 18.5869 16.067 18.498 16.1644 18.4453C16.4069 18.2695 16.6078 18.043 16.7532 17.7816C16.8985 17.5203 16.9848 17.2304 17.0058 16.9324C17.3298 14.9333 16.5851 13.7724 16.5851 13.7598C16.6819 9.98788 18.0071 8.54618 18.066 8.4875L18.1081 8.43721L18.1586 8.48331C18.431 8.75888 18.628 9.09941 18.7308 9.47239C18.7056 10.4237 19.6732 12.6659 19.6816 12.6869C19.9474 13.3519 20.0231 14.0772 19.9004 14.7824C19.7392 14.9668 19.6522 15.2042 19.6564 15.4488V15.6164L19.5344 15.5032C19.4881 15.4571 19.4671 15.4571 19.4671 15.4571C19.4189 15.664 19.4189 15.879 19.4671 16.0858V16.2031L19.3535 16.1612C19.3196 16.1466 19.2844 16.1353 19.2483 16.1277C19.2659 16.1606 19.2871 16.1915 19.3114 16.2199C19.4291 16.3916 19.574 16.5431 19.7405 16.6683C19.7784 16.7312 19.8373 16.8067 19.8962 16.8025C19.9551 16.7983 20.0477 16.6851 20.0729 16.6264C20.2872 16.3977 20.5409 16.2089 20.8218 16.069C21.0658 15.9768 20.8723 14.7028 20.5525 13.5209C20.5525 12.7917 20.3632 9.83281 20.3632 9.80348C20.338 9.06586 19.6143 7.98458 19.6059 7.9762C19.4181 7.59929 19.293 7.19446 19.2357 6.77757C19.1894 5.98547 18.0156 5.38196 18.0029 5.37358C17.7042 4.95448 16.442 4.40127 16.4252 4.39708L16.3495 4.36355L16.6861 3.88577C16.9515 3.44293 17.0966 2.9388 17.1068 2.42311V2.39377C17.3087 1.97467 17.0815 1.01912 17.0773 1.00655C16.8333 0.323417 15.853 0.201877 15.8446 0.201877C15.6242 0.160468 15.3971 0.171125 15.1815 0.232992C14.966 0.29486 14.768 0.406214 14.6035 0.558113C14.0818 1.10294 14.2164 2.07107 14.2164 2.07945V2.20099L14.107 2.1507L13.9934 2.1046C13.9482 2.11895 13.9075 2.14459 13.8751 2.17907C13.8427 2.21356 13.8197 2.25573 13.8083 2.30157C13.7494 2.5698 14.0776 2.99728 14.229 3.13977V3.16492L14.1449 3.86063H14.0776C13.3568 3.82728 12.6378 3.9562 11.9739 4.23782C10.6108 4.53538 10.4341 6.45067 10.4341 6.46744C10.4066 6.79012 10.2933 7.09969 10.1059 7.36431C9.90676 7.67959 9.76438 8.02707 9.68516 8.39111C9.58645 8.79517 9.43063 9.18322 9.22236 9.54364C9.09139 9.77294 9.0187 10.0307 9.01063 10.2944C9.00256 10.5581 9.05936 10.8198 9.17608 11.0566C9.38645 11.4757 10.1101 11.1488 10.1185 11.1446H10.148C10.5473 11.102 10.9346 10.9825 11.2881 10.7926L11.3639 10.7548V10.8345C11.6037 11.6517 11.0988 14.2166 11.0778 14.3256C10.6991 15.1009 9.70199 17.846 9.68937 17.8754C9.23906 19.4459 9.0626 21.0818 9.16767 22.7118C9.21816 22.9591 8.78901 23.6464 8.70066 23.7805C8.15792 24.0948 8.15793 26.8902 8.20421 27.9422C8.26261 28.3691 8.20297 28.8038 8.03171 29.1995V29.2372L7.96018 29.2917ZM11.57 9.19997H10.9053L11.6794 8.17318L11.5364 8.59228C11.4854 8.76464 11.4854 8.94798 11.5364 9.12034L11.57 9.19997ZM11.1872 9.06167H11.3975C11.3818 8.98156 11.3734 8.90021 11.3723 8.81859L11.1872 9.06167Z" fill="#231F20"/>
<path d="M16.4462 4.31361C16.4462 4.31361 17.7378 4.85006 18.0575 5.31527C18.0575 5.31527 19.2819 5.93554 19.3197 6.76955C19.3763 7.17618 19.4985 7.57104 19.6816 7.93884C19.6816 7.93884 20.422 9.03688 20.4473 9.79964C20.4473 9.79964 20.6366 12.7836 20.6366 13.5213C20.6366 13.5213 21.3098 15.9814 20.8764 16.1448C20.8764 16.1448 20.1822 16.5639 20.157 16.6729C20.157 16.6729 19.9424 17.1255 19.7026 16.719C19.537 16.5838 19.3949 16.4224 19.2819 16.2412C19.2819 16.2412 19.021 15.9311 19.4039 16.0736C19.4039 16.0736 19.2356 15.118 19.5722 15.4324C19.5669 15.1695 19.6599 14.9141 19.833 14.7157C19.9546 14.0246 19.8803 13.3134 19.6184 12.6621C19.6184 12.6621 18.6382 10.3948 18.6592 9.41826C18.558 9.0591 18.3686 8.7307 18.108 8.46271C18.108 8.46271 16.7449 9.91699 16.6481 13.6889C16.6481 13.6889 17.4138 14.8582 17.0688 16.9118C17.0506 17.221 16.9638 17.5223 16.8147 17.794C16.6655 18.0658 16.4578 18.3012 16.2063 18.4834C16.2063 18.4834 15.8445 18.6511 16.1348 19.0324C16.1348 19.0324 16.4209 19.4138 15.6047 20.4909C15.6047 20.4909 14.3131 22.0164 14.3425 22.6618C14.4697 23.1625 14.4697 23.6868 14.3425 24.1874C14.3425 24.1874 14.7001 26.5972 13.2613 26.7648C13.2613 26.7648 12.2094 26.6223 12.4955 24.8328C12.4955 24.8328 12.6386 22.0877 13.1435 22.2302C13.4742 21.8413 13.6975 21.3733 13.7914 20.8723C13.7914 20.8723 13.8839 20.252 13.5516 19.988C13.4302 19.6665 13.4213 19.3135 13.5263 18.9863C13.5263 18.9863 13.947 18.3912 13.6694 18.3661C13.6694 18.3661 13.4043 18.1733 13.3833 18.0056C13.3833 18.0056 12.8321 20.273 11.9949 21.0148C11.684 21.9414 11.3201 22.8495 10.9052 23.7347C10.59 24.1482 10.4401 24.6634 10.4845 25.1806C10.4683 25.8434 10.1901 26.473 9.71032 26.9325C9.71032 26.9325 8.89832 28.6089 9.25594 29.5309C9.25594 29.5309 9.52099 29.7488 9.20965 30.344C9.20965 30.344 8.78893 31.7019 8.87307 32.0874C8.87307 32.0874 8.9446 33.11 7.77077 32.9466C7.62409 32.9328 7.48135 32.8916 7.35004 32.825C6.4581 32.3389 7.3837 31.3624 7.49309 30.6792C7.49309 30.6792 7.66138 29.2208 7.99375 29.2208C8.167 28.8257 8.22532 28.39 8.16204 27.9635C8.16204 27.9635 7.99375 24.1455 8.69216 23.7431C8.69216 23.7431 9.19283 22.9552 9.14655 22.7163C9.03299 21.0836 9.2009 19.4436 9.643 17.8673C9.643 17.8673 10.6485 15.0971 11.0314 14.3092C11.0314 14.3092 11.5573 11.6605 11.3217 10.8474C10.9577 11.0426 10.559 11.165 10.1479 11.2078C10.1479 11.2078 9.35691 11.5641 9.11709 11.0863C8.99523 10.8405 8.93573 10.5687 8.9438 10.2947C8.95186 10.0207 9.02726 9.75289 9.16337 9.51466C9.36505 9.15353 9.51784 8.7674 9.61776 8.36632C9.69654 7.99559 9.83886 7.64115 10.0385 7.31857C10.2264 7.05856 10.3411 6.75327 10.3709 6.43426C10.3709 6.43426 10.5392 4.45611 11.9528 4.14597C12.6266 3.86249 13.355 3.73082 14.0859 3.7604L14.17 3.17366C14.17 3.17366 13.3538 2.28936 13.9765 2.02951C13.9765 2.02951 13.9302 1.98341 14.1448 2.07562C14.1448 2.07562 13.8334 -0.070181 15.8277 0.122605C15.8277 0.122605 16.8543 0.239954 17.1193 0.981763C17.1193 0.981763 17.3591 1.95827 17.1446 2.4109C17.1395 2.94054 16.9944 3.45949 16.7238 3.91547L16.4462 4.31361Z" fill="white"/>
<path d="M7.99384 33.03C7.9098 33.036 7.82544 33.036 7.7414 33.03C7.58319 33.015 7.42913 32.971 7.28702 32.9001C6.60965 32.5313 6.89995 31.8985 7.15239 31.3411C7.25985 31.1323 7.34178 30.9113 7.39641 30.6831C7.43427 30.3478 7.58574 29.2707 7.91811 29.1785C8.0696 28.8084 8.1204 28.4051 8.06536 28.0092C8.06536 27.5901 7.91811 24.1786 8.61231 23.726C8.81549 23.4358 8.95852 23.1081 9.03304 22.7621C8.92844 21.1031 9.11204 19.4386 9.57578 17.8418C9.57578 17.8083 10.5855 15.0758 10.9684 14.2837C10.9978 14.1244 11.448 11.7691 11.2755 10.9309C10.9297 11.1134 10.5505 11.2245 10.1606 11.2578C10.0386 11.3122 9.31913 11.5972 9.05407 11.1027C8.92551 10.846 8.86283 10.5616 8.87164 10.2749C8.88045 9.98822 8.96048 9.70816 9.10456 9.45982C9.3037 9.11176 9.45377 8.73804 9.55053 8.3492C9.62474 7.9653 9.76723 7.5977 9.97126 7.26373C10.1504 7.01702 10.262 6.72818 10.2952 6.42552C10.2952 6.33751 10.4845 4.38869 11.9318 4.07018C12.5963 3.78962 13.3142 3.65661 14.0355 3.68041L14.0986 3.1733C14.0018 3.06015 13.6105 2.58656 13.6779 2.23452C13.6934 2.17418 13.7222 2.11805 13.7622 2.0702C13.8023 2.02235 13.8525 1.98399 13.9093 1.95791C13.9387 1.916 13.9766 1.916 14.0565 1.95791C13.9894 1.41664 14.1407 0.870959 14.4772 0.440765C14.6535 0.270193 14.8676 0.143367 15.1023 0.0705566C15.3369 -0.0022542 15.5854 -0.019004 15.8278 0.0216638C15.8741 0.0216638 16.9048 0.155776 17.1783 0.926922C17.1783 0.973023 17.4181 1.92438 17.2078 2.39797C17.2019 2.9341 17.057 3.45962 16.787 3.92349L16.5472 4.26296C16.8291 4.38869 17.8094 4.84132 18.0913 5.23947C18.2428 5.3191 19.3535 5.9226 19.3829 6.74404C19.4378 7.14784 19.5586 7.53998 19.7405 7.90495C19.7658 7.94686 20.4894 9.02395 20.5147 9.7951C20.5147 9.82443 20.704 12.7623 20.7082 13.5125C20.826 13.9316 21.3645 16.0271 20.9017 16.2073C20.655 16.3365 20.4271 16.4987 20.2244 16.6893C20.2244 16.727 20.0982 16.9491 19.9215 16.9533C19.8205 16.9533 19.7321 16.8947 19.6522 16.7647C19.4859 16.627 19.3437 16.4627 19.2315 16.2786C19.1768 16.2115 19.0968 16.0942 19.1515 16.0146C19.2062 15.9349 19.2525 15.9601 19.324 15.9768C19.2862 15.7254 19.2651 15.3901 19.3998 15.3147C19.4175 15.3064 19.4369 15.3021 19.4566 15.3021C19.4762 15.3021 19.4956 15.3064 19.5133 15.3147C19.5313 15.0821 19.6243 14.8616 19.7784 14.686C19.8821 14.012 19.8066 13.3228 19.5596 12.6869C19.5218 12.5989 18.5793 10.4154 18.5962 9.43048C18.5028 9.11035 18.3405 8.81432 18.1207 8.56294C17.8893 8.85631 16.8081 10.3776 16.7197 13.676C16.8207 13.8352 17.4686 14.9836 17.1404 16.9198C17.1202 17.2377 17.0301 17.5473 16.8768 17.8268C16.7234 18.1063 16.5104 18.3489 16.2527 18.5375C16.2205 18.5545 16.192 18.5777 16.1688 18.6057C16.1457 18.6338 16.1285 18.6662 16.1181 18.701C16.1103 18.7517 16.1146 18.8036 16.1307 18.8524C16.1468 18.9012 16.1742 18.9455 16.2106 18.9818C16.2401 19.0279 16.5009 19.4386 15.6805 20.5199C15.6805 20.5199 14.4183 22.0245 14.4183 22.6405C14.546 23.1468 14.546 23.6766 14.4183 24.1828C14.4183 24.3421 14.6035 25.6706 14.0523 26.3873C13.959 26.5062 13.8421 26.6048 13.7089 26.6769C13.5758 26.749 13.4291 26.7931 13.2782 26.8064C13.0398 26.757 12.8293 26.6192 12.6892 26.4208C12.3976 25.9312 12.3129 25.3464 12.4535 24.7947C12.4535 24.5642 12.5882 22.4729 13.0047 22.1753C13.0432 22.146 13.0909 22.1312 13.1393 22.1334C13.4494 21.7601 13.6593 21.3146 13.7494 20.8384C13.7494 20.8384 13.8335 20.2517 13.5348 20.0002C13.4149 19.6583 13.4149 19.286 13.5348 18.9441C13.6695 18.7597 13.7915 18.525 13.7578 18.4453C13.7578 18.4453 13.7578 18.4453 13.7284 18.4453C13.6422 18.3843 13.5656 18.3109 13.5012 18.2274C13.3497 18.7806 12.8574 20.4361 12.1464 21.0773C11.8279 22.0059 11.4527 22.9142 11.0231 23.7973C10.7103 24.1957 10.56 24.6972 10.6023 25.2012C10.5887 25.8785 10.3075 26.523 9.8198 26.995C9.76089 27.1207 9.04566 28.6714 9.36541 29.5096C9.42431 29.5725 9.61364 29.8323 9.31913 30.3897C9.13882 30.941 9.02857 31.5127 8.99096 32.0913C8.99967 32.2254 8.98022 32.3599 8.93386 32.4862C8.8875 32.6125 8.81525 32.7278 8.7217 32.8247C8.62147 32.9076 8.50493 32.9687 8.37958 33.0041C8.25423 33.0394 8.12283 33.0483 7.99384 33.03ZM7.96018 29.2917C7.79189 29.2917 7.60257 30.0125 7.53946 30.6831C7.48711 30.9252 7.4022 31.1593 7.28702 31.3788C7.03458 31.932 6.79477 32.4559 7.36275 32.766C7.49446 32.8301 7.63727 32.8685 7.78348 32.8792C7.92045 32.9121 8.06313 32.9138 8.20084 32.884C8.33854 32.8543 8.46771 32.7939 8.57865 32.7073C8.65543 32.6248 8.71474 32.5277 8.75305 32.4219C8.79136 32.316 8.80788 32.2036 8.80164 32.0913C8.73011 31.7057 9.12139 30.3813 9.13822 30.3227C9.42431 29.782 9.21816 29.5934 9.20974 29.585C8.84371 28.6379 9.63047 26.9992 9.66834 26.9321C10.1359 26.4864 10.408 25.875 10.4256 25.2306C10.3763 24.6999 10.5262 24.1698 10.8464 23.7428C11.2703 22.862 11.6439 21.9581 11.9655 21.0354C12.7775 20.3187 13.3287 18.1017 13.3329 18.064L13.417 17.7161L13.4675 18.0681C13.4675 18.1645 13.619 18.2987 13.7115 18.3699C13.7386 18.3736 13.7643 18.3839 13.7864 18.4C13.8084 18.4161 13.8261 18.4375 13.8377 18.4621C13.9177 18.6297 13.6821 18.9776 13.6021 19.0908C13.502 19.3914 13.502 19.7163 13.6021 20.017C13.7105 20.1448 13.7892 20.2947 13.8329 20.4563C13.8765 20.6178 13.8839 20.7869 13.8546 20.9516C13.7587 21.4665 13.5295 21.9475 13.1898 22.3472L13.1604 22.3807H13.1183C13.1087 22.3752 13.0978 22.3723 13.0867 22.3723C13.0757 22.3723 13.0648 22.3752 13.0552 22.3807C12.7775 22.5777 12.6092 23.9984 12.5587 24.8953C12.4234 25.4115 12.4991 25.9601 12.7691 26.4208C12.8885 26.5868 13.0628 26.7055 13.2613 26.7561C13.3941 26.7411 13.5223 26.6992 13.6381 26.6329C13.7539 26.5666 13.8548 26.4773 13.9345 26.3705C14.473 25.6706 14.2711 24.275 14.2669 24.275V24.1703C14.3881 23.6803 14.3881 23.1683 14.2669 22.6783C14.2669 22.0161 15.4996 20.5241 15.5543 20.4612C16.3116 19.4596 16.0802 19.0908 16.076 19.0866C16.0284 19.0337 15.9934 18.9708 15.9738 18.9026C15.9541 18.8344 15.9502 18.7626 15.9624 18.6926C15.9944 18.5869 16.067 18.498 16.1644 18.4453C16.4069 18.2695 16.6078 18.043 16.7532 17.7816C16.8985 17.5203 16.9848 17.2304 17.0058 16.9324C17.3298 14.9333 16.5851 13.7724 16.5851 13.7598C16.6819 9.98788 18.0071 8.54618 18.066 8.4875L18.1081 8.43721L18.1586 8.48331C18.431 8.75888 18.628 9.09941 18.7308 9.47239C18.7056 10.4237 19.6732 12.6659 19.6816 12.6869C19.9474 13.3519 20.0231 14.0772 19.9004 14.7824C19.7392 14.9668 19.6522 15.2042 19.6564 15.4488V15.6164L19.5344 15.5032C19.4881 15.4571 19.4671 15.4571 19.4671 15.4571C19.4189 15.664 19.4189 15.879 19.4671 16.0858V16.2031L19.3535 16.1612C19.3196 16.1466 19.2844 16.1353 19.2483 16.1277C19.2659 16.1606 19.2871 16.1915 19.3114 16.2199C19.4291 16.3916 19.574 16.5431 19.7405 16.6683C19.7784 16.7312 19.8373 16.8067 19.8962 16.8025C19.9551 16.7983 20.0477 16.6851 20.0729 16.6264C20.2872 16.3977 20.5409 16.2089 20.8218 16.069C21.0658 15.9768 20.8723 14.7028 20.5525 13.5209C20.5525 12.7917 20.3632 9.83281 20.3632 9.80348C20.338 9.06586 19.6143 7.98458 19.6059 7.9762C19.4181 7.59929 19.293 7.19446 19.2357 6.77757C19.1894 5.98547 18.0156 5.38196 18.0029 5.37358C17.7042 4.95448 16.442 4.40127 16.4252 4.39708L16.3495 4.36355L16.6861 3.88577C16.9515 3.44293 17.0966 2.9388 17.1068 2.42311V2.39377C17.3087 1.97467 17.0815 1.01912 17.0773 1.00655C16.8333 0.323417 15.853 0.201877 15.8446 0.201877C15.6242 0.160468 15.3971 0.171125 15.1815 0.232992C14.966 0.29486 14.768 0.406214 14.6035 0.558113C14.0818 1.10294 14.2164 2.07107 14.2164 2.07945V2.20099L14.107 2.1507L13.9934 2.1046C13.9482 2.11895 13.9075 2.14459 13.8751 2.17907C13.8427 2.21356 13.8197 2.25573 13.8083 2.30157C13.7494 2.5698 14.0776 2.99728 14.229 3.13977V3.16492L14.1449 3.86063H14.0776C13.3568 3.82728 12.6378 3.9562 11.9739 4.23782C10.6108 4.53538 10.4341 6.45067 10.4341 6.46744C10.4066 6.79012 10.2933 7.09969 10.1059 7.36431C9.90676 7.67959 9.76438 8.02707 9.68516 8.39111C9.58645 8.79517 9.43063 9.18322 9.22236 9.54364C9.09139 9.77294 9.0187 10.0307 9.01063 10.2944C9.00256 10.5581 9.05936 10.8198 9.17608 11.0566C9.38645 11.4757 10.1101 11.1488 10.1185 11.1446H10.148C10.5473 11.102 10.9346 10.9825 11.2881 10.7926L11.3639 10.7548V10.8345C11.6037 11.6517 11.0988 14.2166 11.0778 14.3256C10.6991 15.1009 9.70199 17.846 9.68937 17.8754C9.23906 19.4459 9.0626 21.0818 9.16767 22.7118C9.21816 22.9591 8.78901 23.6464 8.70066 23.7805C8.15792 24.0948 8.15793 26.8902 8.20421 27.9422C8.26261 28.3691 8.20297 28.8038 8.03171 29.1995V29.2372L7.96018 29.2917Z" fill="#231F20"/>
<path d="M11.4857 8.55859C11.4295 8.74447 11.4295 8.94269 11.4857 9.12857H11.0649L11.4857 8.55859Z" fill="white"/>
<path d="M11.5742 9.20063H10.9053L11.6794 8.17383L11.5364 8.59293C11.4854 8.76529 11.4854 8.94863 11.5364 9.121L11.5742 9.20063ZM11.1914 9.06232H11.4017C11.386 8.98221 11.3776 8.90086 11.3765 8.81924L11.1914 9.06232Z" fill="#231F20"/>
<path d="M11.486 8.62561V8.55855L11.4229 8.55436H11.486V8.4873V8.55436H11.5575L11.486 8.62561Z" fill="#231F20"/>
<path d="M39.4728 25.063C41.282 25.1594 42.5105 25.2097 43.15 25.2097C43.2163 25.2133 43.2827 25.2033 43.3449 25.1802C43.4072 25.1571 43.464 25.1215 43.5118 25.0756C43.5583 25.0283 43.5943 24.9717 43.6175 24.9096C43.6407 24.8475 43.6506 24.7813 43.6465 24.7152V23.8267H41.3661C41.0938 23.8814 40.8121 23.8681 40.5462 23.788C40.2803 23.7078 40.0385 23.5634 39.8422 23.3675C39.646 23.1716 39.5015 22.9304 39.4216 22.6654C39.3418 22.4003 39.329 22.1197 39.3845 21.8485V21.5552C39.329 21.284 39.3418 21.0034 39.4216 20.7384C39.5015 20.4733 39.646 20.2321 39.8422 20.0362C40.0385 19.8403 40.2803 19.6959 40.5462 19.6158C40.8121 19.5356 41.0938 19.5223 41.3661 19.577H44.8497V20.9601H41.7616C41.6807 20.9488 41.5982 20.9564 41.5208 20.9824C41.4434 21.0084 41.3731 21.052 41.3155 21.1097C41.2579 21.1675 41.2146 21.2378 41.1891 21.3151C41.1636 21.3925 41.1565 21.4746 41.1684 21.5552V21.7522C41.1572 21.8324 41.1648 21.9141 41.1907 21.9908C41.2166 22.0676 41.2599 22.1374 41.3174 22.1946C41.3749 22.2519 41.4449 22.2951 41.522 22.3208C41.5991 22.3466 41.6811 22.3542 41.7616 22.3431H43.5497C43.8067 22.3011 44.0701 22.3206 44.3181 22.4001C44.566 22.4796 44.7914 22.6168 44.9756 22.8002C45.1598 22.9837 45.2975 23.2082 45.3773 23.4552C45.4571 23.7022 45.4767 23.9646 45.4345 24.2207V24.7152C45.4777 24.9714 45.4588 25.2342 45.3793 25.4816C45.2998 25.7291 45.1622 25.954 44.9777 26.1377C44.7933 26.3214 44.5675 26.4586 44.3191 26.5377C44.0707 26.6169 43.8069 26.6357 43.5497 26.5928C43.2131 26.5928 42.8555 26.5928 42.4768 26.5928L41.5639 26.555C40.8907 26.5215 40.1923 26.4754 39.4602 26.4167L39.4728 25.063Z" fill="#475467"/>
<path d="M47.9627 26.4924V28.1688H46.2461V21.2579H47.786L47.8827 21.7524C48.1771 21.5542 48.5008 21.4029 48.842 21.304C49.1141 21.2157 49.3974 21.1663 49.6834 21.1573H50.1294C50.3282 21.1443 50.5275 21.1738 50.7139 21.2438C50.9003 21.3138 51.0695 21.4227 51.2101 21.5632C51.3508 21.7037 51.4596 21.8726 51.5294 22.0585C51.5992 22.2443 51.6282 22.4429 51.6146 22.6409V24.9124C51.6347 25.1249 51.6075 25.3392 51.5349 25.54C51.4624 25.7409 51.3462 25.9232 51.1947 26.0741C51.0431 26.2251 50.8601 26.3408 50.6585 26.4131C50.4569 26.4854 50.2417 26.5125 50.0284 26.4924H47.9627ZM49.1533 22.5906C48.7491 22.5996 48.3481 22.6659 47.9627 22.7876V25.1597H49.4478C49.5017 25.1673 49.5566 25.1623 49.6083 25.1452C49.6599 25.1282 49.7069 25.0995 49.7456 25.0613C49.7843 25.0232 49.8136 24.9767 49.8313 24.9254C49.849 24.8742 49.8545 24.8195 49.8475 24.7657V22.9385C49.8481 22.8926 49.8394 22.8471 49.8221 22.8047C49.8047 22.7622 49.779 22.7237 49.7465 22.6912C49.714 22.6588 49.6752 22.6332 49.6326 22.616C49.59 22.5987 49.5443 22.5901 49.4983 22.5906H49.1533Z" fill="#475467"/>
<path d="M57.8329 25.0127C57.8516 25.2252 57.8233 25.4393 57.7499 25.6397C57.6766 25.8402 57.56 26.0221 57.4083 26.1728C57.2567 26.3235 57.0737 26.4391 56.8722 26.5117C56.6708 26.5842 56.4559 26.6119 56.2426 26.5927H53.9622C53.7489 26.6128 53.5338 26.5857 53.3322 26.5134C53.1306 26.4411 52.9475 26.3253 52.796 26.1744C52.6445 26.0235 52.5283 25.8411 52.4557 25.6403C52.3831 25.4395 52.3559 25.2252 52.3761 25.0127V22.7411C52.3568 22.5287 52.3845 22.3145 52.4574 22.1139C52.5302 21.9133 52.6463 21.731 52.7976 21.5799C52.9488 21.4288 53.1315 21.3127 53.3327 21.2396C53.534 21.1665 53.7489 21.1383 53.9622 21.1569H56.2426C56.4561 21.1384 56.6711 21.1666 56.8725 21.2397C57.0739 21.3128 57.2568 21.4288 57.4084 21.5798C57.56 21.7308 57.6765 21.913 57.7498 22.1136C57.8232 22.3143 57.8515 22.5284 57.8329 22.7411V25.0127ZM56.0953 22.8711C56.1031 22.8175 56.0982 22.7629 56.081 22.7116C56.0639 22.6603 56.035 22.6137 55.9966 22.5754C55.9582 22.5372 55.9114 22.5084 55.8599 22.4913C55.8084 22.4743 55.7536 22.4694 55.6998 22.4771H54.5092C54.4553 22.4696 54.4004 22.4745 54.3487 22.4916C54.2971 22.5086 54.2501 22.5374 54.2114 22.5755C54.1727 22.6136 54.1434 22.6601 54.1257 22.7114C54.108 22.7627 54.1025 22.8173 54.1095 22.8711V24.845C54.098 24.9007 54.1001 24.9582 54.1158 25.0128C54.1314 25.0674 54.1601 25.1175 54.1994 25.1586C54.2386 25.1998 54.2873 25.2309 54.3413 25.2493C54.3952 25.2676 54.4528 25.2727 54.5092 25.2641H55.6998C55.7559 25.272 55.813 25.2663 55.8663 25.2476C55.9197 25.2289 55.9678 25.1977 56.0066 25.1566C56.0453 25.1156 56.0736 25.0658 56.089 25.0116C56.1045 24.9574 56.1066 24.9003 56.0953 24.845V22.8711Z" fill="#475467"/>
<path d="M61.7501 22.6911C61.3031 22.6968 60.8626 22.7983 60.4585 22.9887V26.4924H58.7251V21.2578H60.2607L60.3617 21.899C60.843 21.4393 61.479 21.1748 62.1456 21.1572H62.5916V22.6911H61.7501Z" fill="#475467"/>
<path d="M66.9585 26.4919C66.3324 26.5581 65.7032 26.5917 65.0736 26.5925C64.8747 26.6054 64.6752 26.5759 64.4886 26.506C64.3021 26.436 64.1326 26.3271 63.9916 26.1867C63.8506 26.0463 63.7414 25.8775 63.6711 25.6916C63.6009 25.5057 63.5713 25.3071 63.5843 25.1089V22.5943H62.9868V21.2573H63.5843L63.782 20.0713H65.3176V21.2573H66.5588V22.5901H65.3176V24.8616C65.3161 24.9076 65.3242 24.9534 65.3416 24.996C65.359 25.0386 65.3853 25.0771 65.4186 25.1089C65.4507 25.1419 65.4894 25.1679 65.5321 25.1852C65.5748 25.2025 65.6207 25.2108 65.6669 25.2095H66.9585V26.4919Z" fill="#475467"/>
<path d="M67.4511 25.1094C68.7918 25.21 69.8507 25.2603 70.6276 25.2603C70.6737 25.2611 70.7194 25.2526 70.7621 25.2353C70.8047 25.218 70.8434 25.1923 70.8758 25.1597C70.9076 25.1269 70.9325 25.0882 70.9491 25.0458C70.9658 25.0033 70.9737 24.958 70.9726 24.9124V24.5688H68.8395C68.6407 24.5818 68.4415 24.5523 68.2551 24.4823C68.0687 24.4123 67.8995 24.3034 67.7588 24.1628C67.6181 24.0223 67.5093 23.8535 67.4395 23.6676C67.3698 23.4817 67.3407 23.2831 67.3543 23.0852V22.7415C67.3407 22.5435 67.3698 22.3449 67.4395 22.1591C67.5093 21.9732 67.6181 21.8043 67.7588 21.6638C67.8995 21.5233 68.0687 21.4144 68.2551 21.3444C68.4415 21.2743 68.6407 21.2449 68.8395 21.2579H72.2053V22.5403H69.4285C69.3591 22.5398 69.2911 22.5599 69.2331 22.5981C69.1752 22.6363 69.1301 22.6908 69.1034 22.7547C69.0768 22.8186 69.0699 22.8889 69.0836 22.9568C69.0972 23.0246 69.1309 23.0868 69.1803 23.1354C69.2126 23.1679 69.2514 23.1933 69.2942 23.2099C69.3369 23.2265 69.3827 23.234 69.4285 23.2318H71.2124C71.4114 23.2189 71.6108 23.2484 71.7974 23.3184C71.984 23.3884 72.1534 23.4972 72.2944 23.6376C72.4354 23.7781 72.5447 23.9469 72.6149 24.1327C72.6852 24.3186 72.7148 24.5173 72.7018 24.7155V25.1094C72.7148 25.3076 72.6852 25.5063 72.6149 25.6921C72.5447 25.878 72.4354 26.0468 72.2944 26.1872C72.1534 26.3277 71.984 26.4365 71.7974 26.5065C71.6108 26.5765 71.4114 26.606 71.2124 26.593C70.0428 26.593 68.7806 26.5274 67.4259 26.3961L67.4511 25.1094Z" fill="#475467"/>
<path d="M82.1345 26.3961C80.6311 26.5274 79.275 26.5931 78.0661 26.5931C77.8087 26.6371 77.5445 26.6189 77.2956 26.5401C77.0468 26.4613 76.8205 26.3241 76.6358 26.1402C76.4512 25.9563 76.3135 25.7309 76.2344 25.483C76.1553 25.2351 76.1371 24.9719 76.1812 24.7155C76.1618 24.2659 76.2952 23.8229 76.5599 23.4582C76.7648 23.1957 77.0547 23.012 77.3803 22.9385C77.0913 22.8455 76.8394 22.6636 76.6608 22.4188C76.4685 22.1349 76.3727 21.7971 76.3874 21.4549V21.3585C76.3676 21.1156 76.3982 20.8713 76.477 20.6406C76.5559 20.4099 76.6815 20.1978 76.846 20.0174C77.2487 19.6986 77.7602 19.5483 78.2722 19.5983H81.4445V20.9813H78.7687C78.6876 20.9702 78.6051 20.978 78.5275 21.0039C78.4499 21.0299 78.3794 21.0734 78.3216 21.1311C78.2637 21.1887 78.22 21.2589 78.1939 21.3362C78.1679 21.4135 78.1601 21.4957 78.1712 21.5765V21.8698C78.1625 21.9488 78.1717 22.0288 78.1983 22.1037C78.2248 22.1787 78.268 22.2467 78.3246 22.3027C78.3813 22.3587 78.4498 22.4012 78.5253 22.4271C78.6007 22.4531 78.681 22.4617 78.7603 22.4524H80.3464L80.4937 21.6603H82.1345V22.4524H82.9255V23.8354H82.1345V26.3961ZM78.4616 25.2101C79.1894 25.2101 79.8163 25.2101 80.3464 25.1598V23.827H78.5625C78.4817 23.8152 78.3992 23.8222 78.3216 23.8477C78.2439 23.8731 78.1733 23.9162 78.1154 23.9736C78.0574 24.0309 78.0136 24.1009 77.9875 24.1781C77.9614 24.2552 77.9538 24.3373 77.9651 24.418V24.7155C77.96 24.7817 77.9694 24.8483 77.9926 24.9106C78.0158 24.9728 78.0522 25.0294 78.0993 25.0764C78.1465 25.1233 78.2032 25.1596 78.2658 25.1827C78.3283 25.2057 78.3951 25.2151 78.4616 25.2101Z" fill="#475467"/>
<path d="M86.5942 19.5774H90.7636C91.0351 19.528 91.3146 19.5451 91.578 19.6271C91.8414 19.7091 92.0809 19.8536 92.2758 20.0482C92.4708 20.2428 92.6153 20.4817 92.6971 20.7442C92.7789 21.0068 92.7954 21.2852 92.7453 21.5556V22.4524C92.7651 22.8881 92.6709 23.3214 92.4718 23.7097C92.3759 23.8636 92.2496 23.9964 92.1006 24.1001C91.9516 24.2038 91.7831 24.2764 91.6051 24.3132L92.8462 26.4842H90.9109L89.7707 24.3887H88.3823V26.4842H86.5942V19.5774ZM90.9614 21.5556C90.9734 21.4746 90.9663 21.392 90.9406 21.3143C90.9148 21.2366 90.8711 21.1661 90.8131 21.1082C90.755 21.0503 90.6841 21.0069 90.6061 20.9812C90.5281 20.9555 90.4452 20.9484 90.364 20.9604H88.3823V23.0559H90.364C90.446 23.0683 90.5298 23.0611 90.6086 23.035C90.6873 23.0089 90.7587 22.9646 90.817 22.9058C90.8753 22.8469 90.9187 22.7752 90.9438 22.6964C90.9689 22.6176 90.9749 22.534 90.9614 22.4524V21.5556Z" fill="#475467"/>
<path d="M98.4963 26.3957C97.3434 26.5196 96.1849 26.5853 95.0253 26.5927C94.8265 26.6057 94.6272 26.5762 94.4408 26.5062C94.2544 26.4362 94.0852 26.3273 93.9446 26.1868C93.8039 26.0462 93.695 25.8774 93.6253 25.6915C93.5555 25.5056 93.5265 25.307 93.5401 25.1091V22.7411C93.5208 22.5287 93.5486 22.3145 93.6214 22.1139C93.6943 21.9133 93.8104 21.731 93.9616 21.5799C94.1129 21.4288 94.2956 21.3127 94.4968 21.2396C94.698 21.1665 94.9129 21.1383 95.1263 21.1569H97.1079C97.3214 21.1384 97.5364 21.1666 97.7379 21.2397C97.9393 21.3128 98.1222 21.4288 98.2737 21.5798C98.4253 21.7308 98.5418 21.913 98.6152 22.1136C98.6885 22.3143 98.7169 22.5284 98.6982 22.7411V24.5684H95.2735V24.9666C95.2722 25.0125 95.2805 25.0582 95.2979 25.1008C95.3153 25.1434 95.3414 25.1819 95.3745 25.2138C95.4064 25.2471 95.4451 25.2732 95.4878 25.2905C95.5306 25.3079 95.5766 25.316 95.6227 25.3144C96.2734 25.3144 97.2313 25.2641 98.4963 25.1636V26.3957ZM95.669 22.3933C95.6154 22.3865 95.561 22.3919 95.5099 22.4093C95.4588 22.4267 95.4124 22.4555 95.3742 22.4935C95.336 22.5316 95.307 22.5778 95.2896 22.6288C95.2722 22.6797 95.2667 22.7339 95.2735 22.7873V23.3321H96.9564V22.7873C96.9642 22.7337 96.9593 22.6791 96.9422 22.6278C96.925 22.5765 96.8961 22.5299 96.8577 22.4916C96.8193 22.4534 96.7725 22.4246 96.721 22.4075C96.6695 22.3904 96.6147 22.3856 96.5609 22.3933H95.669Z" fill="#475467"/>
<path d="M101.324 21.3583C101.876 21.2347 102.44 21.1673 103.007 21.1572H103.465C103.665 21.1499 103.863 21.1834 104.049 21.2555C104.235 21.3275 104.404 21.4367 104.546 21.5763C104.687 21.7173 104.797 21.8858 104.87 22.0711C104.942 22.2564 104.975 22.4546 104.967 22.6534V26.5049H103.23V22.8378C103.231 22.7921 103.224 22.7467 103.207 22.7042C103.19 22.6617 103.165 22.6231 103.132 22.5908C103.1 22.5585 103.061 22.5333 103.019 22.5166C102.976 22.5 102.93 22.4923 102.885 22.4941H102.535C102.305 22.4929 102.074 22.5055 101.845 22.5318L101.345 22.5905V26.4923H99.6113V19.5771H101.345L101.324 21.3583Z" fill="#475467"/>
<path d="M106.086 21.3584C107.173 21.2318 108.266 21.1646 109.36 21.1573C109.559 21.1443 109.758 21.1738 109.945 21.2438C110.131 21.3138 110.301 21.4226 110.442 21.5631C110.583 21.7035 110.692 21.8723 110.762 22.0582C110.832 22.244 110.862 22.4427 110.849 22.6409V26.4924H109.309L109.212 26.0021C108.916 26.197 108.593 26.348 108.253 26.4505C107.981 26.5377 107.697 26.5857 107.412 26.593H107.067C106.868 26.6059 106.668 26.5764 106.482 26.5065C106.295 26.4365 106.126 26.3276 105.985 26.1872C105.844 26.0468 105.734 25.878 105.664 25.6921C105.594 25.5062 105.564 25.3076 105.577 25.1094V24.6651C105.564 24.4671 105.594 24.2686 105.664 24.0829C105.734 23.8973 105.844 23.7287 105.985 23.5886C106.126 23.4485 106.295 23.34 106.482 23.2705C106.669 23.2011 106.868 23.1721 107.067 23.1857H109.099V22.7666C109.1 22.7208 109.092 22.6752 109.074 22.6327C109.057 22.5902 109.032 22.5517 108.999 22.5195C108.966 22.4873 108.927 22.4621 108.884 22.4455C108.841 22.4289 108.795 22.4212 108.75 22.4229C108.329 22.4229 107.845 22.4229 107.327 22.4816L106.065 22.5696L106.086 21.3584ZM107.921 25.21C108.325 25.2007 108.726 25.1344 109.111 25.013V24.4179H107.672C107.626 24.4171 107.581 24.4255 107.538 24.4428C107.495 24.4601 107.457 24.4858 107.424 24.5185C107.392 24.5506 107.366 24.5893 107.35 24.6319C107.333 24.6745 107.325 24.7201 107.327 24.7657V24.8621C107.325 24.9078 107.332 24.9535 107.349 24.9961C107.366 25.0388 107.391 25.0774 107.424 25.1094C107.457 25.142 107.495 25.1677 107.538 25.185C107.581 25.2023 107.626 25.2108 107.672 25.21H107.921Z" fill="#475467"/>
<path d="M113.474 21.3583C114.027 21.2347 114.591 21.1673 115.157 21.1572H115.506C115.706 21.1509 115.904 21.1848 116.09 21.2568C116.276 21.3289 116.445 21.4375 116.588 21.5763C116.728 21.7178 116.837 21.8863 116.91 22.0715C116.982 22.2567 117.016 22.4547 117.008 22.6534V24.9249C117.028 25.1374 117.001 25.3517 116.929 25.5525C116.856 25.7533 116.74 25.9357 116.588 26.0866C116.437 26.2375 116.254 26.3533 116.052 26.4256C115.851 26.4979 115.635 26.525 115.422 26.5049H111.753V19.5771H113.487L113.474 21.3583ZM115.245 22.8378C115.246 22.7919 115.238 22.7463 115.22 22.7038C115.203 22.6613 115.177 22.6228 115.144 22.5905C115.112 22.5588 115.073 22.534 115.03 22.5175C114.987 22.5009 114.942 22.493 114.896 22.4941H114.648C114.408 22.492 114.167 22.5046 113.929 22.5318L113.457 22.5905V25.1596H114.846C114.901 25.1709 114.959 25.1687 115.013 25.1533C115.067 25.1379 115.117 25.1098 115.159 25.0712C115.2 25.0326 115.231 24.9847 115.25 24.9315C115.269 24.8783 115.274 24.8214 115.266 24.7656L115.245 22.8378Z" fill="#475467"/>
</svg>
