<svg width="139" height="27" viewBox="0 0 139 27" fill="none" xmlns="http://www.w3.org/2000/svg">
<mask id="mask0_11904_873" style="mask-type:luminance" maskUnits="userSpaceOnUse" x="0" y="0" width="139" height="27">
<path d="M138.399 0H0V26.5089H138.399V0Z" fill="white"/>
</mask>
<g mask="url(#mask0_11904_873)">
<mask id="mask1_11904_873" style="mask-type:luminance" maskUnits="userSpaceOnUse" x="-15" y="-14" width="167" height="57">
<path d="M151.139 -13.8408H-14.0366V42.1123H151.139V-13.8408Z" fill="white"/>
</mask>
<g mask="url(#mask1_11904_873)">
<path d="M19.6351 25.8717L16.0874 12.8854L16.0238 12.7218H19.5988C20.0288 12.7149 20.4448 12.8744 20.7602 13.1671C20.7602 13.1671 29.3438 22.4184 31.6485 24.245C33.4633 25.7172 34.6428 25.8172 35.523 25.8172H36.9657L26.2407 0.744141H19.5625L8.91016 25.8717H19.6351Z" fill="#475467"/>
<path d="M6.9685 0.744141H0V25.8626H6.9685V0.744141Z" fill="#475467"/>
<path d="M35.3872 13.4311V13.3584C35.3872 6.07001 41.0672 0.353825 48.807 0.353825C52.5226 0.222177 56.147 1.52328 58.9331 3.98892L54.8681 8.89629C53.2303 7.37519 51.0768 6.53389 48.8433 6.54257C45.2138 6.54257 42.4918 9.57787 42.4918 13.4038V13.4765C42.4476 14.386 42.5917 15.2949 42.9149 16.146C43.2381 16.9971 43.7335 17.7721 44.3699 18.4223C45.0064 19.0726 45.7702 19.584 46.6134 19.9246C47.4566 20.2652 48.3609 20.4275 49.2697 20.4014C50.6739 20.4623 52.0642 20.1015 53.2621 19.3654V16.3573H48.3079V11.25H59.786V22.5006C56.7367 25.016 52.9025 26.3797 48.9522 26.3538C41.1761 26.3538 35.3418 21.0012 35.3418 13.422" fill="#475467"/>
<path d="M66.1738 1.31738H65.4751V7.48795H66.1738V1.31738Z" fill="#475467"/>
<path d="M72.3888 1.31738H73.0694V7.48795H72.5159L68.5326 2.42609V7.48795H67.8521V1.31738H68.5053L72.3888 6.26111V1.31738Z" fill="#475467"/>
<path d="M77.0075 7.48795H76.3088V1.95352H74.231V1.31738H79.0762V1.95352H77.0075V7.48795Z" fill="#475467"/>
<path d="M84.7105 1.95352H80.954V4.06188H84.3113V4.68893H80.954V6.85181H84.7559V7.48795H80.2554V1.31738H84.7105V1.95352Z" fill="#475467"/>
<path d="M90.273 7.48795L88.4583 5.08879H86.7252V7.48795H86.0356V1.31738H88.6851C90.0371 1.31738 90.9172 2.0444 90.9172 3.13493C90.9187 3.59281 90.7476 4.03437 90.438 4.37134C90.1285 4.7083 89.7034 4.91585 89.2477 4.95248L91.1441 7.47886L90.273 7.48795ZM88.6216 1.96261H86.7162V4.46174H88.6125C89.5199 4.46174 90.2004 3.98918 90.2004 3.18037C90.2004 2.37156 89.6197 1.95352 88.6216 1.95352" fill="#475467"/>
<path d="M96.8058 1.31738H97.4773V7.48795H96.9238L92.9496 2.42609V7.48795H92.269V1.31738H92.9223L96.8058 6.26111V1.31738Z" fill="#475467"/>
<path d="M104.746 7.48749H103.992L103.267 5.8517H99.9093L99.1743 7.48749H98.4575L101.27 1.27148H101.924L104.746 7.48749ZM101.624 2.08029L100.218 5.22465H103.031L101.624 2.08029Z" fill="#475467"/>
<path d="M107.15 7.48795H106.442V1.95352H104.374V1.31738H109.219V1.95352H107.15V7.48795Z" fill="#475467"/>
<path d="M111.151 1.31738H110.453V7.48795H111.151V1.31738Z" fill="#475467"/>
<path d="M115.688 7.59718C115.268 7.60844 114.85 7.53387 114.46 7.37801C114.069 7.22215 113.715 6.98827 113.417 6.69064C113.12 6.39301 112.887 6.03787 112.731 5.64688C112.576 5.25588 112.501 4.83724 112.512 4.41648C112.512 3.58134 112.844 2.7804 113.433 2.18987C114.023 1.59934 114.822 1.26758 115.656 1.26758C116.49 1.26758 117.29 1.59934 117.879 2.18987C118.469 2.7804 118.8 3.58134 118.8 4.41648C118.81 4.83539 118.736 5.252 118.581 5.64153C118.427 6.03106 118.196 6.38557 117.903 6.68398C117.609 6.98239 117.258 7.21862 116.872 7.37862C116.485 7.53862 116.07 7.61913 115.652 7.61536M115.652 1.87191C115.324 1.87275 115 1.94011 114.699 2.06992C114.399 2.19972 114.127 2.38928 113.902 2.62713C113.676 2.86498 113.501 3.14618 113.387 3.45373C113.273 3.76128 113.222 4.0888 113.238 4.41648C113.225 4.74549 113.278 5.07383 113.394 5.38196C113.51 5.69008 113.686 5.97167 113.913 6.20995C114.14 6.44824 114.413 6.63835 114.714 6.76895C115.016 6.89954 115.341 6.96796 115.67 6.97013C115.997 6.96923 116.32 6.90215 116.62 6.7729C116.92 6.64365 117.191 6.45492 117.417 6.21805C117.642 5.98119 117.818 5.70109 117.932 5.3946C118.047 5.08812 118.098 4.76159 118.084 4.43465C118.106 4.10348 118.061 3.77125 117.951 3.45806C117.841 3.14487 117.669 2.85724 117.445 2.61257C117.221 2.36789 116.95 2.17127 116.648 2.03459C116.346 1.89791 116.019 1.82402 115.688 1.81739" fill="#475467"/>
<path d="M124.716 1.31738H125.397V7.48795H124.843L120.86 2.42609V7.48795H120.179V1.31738H120.832L124.716 6.26111V1.31738Z" fill="#475467"/>
<path d="M132.747 7.48749H131.994L131.277 5.8517H127.938L127.203 7.48749H126.486L129.299 1.27148H129.952L132.747 7.48749ZM129.607 2.08029L128.201 5.22465H131.014L129.607 2.08029Z" fill="#475467"/>
<path d="M133.835 1.31738H134.525V6.84272H138V7.48795H133.835V1.31738Z" fill="#475467"/>
<path d="M70.229 16.3029H69.485L68.7591 14.6671H65.4019L64.676 16.3029H63.9683L66.772 10.0869H67.4253L70.229 16.3029ZM67.0805 10.9048L65.6741 14.0492H68.4869L67.0805 10.9048Z" fill="#475467"/>
<path d="M72.289 10.1318H71.5903V16.3024H72.289V10.1318Z" fill="#475467"/>
<path d="M78.5044 16.3024L76.6897 13.9032H74.9567V16.3024H74.2671V10.1318H76.9166C78.2685 10.1318 79.1487 10.8589 79.1487 11.9494C79.1501 12.4073 78.979 12.8488 78.6695 13.1858C78.3599 13.5228 77.9348 13.7303 77.4791 13.7669L79.3755 16.2842L78.5044 16.3024ZM76.8531 10.768H74.9476V13.2762H76.8531C77.7604 13.2762 78.4409 12.8036 78.4409 11.9948C78.4409 11.186 77.8602 10.768 76.8621 10.768" fill="#475467"/>
<path d="M80.7095 10.1318H81.4081V15.6572H84.8833V16.3024H80.7095V10.1318Z" fill="#475467"/>
<path d="M86.7431 10.1318H86.0444V16.3024H86.7431V10.1318Z" fill="#475467"/>
<path d="M93.258 10.1318H93.9385V16.3024H93.3759L89.4017 11.2405V16.3024H88.7212V10.1318H89.3745L93.258 15.0756V10.1318Z" fill="#475467"/>
<path d="M100.308 10.768H96.5426V12.8763H99.9089V13.5034H96.5426V15.6663H100.354V16.3024H95.853V10.1318H100.308V10.768Z" fill="#475467"/>
<path d="M104.128 12.8861C105.498 13.186 106.134 13.6858 106.134 14.64C106.134 15.5942 105.253 16.3576 104.038 16.3576C103.112 16.3882 102.209 16.0631 101.515 15.4488L101.942 14.9399C102.215 15.226 102.543 15.4539 102.906 15.61C103.269 15.7662 103.66 15.8474 104.056 15.8487C104.881 15.8487 105.426 15.4125 105.426 14.7945C105.426 14.1766 105.117 13.8858 103.82 13.6131C102.522 13.3405 101.751 12.8497 101.751 11.7956C101.767 11.5491 101.832 11.3084 101.944 11.0882C102.055 10.8679 102.21 10.6727 102.4 10.5146C102.589 10.3564 102.809 10.2385 103.045 10.1681C103.281 10.0978 103.53 10.0764 103.774 10.1053C104.565 10.0814 105.337 10.3499 105.943 10.8595L105.535 11.3957C105.032 10.9565 104.387 10.7172 103.72 10.7232C102.922 10.7232 102.404 11.1685 102.404 11.732C102.404 12.2954 102.722 12.6407 104.074 12.9406" fill="#475467"/>
<path d="M67.3439 25.2274C66.9247 25.2431 66.5069 25.1712 66.117 25.0163C65.7271 24.8615 65.3736 24.6269 65.0791 24.3277C64.7847 24.0285 64.5556 23.6712 64.4066 23.2785C64.2576 22.8858 64.1918 22.4663 64.2135 22.0467C64.2001 21.6314 64.2703 21.2177 64.4198 20.8301C64.5693 20.4425 64.795 20.089 65.0837 19.7905C65.3724 19.4921 65.718 19.2549 66.1 19.0929C66.4821 18.931 66.8928 18.8476 67.3076 18.8478C68.1499 18.8109 68.9735 19.1043 69.6032 19.6657L69.1586 20.1928C68.9074 19.9569 68.6122 19.7729 68.2899 19.6513C67.9676 19.5297 67.6246 19.4728 67.2804 19.484C66.9586 19.4932 66.6419 19.5668 66.349 19.7005C66.0561 19.8342 65.7928 20.0252 65.5746 20.2623C65.3565 20.4994 65.1879 20.7778 65.0788 21.0811C64.9697 21.3845 64.9223 21.7066 64.9394 22.0285C64.9139 22.362 64.9586 22.6971 65.0705 23.0122C65.1824 23.3273 65.3591 23.6153 65.5891 23.8577C65.8192 24.1001 66.0975 24.2915 66.406 24.4194C66.7145 24.5473 67.0464 24.609 67.3802 24.6004C68.0375 24.6061 68.6773 24.3882 69.1949 23.9824V22.4466H67.2804V21.8104H69.8664V24.2732C69.1784 24.8676 68.2978 25.1906 67.3893 25.182" fill="#475467"/>
<path d="M75.8006 25.1178L73.9859 22.7187H72.2529V25.1178H71.5542V18.9473H74.2037C75.5556 18.9473 76.4358 19.6743 76.4358 20.7648C76.4372 21.2227 76.2661 21.6642 75.9566 22.0012C75.6471 22.3382 75.2219 22.5457 74.7662 22.5824L76.6626 25.0997L75.8006 25.1178ZM74.1583 19.5834H72.2529V22.0916H74.1492C75.0566 22.0916 75.7371 21.6191 75.7371 20.8102C75.7371 20.0014 75.1564 19.5834 74.1583 19.5834Z" fill="#475467"/>
<path d="M80.9638 25.227C80.3328 25.2342 79.7139 25.0535 79.1856 24.7078C78.6573 24.3621 78.2434 23.8671 77.9965 23.2854C77.7496 22.7038 77.6809 22.0617 77.7989 21.4409C77.9169 20.82 78.2164 20.2482 78.6594 19.7981C79.1025 19.348 79.669 19.0399 80.2872 18.9128C80.9053 18.7857 81.5472 18.8454 82.1315 19.0844C82.7157 19.3233 83.2159 19.7307 83.5685 20.2548C83.9212 20.7789 84.1105 21.3961 84.1123 22.0282C84.1259 22.4481 84.0541 22.8664 83.9013 23.2576C83.7485 23.6489 83.5178 24.005 83.2233 24.3042C82.9288 24.6034 82.5766 24.8395 82.1882 24.9981C81.7998 25.1568 81.3832 25.2347 80.9638 25.227ZM80.9638 19.4836C80.6362 19.4844 80.3122 19.5518 80.0114 19.6816C79.7106 19.8114 79.4392 20.001 79.2136 20.2388C78.988 20.4767 78.8129 20.7579 78.6988 21.0654C78.5848 21.373 78.5343 21.7005 78.5502 22.0282C78.5368 22.3572 78.5897 22.6855 78.7056 22.9936C78.8216 23.3018 78.9983 23.5833 79.2252 23.8216C79.4521 24.0599 79.7246 24.25 80.0264 24.3806C80.3282 24.5112 80.6532 24.5796 80.9819 24.5818C81.3095 24.581 81.6335 24.5136 81.9343 24.3838C82.2351 24.254 82.5065 24.0644 82.7321 23.8266C82.9578 23.5887 83.1329 23.3075 83.2469 23C83.3609 22.6924 83.4115 22.3649 83.3955 22.0372C83.4089 21.7082 83.356 21.3799 83.2401 21.0718C83.1241 20.7636 82.9474 20.4821 82.7205 20.2438C82.4936 20.0055 82.2211 19.8154 81.9193 19.6848C81.6175 19.5542 81.2926 19.4858 80.9638 19.4836Z" fill="#475467"/>
<path d="M90.7357 22.4824C90.7393 22.8201 90.6764 23.1553 90.5507 23.4687C90.425 23.7821 90.2388 24.0676 90.0029 24.3089C89.767 24.5503 89.4859 24.7427 89.1757 24.8753C88.8656 25.0078 88.5324 25.0779 88.1951 25.0815C87.8579 25.0851 87.5233 25.0221 87.2104 24.8961C86.8975 24.7702 86.6124 24.5838 86.3714 24.3475C86.1305 24.1112 85.9383 23.8297 85.806 23.519C85.6736 23.2084 85.6037 22.8747 85.6001 22.5369V18.9473H86.2988V22.4915C86.2988 23.8274 87.0065 24.5726 88.1861 24.5726C89.3656 24.5726 90.0008 23.8819 90.0008 22.5369V18.9473H90.7357V22.4824Z" fill="#475467"/>
<path d="M94.7189 22.9459H93.2217V25.1269H92.5503V18.9473H94.855C96.2432 18.9473 97.1597 19.6834 97.1597 20.9102C97.1597 22.1371 96.0527 22.9368 94.737 22.9368M94.8005 19.5834H93.2399V22.3097H94.7642C95.7896 22.3097 96.4519 21.7645 96.4519 20.9466C96.4519 20.1287 95.7896 19.5925 94.8005 19.5925" fill="#475467"/>
</g>
</g>
</svg>
