<svg width="131" height="26" viewBox="0 0 131 26" fill="none" xmlns="http://www.w3.org/2000/svg">
<path d="M35.3217 1.305C47.5389 1.30289 62.4116 1.30183 63.0514 1.30871C64.9865 1.32563 65.8644 0.503292 66.217 0.208731C66.5707 -0.0863578 66.9735 -0.071551 66.9628 0.272191C66.9594 0.420264 64.868 4.96559 61.9716 4.95924C60.1973 4.9566 46.8608 4.95448 35.2997 4.95448C35.7437 4.45791 36.0106 3.81643 36.0106 3.1189C36.0112 2.43142 35.7528 1.7984 35.3217 1.305ZM45.8582 12.1122C45.6326 12.5364 43.8707 16.6385 43.8707 16.6385C43.3973 17.7724 44.0907 18.3482 44.5996 18.4694C45.7386 18.7417 46.8359 17.9537 48.0201 15.034C49.9 10.3972 46.4309 11.0392 45.8582 12.1122ZM33.4114 15.9066C35.0978 16.6105 34.4202 18.8073 33.2416 19.0738C32.6983 19.4736 34.9748 20.5186 35.9756 18.3689C36.9956 16.1779 35.6947 14.0478 35.5418 13.53C35.1322 13.8484 34.4213 14.6723 33.4114 15.9066ZM47.6168 19.4683C50.4636 18.6407 52.8782 15.1472 53.3736 13.988C54.4692 11.245 55.4023 9.11799 55.4023 9.11799L58.8094 9.11006C58.8094 9.11006 56.3733 14.5745 55.3245 17.3477C54.3214 19.9961 57.1479 17.7702 58.2937 14.8299C59.2957 12.2995 60.5781 9.20789 60.5781 9.20789L64.1109 9.20207C64.1109 9.20207 60.0111 18.7993 59.5885 19.6312C60.9087 19.2949 62.5634 20.2473 62.4026 20.709C61.8243 22.3605 61.4706 19.8919 59.0401 20.6043C57.7014 23.645 54.7225 26.3009 52.3835 25.9724C49.3539 25.5488 51.1214 21.6762 56.23 20.2748L56.674 19.1177C54.0483 21.1622 51.5197 19.9221 52.1177 17.5153C49.9141 20.0268 47.3251 20.3843 45.6788 20.2727C44.4405 20.4461 43.3832 19.9469 42.8331 19.1801C41.9948 21.2404 40.8501 23.8857 40.8501 23.8857H37.465L39.1948 19.7423C37.7443 20.5434 36.3192 20.6989 35.2095 20.6598C32.9697 21.2352 31.592 19.8322 31.1965 18.8073C28.6972 21.911 25.9362 20.7978 25.5599 18.8929C24.493 19.9316 23.3246 20.7116 22.2656 20.6746C19.6879 20.5857 20.3193 16.9696 20.7666 15.7586C21.9328 12.6062 23.1971 11.3449 20.8338 11.2751C20.44 11.2635 17.6056 21.5741 12.4519 22.0226C7.6767 22.4351 9.5159 18.8713 10.308 16.8331C11.5746 13.5687 12.9184 11.9393 12.2442 10.7235C11.7218 9.7785 8.82423 11.7331 7.93566 13.8167C6.78756 16.5016 4.46938 22.1104 4.46938 22.1104L0 22.2003C0 22.2003 3.68687 13.4613 7.26937 4.66733C8.43777 1.80211 6.65555 1.71855 5.26091 1.79523C4.11169 1.85922 4.56359 0.904677 5.4059 0.84439C9.69757 0.537667 11.2552 0.597954 11.772 0.914196C12.6538 1.45361 12.6132 2.56521 12.4541 2.82328C11.666 4.74771 10.2155 8.15604 10.0203 8.69281C9.39404 10.4147 10.6922 8.76156 11.0736 8.31363C11.455 7.8673 14.1602 5.0153 14.6978 4.34051C15.2581 3.63875 17.7387 1.30765 19.4008 1.30765L30.5889 1.30659C30.1584 1.79999 29.8995 2.43195 29.8995 3.11943C29.8995 3.81802 30.1675 4.45791 30.6103 4.95501C23.6592 4.95607 18.2115 4.95713 17.8205 4.95977C16.9557 4.964 15.0183 5.96403 13.5509 7.61875C12.2877 9.04818 13.9345 8.52993 13.9345 8.52993C16.3977 8.30782 18.6916 7.7885 14.7593 15.849C10.9986 23.561 16.6126 19.9501 19.8961 10.6188C20.0146 10.2793 19.0527 9.8372 19.0211 9.19784C18.9776 8.3808 18.7176 7.44 20.2442 7.44C21.7714 7.44 21.2671 8.89165 22.5585 9.2613C25.1734 10.0117 26.5957 9.24279 25.223 12.3597C23.9085 15.3482 22.4558 19.0648 24.1742 18.6174C24.9991 18.4027 25.4752 17.8363 25.781 17.316C27.5954 12.6834 29.1497 9.10212 29.1497 9.10212H32.5246C32.5246 9.10212 31.2704 12.0694 28.8411 17.8147C27.9897 19.8258 29.6868 18.6962 30.946 17.4043C31.0921 16.344 31.9356 15.9452 32.19 15.9066C33.5265 14.097 37.812 8.41781 37.812 8.41781C37.812 8.41781 38.1392 8.64045 37.8645 9.0466C37.4972 9.58707 38.1804 12.2667 38.4805 13.1165C38.9561 14.4714 39.7206 17.8147 37.7161 19.3504C37.3133 19.6598 36.9262 19.9125 36.5578 20.113C37.7584 19.9025 38.7525 19.435 39.5677 18.8517L43.6354 9.10953H46.99C46.99 9.10953 46.845 9.40726 46.6543 9.86682C47.6184 9.17616 48.8145 8.80756 49.733 9.03655C50.6695 9.26818 53.7674 9.49399 50.2842 16.1848C49.4548 17.7739 48.5307 18.8242 47.6168 19.4683ZM53.1344 24.0269C54.2345 23.351 54.9967 22.6212 55.6675 21.4615C54.8472 21.6254 53.4435 22.3462 52.7135 22.9882C51.7606 23.8264 52.2272 24.5843 53.1344 24.0269ZM31.1192 3.11943C31.1192 2.16859 31.9412 1.40019 32.9539 1.40019C33.9666 1.40019 34.7886 2.16965 34.7886 3.11943C34.7886 4.06763 33.9672 4.83814 32.9539 4.83814C31.9406 4.83814 31.1192 4.06763 31.1192 3.11943ZM93.1483 15.0219C94.8691 15.0563 96.9401 14.0779 97.3915 13.3476C97.8423 12.6173 97.7887 11.1868 96.6406 11.1339C95.6696 11.09 93.7424 11.9219 93.1483 15.0219ZM127.365 17.7337C124.034 21.956 119.113 21.4239 117.945 17.5291C117.134 19.0712 115.957 20.59 113.794 20.7687C111.198 20.9824 110.932 18.5772 111.218 17.2361C111.504 15.8934 111.95 15.3566 112.997 12.5834C113.736 10.6294 111.564 11.6273 110.329 13.5126C109.44 15.7612 107.428 20.7793 107.428 20.7793C107.428 20.7793 106.388 20.7063 104.069 20.6788C104.356 19.3377 106.272 15.3974 107.322 12.6247C108.072 10.6416 105.823 11.6976 104.6 13.6379C104.562 13.7014 104.522 13.7611 104.483 13.8177L101.482 20.7798H97.9777L99.0767 18.1785C98.7263 18.537 98.3246 18.8803 97.8524 19.1928C93.3588 22.1701 91.2194 20.0162 90.521 17.9046C89.2364 19.3895 87.6764 20.7238 86.2982 20.6756C83.7221 20.5857 84.354 16.9706 84.8003 15.7612C85.9647 12.6062 87.2307 11.346 84.8674 11.2762C84.4736 11.2645 81.6381 21.5741 76.4855 22.0226C71.7103 22.4351 73.5484 18.8734 74.3399 16.8331C75.6065 13.5708 76.9521 11.9393 76.2779 10.7235C75.7538 9.77956 72.8579 11.7341 71.9682 13.8167C70.8212 16.5016 68.5013 22.113 68.5013 22.113L64.0331 22.2003C64.0331 22.2003 67.7199 13.4624 71.3036 4.66838C72.472 1.80211 70.6897 1.72014 69.2951 1.79629C68.1453 1.85922 68.5972 0.904677 69.439 0.84439C73.7312 0.538724 75.2889 0.599011 75.8051 0.914196C76.6858 1.45414 76.6457 2.56627 76.4872 2.82434C75.699 4.74877 74.2485 8.1571 74.0533 8.69281C73.4288 10.4157 74.7253 8.76156 75.1078 8.31363C75.4903 7.8673 78.1921 5.01636 78.7309 4.34157C79.2911 3.6398 81.7729 1.30923 83.4355 1.30923C84.895 1.30923 126.014 1.29866 127.088 1.30923C129.022 1.32721 129.9 0.504878 130.253 0.210318C130.606 -0.0842423 131.009 -0.071022 131 0.273777C130.996 0.420793 128.903 4.96612 126.007 4.96083C122.845 4.95501 82.9385 4.95395 81.853 4.96083C80.991 4.96506 79.0508 5.96508 77.5845 7.6198C76.3196 9.04924 77.967 8.52993 77.967 8.52993C80.4308 8.30887 82.723 7.79009 78.7935 15.849C75.0311 23.561 80.6463 19.9501 83.9297 10.6188C84.0494 10.2793 83.0874 9.8372 83.0542 9.1989C83.0118 8.3808 82.7506 7.44106 84.2773 7.44106C85.8051 7.44106 85.3001 8.89218 86.5915 9.26236C89.2082 10.0122 90.6299 9.24332 89.2572 12.3608C87.9427 15.3482 86.4905 19.0659 88.2079 18.618C89.5991 18.2552 89.9997 16.895 90.2547 16.4397C90.2513 16.3112 90.2524 16.1911 90.262 16.0801C90.4996 12.9922 92.4313 10.3348 94.0753 9.66269C98.0143 8.04922 99.532 10.1059 99.4028 12.0662C99.2454 14.4703 96.3709 16.0801 93.1246 16.1679C93.0665 16.125 93.0575 16.1568 93.1246 16.6158C93.6335 20.0633 97.8214 18.1854 100.057 15.8617L102.934 9.06088L106.542 9.0429L105.665 11.0794C108.33 8.08729 111.206 8.92708 110.962 11.4877L111.066 11.3581C114.121 7.60129 117.608 9.03919 116.411 12.4327C116.235 12.9309 114.499 17.5566 114.499 17.5566C114.499 17.5566 113.962 19.1098 115.012 19.1098C115.918 19.1098 117.157 17.6111 117.71 16.2017L117.702 16.0801C117.538 13.0134 119.563 10.3671 121.198 9.69971C125.118 8.09628 126.792 10.1413 126.78 12.0895C126.767 14.4798 123.934 16.0801 120.628 16.17C120.565 16.125 120.558 16.1583 120.656 16.6137C121.531 20.7121 125.909 18.0214 126.555 17.2848C128.183 15.419 128.128 16.7686 127.365 17.7337ZM120.581 15.0298C122.337 15.0631 124.392 14.0911 124.806 13.3645C125.222 12.6374 125.079 11.2159 123.905 11.163C122.913 11.1202 120.996 11.9472 120.581 15.0298Z" fill="#CE1041"/>
</svg>
