<svg width="166" height="22" viewBox="0 0 166 22" fill="none" xmlns="http://www.w3.org/2000/svg">
<path d="M8.94042 5.98083L9.1357 6.01612V10.0158L8.86278 9.97343C8.59447 9.93777 8.32411 9.91969 8.05344 9.91932C6.70061 9.91932 5.0184 10.6698 4.35257 12.7755C4.13564 13.5162 4.03563 14.2862 4.05613 15.0577V20.9866H0V6.11729H3.91496V8.7053C4.83018 7.00898 6.46769 5.93142 8.25342 5.93142C8.48338 5.92921 8.71314 5.94573 8.94042 5.98083ZM11.152 20.9866H15.2105V6.11729H11.1544L11.152 20.9866ZM29.5481 16.0459C29.5316 16.0623 27.7788 17.8104 25.4826 17.8104C23.3651 17.8104 21.2288 16.34 21.2288 13.5284C21.2288 11.0792 22.9698 9.29349 25.3696 9.29349C27.4871 9.29349 28.9411 10.7592 28.9552 10.7757L29.1622 10.9875L30.995 8.13829L30.8868 8.00419C30.8115 7.91478 29.0046 5.77379 25.172 5.77379C20.5042 5.77379 17.1162 9.0441 17.1162 13.5378C17.1162 18.0316 20.5042 21.3019 25.172 21.3019C29.1011 21.3019 31.1903 18.9774 31.2774 18.8786L31.3856 18.7562L29.7716 15.7918L29.5481 16.0459ZM41.8788 5.7832C40.9658 5.76816 40.0619 5.96667 39.2392 6.3629C38.4166 6.75913 37.6978 7.34212 37.1404 8.06536V0.470703H33.089V20.9866H37.138V14.1448C37.1221 13.5393 37.1942 12.9346 37.3521 12.3497C37.8792 10.6346 39.319 9.52641 41.0224 9.52641C42.4999 9.52641 43.074 10.284 43.074 12.2274V20.989H47.1019V11.491C47.1019 7.70068 45.3491 5.77849 41.8765 5.77849L41.8788 5.7832ZM63.0723 12.8414C63.0723 13.2696 62.99 14.206 62.9876 14.2531L62.9688 14.4672H53.0873C53.3226 16.0623 54.4989 17.8081 57.1411 17.8081C59.3432 17.8081 61.1196 16.3 61.1407 16.2835L61.3619 16.0929L62.9712 19.0785L62.8394 19.2032C61.1691 20.5909 59.0608 21.3412 56.8893 21.3207C52.2709 21.3207 48.9206 18.0504 48.9206 13.5567C48.9206 8.98057 52.0238 5.79261 56.4658 5.79261C60.4773 5.77849 63.0723 8.54767 63.0723 12.8508V12.8414ZM53.2167 11.5286H58.9739C58.8397 9.96637 57.8587 9.00645 56.3694 9.00645C54.7436 9.00645 53.6072 9.92638 53.2167 11.5333V11.5286ZM73.3162 5.91024C71.5328 5.91024 69.8953 6.9878 68.9777 8.68413V6.09611H65.0628V20.9654H69.1189V15.0577C69.1009 14.2891 69.2025 13.5224 69.42 12.785C70.0835 10.6675 71.7728 9.92873 73.1185 9.92873C73.39 9.9291 73.6611 9.94718 73.9302 9.98284L74.2008 10.0252V6.02553L74.0079 5.99024C73.7794 5.951 73.548 5.93054 73.3162 5.92907V5.91024Z" fill="#101010"/>
<path d="M86.9102 16.7821C86.9102 19.4642 84.5575 21.337 81.1695 21.337C77.5228 21.337 75.4924 19.236 75.4077 19.1466L75.2877 19.0102L77.1699 16.0998L77.3746 16.3045C77.391 16.321 78.9203 17.8173 81.139 17.8173C81.9624 17.8173 82.7859 17.4879 82.7859 16.7539C82.7859 16.0198 81.6871 15.5916 80.4167 15.0717C78.351 14.2247 75.7841 13.173 75.7841 10.2603C75.7841 7.5876 78.0898 5.7901 81.5248 5.7901C84.8328 5.7901 86.4656 7.43702 86.522 7.50055L86.6373 7.62054L85.0939 10.7026L84.8586 10.4885C83.9068 9.71776 82.7166 9.30189 81.4919 9.31216C80.7531 9.31216 79.892 9.58978 79.892 10.3756C79.892 11.0273 80.9578 11.4555 82.193 11.9519C84.1928 12.7354 86.9102 13.8271 86.9102 16.7821ZM104.426 13.5518C104.426 17.9844 100.928 21.3159 96.2883 21.3159C91.6487 21.3159 88.1196 17.975 88.1196 13.5518C88.1196 9.12864 91.6181 5.78775 96.26 5.78775C100.902 5.78775 104.426 9.11923 104.426 13.5518ZM100.316 13.5518C100.316 11.1261 98.5845 9.29804 96.2883 9.29804C93.992 9.29804 92.2274 11.1261 92.2274 13.5518C92.2274 15.9775 93.9708 17.8056 96.2836 17.8056C98.5963 17.8056 100.321 15.9775 100.321 13.5518H100.316ZM115.903 12.9589C115.903 15.1846 114.715 17.5797 112.103 17.5797C110.692 17.5797 110.108 16.7962 110.108 14.8787V6.11714H106.073V15.6057C106.073 19.396 107.833 21.3182 111.306 21.3182C112.231 21.3254 113.144 21.1139 113.972 20.701C114.799 20.288 115.517 19.6853 116.068 18.9419V20.9794H119.99V6.11714H115.92L115.903 12.9589ZM130.812 5.77834C128.151 5.77834 126.655 7.18999 125.938 8.1852V6.11714H122.041V20.9865H126.107V14.1447C126.085 13.5196 126.164 12.8951 126.342 12.2954C126.874 10.585 128.271 9.52391 129.984 9.52391C131.462 9.52391 132.036 10.2815 132.036 12.2249V20.9865H136.064V11.4908C136.064 7.70053 134.316 5.77834 130.838 5.77834H130.812ZM148.693 0.470553H152.749V20.9865H148.893V19.4078C148.267 20.1771 146.94 21.3347 144.609 21.3347C140.654 21.3347 137.995 18.2102 137.995 13.5706C137.995 8.93102 140.71 5.80657 144.75 5.80657C146.94 5.80657 148.133 6.65121 148.696 7.23234V7.05823L148.693 0.470553ZM145.463 9.32628C143.444 9.32628 142.084 11.025 142.084 13.5612C142.084 16.0975 143.433 17.8432 145.435 17.8432C147.082 17.8432 148.813 16.7115 148.813 13.533C148.813 11.5026 147.771 9.32628 145.468 9.32628H145.463ZM161.304 11.9378C160.069 11.4414 159.001 11.0132 159.001 10.3615C159.001 9.57567 159.864 9.29804 160.6 9.29804C161.826 9.28664 163.017 9.7026 163.97 10.4744L164.205 10.6885L165.746 7.60642L165.631 7.48643C165.565 7.41585 163.944 5.77599 160.633 5.77599C157.201 5.77599 154.893 7.57348 154.893 10.2462C154.893 13.1589 157.462 14.2106 159.516 15.0576C160.789 15.5775 161.885 16.0292 161.885 16.7398C161.885 17.4503 161.055 17.8032 160.238 17.8032C158.027 17.8032 156.495 16.3069 156.474 16.2904L156.269 16.0857L154.373 18.996L154.5 19.1325C154.585 19.2219 156.617 21.3229 160.259 21.3229C163.64 21.3229 166 19.4407 166 16.768C166 13.8271 163.283 12.7354 161.295 11.9378H161.304ZM13.1753 4.60235e-06C12.7 0.0013997 12.2358 0.143606 11.8413 0.408663C11.4468 0.67372 11.1398 1.04974 10.9588 1.48922C10.7779 1.92871 10.7313 2.41195 10.8249 2.87791C10.9185 3.34388 11.148 3.77166 11.4846 4.10723C11.8211 4.4428 12.2496 4.6711 12.7158 4.76331C13.1821 4.85552 13.6652 4.80749 14.1041 4.6253C14.5431 4.4431 14.9182 4.13491 15.1821 3.73964C15.446 3.34438 15.5868 2.87977 15.5868 2.40451C15.5865 2.08824 15.5239 1.77513 15.4025 1.48308C15.2811 1.19103 15.1034 0.925769 14.8794 0.702459C14.6554 0.47915 14.3896 0.30217 14.0972 0.181639C13.8048 0.0611069 13.4915 -0.000613869 13.1753 4.60235e-06Z" fill="#FF281E"/>
</svg>
