<svg width="111" height="19" viewBox="0 0 111 19" fill="none" xmlns="http://www.w3.org/2000/svg">
<g clip-path="url(#clip0_11904_910)">
<path d="M25.8507 18.4401C25.8507 18.4401 25.8507 18.4326 25.8507 18.4293C27.0512 18.4101 28.2517 18.3859 29.4531 18.3717C31.0073 18.3534 32.5616 18.335 34.1167 18.3325C36.2316 18.3292 38.3473 18.3292 40.4622 18.3492C42.0632 18.3642 43.6634 18.4243 45.2643 18.4443C46.1578 18.4552 47.0522 18.4335 47.9457 18.4118C48.6799 18.3943 49.4115 18.3701 50.1432 18.4702C50.6646 18.5419 51.1911 18.5886 51.7191 18.5227C51.9845 18.4894 52.2497 18.4585 52.4892 18.3283C52.7136 18.2057 52.7687 18.043 52.6319 17.8328C52.4758 17.5933 52.3098 17.3572 52.1221 17.1428C51.8501 16.8325 51.4922 16.679 51.0768 16.6731C50.9299 16.6715 50.7831 16.6781 50.6371 16.684C50.3643 16.694 50.0915 16.7157 49.8187 16.7149C48.1109 16.7073 46.4023 16.6973 44.6945 16.6823C42.6063 16.664 40.5181 16.6364 38.4299 16.6181C36.0681 16.5972 33.7062 16.5805 31.3452 16.6598C29.9586 16.7065 28.5704 16.694 27.1822 16.7057C25.3943 16.7207 23.6064 16.739 21.8178 16.7441C20.0299 16.7491 18.2412 16.7457 16.4533 16.7357C14.6989 16.7257 12.9444 16.6973 11.1899 16.6848C9.95514 16.6765 8.72124 16.6865 7.48651 16.679C6.35189 16.6715 5.21977 16.6039 4.08933 16.5105C3.71724 16.4796 3.34598 16.4429 2.9739 16.4053C2.88796 16.397 2.80037 16.3861 2.71861 16.3594C2.17966 16.1817 1.62904 16.1976 1.07424 16.2426C0.738027 16.2702 0.443527 16.4045 0.159038 16.5647C-0.016995 16.664 -0.0411891 16.7724 0.0647644 16.9484C0.195746 17.1645 0.349253 17.3681 0.480235 17.5842C0.712165 17.9646 1.0634 18.154 1.48304 18.2483C2.01364 18.3684 2.55342 18.3867 3.09403 18.3959C4.01424 18.4126 4.93529 18.4243 5.8555 18.436C7.46983 18.4568 9.08415 18.4935 10.6985 18.4927C12.7199 18.4927 14.7414 18.4527 16.7629 18.4451C19.3183 18.436 21.8745 18.441 24.4299 18.4401C24.9038 18.4401 25.3776 18.4401 25.8515 18.4401H25.8507ZM8.22234 6.97131C8.46512 7.81393 8.69371 8.62819 8.93649 9.43744C9.05662 9.83873 9.19428 10.2358 9.34111 10.6288C9.52799 11.1277 9.86337 11.5081 10.3306 11.7659C10.6309 11.9311 10.9504 11.9937 11.2691 11.8368C11.4952 11.7259 11.7096 11.5874 11.9165 11.4422C12.0166 11.3713 12.0976 11.2653 12.166 11.1602C12.3637 10.8574 12.5064 10.5278 12.624 10.1858C13.0336 8.9911 13.2906 7.76054 13.5042 6.51829C13.6343 5.75743 13.7711 4.99657 13.9088 4.23654C14.0031 3.71929 14.1082 3.2037 14.2016 2.68645C14.2442 2.44952 14.2116 2.21508 14.0731 2.01486C13.7361 1.52764 13.2539 1.33158 12.6749 1.35995C12.4797 1.36996 12.362 1.50261 12.3454 1.6995C12.337 1.7921 12.3378 1.88721 12.3495 1.97898C12.3737 2.16002 12.3487 2.33605 12.3195 2.51459C12.2411 3.00097 12.1718 3.48903 12.1026 3.97708C11.9866 4.79467 11.874 5.6131 11.7614 6.4307C11.6571 7.19072 11.4735 7.93407 11.2766 8.67491C11.1515 9.14461 11.0255 9.61347 10.8937 10.0815C10.8687 10.1716 10.817 10.255 10.7777 10.3418C10.7611 10.3418 10.7435 10.3401 10.7268 10.3401C10.5892 9.98055 10.4257 9.62932 10.3181 9.26057C9.91843 7.89903 9.56053 6.52664 9.31358 5.12839C9.22014 4.59862 8.82887 4.32748 8.29826 4.42175C7.84191 4.50268 7.49902 4.73961 7.29379 5.16176C6.81575 6.14454 6.3327 7.12398 5.863 8.1101C5.40749 9.06618 4.96532 10.0281 4.51648 10.9875C4.44556 11.1385 4.36964 11.2862 4.29289 11.4339C4.27454 11.4697 4.24283 11.4981 4.18777 11.5657C4.17776 11.4289 4.16858 11.3371 4.16608 11.2462C4.14022 10.1866 4.10017 9.12792 4.09266 8.06838C4.08182 6.54165 4.11519 5.01576 4.22114 3.49236C4.26369 2.87416 4.33961 2.2593 4.39634 1.64193C4.41052 1.4901 4.41636 1.33575 4.40885 1.18308C4.39968 0.985356 4.33794 0.794307 4.19111 0.659153C3.80651 0.30375 3.33931 0.122712 2.82206 0.0709866C2.68023 0.0568039 2.57845 0.135226 2.51921 0.259534C2.48584 0.330447 2.46332 0.409704 2.44913 0.487292C2.42411 0.624948 2.40992 0.764272 2.38907 0.901929C2.30397 1.44838 2.20803 1.99233 2.20302 2.5488C2.19802 3.11527 2.17048 3.68091 2.15797 4.24739C2.1221 5.81333 2.07788 7.37844 2.05786 8.94438C2.04534 9.92466 2.12877 10.9016 2.29396 11.8694C2.3582 12.2465 2.45915 12.6144 2.68941 12.9272C3.05148 13.4203 3.55455 13.6222 4.15523 13.5646C4.51481 13.5296 4.81515 13.3435 5.04458 13.0716C5.2106 12.8747 5.36077 12.6569 5.48007 12.4283C6.39694 10.6672 7.30797 8.9035 8.14643 7.10312C8.16478 7.06308 8.18897 7.02637 8.22151 6.96881L8.22234 6.97131ZM22.8189 9.54172C22.8189 10.0498 22.8189 10.4027 22.8189 10.7556C22.8189 10.9508 22.9082 11.1035 23.0658 11.2111C23.3787 11.4255 23.7241 11.5215 24.1053 11.4914C24.3056 11.4756 24.4299 11.3705 24.4724 11.1819C24.5108 11.0142 24.5442 10.8424 24.5534 10.6705C24.5725 10.3184 24.5675 9.9647 24.5867 9.6118C24.6067 9.25306 24.6351 8.89349 24.6752 8.53642C24.7544 7.83479 24.8237 7.13149 24.9346 6.43403C25.1056 5.36198 25.31 4.29578 25.4953 3.22623C25.577 2.75319 25.6529 2.27765 25.6254 1.79628C25.6137 1.59271 25.5703 1.38664 25.5103 1.19226C25.4452 0.980351 25.285 0.856043 25.0573 0.819335C24.8604 0.787632 24.6651 0.741747 24.4691 0.704204C24.1904 0.649976 23.9961 0.762604 23.9201 1.03541C23.8859 1.15638 23.8751 1.28403 23.8559 1.40917C23.7141 2.33105 23.5739 3.25293 23.4312 4.17397C23.3637 4.60863 23.2911 5.04162 23.2235 5.47628C23.1951 5.65815 23.1034 5.78246 22.9215 5.83502C22.1606 6.05694 21.4023 6.28887 20.6381 6.49994C20.2018 6.62091 19.7554 6.70434 19.3166 6.81697C19.0413 6.88788 19.0021 6.86369 19.0471 6.58921C19.2507 5.35364 19.4551 4.11891 19.6578 2.88334C19.707 2.5805 19.7521 2.27682 19.7104 1.96897C19.6778 1.72786 19.5902 1.51012 19.3792 1.37747C19.0646 1.18058 18.7184 1.05877 18.3447 1.04292C18.0735 1.03208 17.9308 1.13469 17.8708 1.4025C17.8291 1.58937 17.804 1.78543 17.8107 1.97648C17.8291 2.46036 17.7548 2.9334 17.6839 3.40727C17.5838 4.07219 17.4737 4.73627 17.3811 5.40203C17.3243 5.81083 17.2943 6.22379 17.2509 6.63426C17.1767 7.33672 17.0991 8.03835 17.0282 8.74081C16.9497 9.51002 16.873 10.2792 16.8046 11.0484C16.7729 11.3997 16.7604 11.7534 16.7445 12.1063C16.742 12.1697 16.7495 12.2448 16.782 12.2957C16.8655 12.425 16.9673 12.5385 17.1241 12.5885C17.2509 12.6286 17.3719 12.6886 17.4995 12.7253C17.6589 12.7704 17.8207 12.8179 17.9842 12.8338C18.2178 12.8563 18.3221 12.7887 18.383 12.561C18.4423 12.3374 18.4798 12.1046 18.4998 11.8744C18.5632 11.1644 18.6041 10.4528 18.6734 9.74278C18.7067 9.39906 18.7843 9.06034 18.8377 8.71829C18.8636 8.5531 18.9612 8.45883 19.1147 8.41294C19.395 8.32868 19.6737 8.23691 19.9573 8.16182C20.8525 7.92656 21.7602 7.733 22.6137 7.36008C22.6679 7.33672 22.728 7.32171 22.7864 7.3142C22.9349 7.29501 22.9866 7.33756 22.9874 7.48272C22.9874 7.56865 22.9774 7.65542 22.9699 7.74218C22.9148 8.39292 22.8598 9.04282 22.8172 9.54089L22.8189 9.54172ZM85.3656 12.6995C85.4999 12.692 85.6001 12.6936 85.6993 12.6803C86.3626 12.5952 86.9266 12.319 87.3304 11.7759C87.5881 11.4289 87.8334 11.0693 88.0553 10.698C89.2342 8.7283 89.9809 6.59255 90.4597 4.35668C90.6291 3.56745 90.7284 2.76821 90.8176 1.9673C90.871 1.48592 90.7926 1.05293 90.4289 0.700033C90.2687 0.544857 90.1435 0.523166 89.9817 0.682513C89.8649 0.797644 89.7531 0.931128 89.6822 1.07796C89.5028 1.44922 89.3176 1.82214 89.19 2.21175C89.0123 2.75486 88.8854 3.31466 88.7369 3.86696C88.3974 5.12755 88.0445 6.38398 87.574 7.60369C87.1777 8.63236 86.7055 9.62348 86.0748 10.532C85.8662 10.8332 85.5925 11.0668 85.253 11.2103C84.9426 11.3413 84.6815 11.2862 84.4529 11.0409C84.3586 10.94 84.2727 10.8232 84.2126 10.6997C84.1192 10.5095 84.0358 10.3109 83.9732 10.109C83.7388 9.34567 83.6629 8.55644 83.6153 7.76387C83.5594 6.82448 83.5736 5.88591 83.6545 4.94818C83.6946 4.48349 83.7513 4.02213 83.9265 3.58163C84.0074 3.3789 84.0558 3.16199 84.1084 2.94925C84.2026 2.56548 84.0917 2.25012 83.763 2.0232C83.5602 1.88304 83.3542 1.74705 83.1414 1.62275C83.0797 1.58604 82.9896 1.57769 82.9153 1.58437C82.726 1.60272 82.5741 1.70534 82.4665 1.85551C82.3706 1.98983 82.2738 2.13249 82.2196 2.286C82.1203 2.56715 82.036 2.85664 81.9734 3.14864C81.8591 3.69092 81.8208 4.24322 81.7941 4.79551C81.7415 5.88091 81.6956 6.96463 81.8458 8.04753C81.9818 9.02864 82.2146 9.98222 82.6008 10.8966C82.6901 11.1085 82.8052 11.3004 82.9546 11.4731C83.5995 12.2198 84.3979 12.6603 85.3656 12.6978V12.6995ZM46.8178 6.37563C46.8119 6.22379 46.7961 6.09949 46.8052 5.97601C46.8745 5.01576 47.0906 4.08137 47.3108 3.14697C47.3701 2.89586 47.5302 2.79324 47.7563 2.76321C47.934 2.73901 48.1151 2.72733 48.2953 2.7265C49.3106 2.72233 50.3201 2.63055 51.3287 2.52544C51.4071 2.51709 51.4872 2.49874 51.559 2.4662C51.6557 2.42198 51.71 2.34273 51.7116 2.22843C51.7175 1.8505 51.4105 1.46507 51.0384 1.39666C50.5161 1.30071 49.9889 1.31907 49.4624 1.33909C48.8968 1.36078 48.332 1.44671 47.7647 1.36662C47.5019 1.32991 47.4977 1.33575 47.4977 1.06294C47.4977 0.778455 47.3734 0.571554 47.1064 0.472275C46.9204 0.40303 46.726 0.348802 46.5316 0.311259C46.3197 0.270379 46.2012 0.33295 46.112 0.530674C46.0494 0.66833 46.0077 0.818501 45.9785 0.967002C45.9384 1.17307 45.8525 1.32074 45.6381 1.39082C45.528 1.42669 45.4237 1.49927 45.3361 1.57686C45.2276 1.6728 45.2301 1.76457 45.3261 1.87303C45.3786 1.93226 45.4404 1.98566 45.5046 2.03321C45.6681 2.15335 45.7165 2.30268 45.6798 2.50458C45.5138 3.42229 45.3536 4.34083 45.1993 5.2602C44.9607 6.67848 44.6862 8.09258 44.5535 9.5267C44.4834 10.2851 44.4776 11.0426 44.5727 11.8009C44.6878 12.722 45.3336 13.2568 46.137 13.4603C46.182 13.472 46.2296 13.4804 46.2755 13.4795C46.5216 13.4753 46.7694 13.4795 47.0146 13.4603C47.7054 13.4036 48.3962 13.3352 49.087 13.2735C49.379 13.2476 49.6743 13.2409 49.9638 13.1975C50.1857 13.1642 50.4093 13.1083 50.6162 13.0232C50.834 12.9331 50.8824 12.7504 50.7697 12.5435C50.6162 12.2623 50.3985 12.0396 50.1098 11.8936C49.9705 11.8235 49.8245 11.8051 49.6643 11.8318C49.3289 11.8869 48.9919 11.9436 48.6532 11.9603C47.9474 11.9945 47.2399 12.0003 46.5333 12.0229C46.4257 12.0262 46.3497 11.9878 46.3022 11.8994C46.2646 11.8293 46.2329 11.7542 46.2146 11.6783C46.1412 11.378 46.1336 11.0718 46.1487 10.7639C46.1912 9.91047 46.323 9.06869 46.4774 8.2294C46.5157 8.0225 46.6275 7.91071 46.8136 7.85314C46.8895 7.82978 46.9688 7.80809 47.0472 7.80225C47.2933 7.78556 47.5394 7.76471 47.7855 7.76804C48.2052 7.77305 48.6256 7.80225 49.0453 7.80892C49.4799 7.81643 49.9121 7.77555 50.3359 7.67961C50.4577 7.65208 50.5787 7.60369 50.6871 7.54279C50.8181 7.46937 50.8623 7.35424 50.8081 7.21742C50.6771 6.88621 50.4919 6.59004 50.1198 6.49243C49.8829 6.42986 49.6376 6.38564 49.3932 6.36562C48.9877 6.33225 48.5806 6.31723 48.1735 6.30889C47.8406 6.30222 47.5077 6.31223 47.1748 6.32307C47.0705 6.32641 46.9663 6.35311 46.8178 6.37563ZM74.5392 3.04603C74.5392 3.10776 74.5434 3.1403 74.5392 3.172C74.4482 3.76434 74.369 4.35918 74.2622 4.94818C74.0411 6.16039 73.7525 7.35925 73.5873 8.58147C73.4755 9.40907 73.4137 10.2392 73.4913 11.0735C73.5147 11.3237 73.5122 11.5815 73.6373 11.8135C73.8284 12.1672 74.092 12.4534 74.4357 12.6636C74.52 12.7153 74.6143 12.7554 74.7094 12.7829C74.9647 12.8563 75.1649 12.7645 75.26 12.5193C75.3017 12.4108 75.3209 12.2873 75.3217 12.1705C75.3234 11.8911 75.2892 11.6099 75.3017 11.3312C75.3301 10.6855 75.376 10.0406 75.4168 9.39572C75.4285 9.20968 75.4344 9.02197 75.4669 8.83842C75.582 8.19603 75.718 7.55697 75.8265 6.91374C76.0484 5.60059 76.2611 4.28493 76.4672 2.96927C76.4906 2.82077 76.5531 2.72983 76.6808 2.69062C76.8585 2.63639 77.0404 2.58884 77.2239 2.56298C77.868 2.47288 78.5137 2.47621 79.1603 2.53294C79.2987 2.54546 79.4422 2.54379 79.5782 2.51793C79.6992 2.49457 79.8168 2.43867 79.9253 2.3786C80.0346 2.31853 80.068 2.22426 80.0304 2.09078C79.8444 1.42919 79.393 1.06211 78.7414 0.921951C78.306 0.828512 77.8646 0.870226 77.425 0.898591C77.1788 0.914443 76.9336 0.950317 76.6875 0.956991C76.4856 0.961997 76.4205 0.886911 76.4096 0.698364C76.3955 0.448915 76.3229 0.357979 76.0826 0.291236C75.9349 0.250357 75.7864 0.211146 75.6379 0.175272C75.1949 0.0701524 74.8045 0.349636 74.7569 0.803484C74.7261 1.09882 74.6468 1.18391 74.3556 1.23397C74.3098 1.24148 74.263 1.24315 74.2163 1.24732C73.6256 1.30739 73.0358 1.37163 72.4451 1.42586C72.0005 1.46674 71.5558 1.49844 71.1095 1.41084C70.9017 1.36996 70.6856 1.35828 70.4729 1.36245C70.1834 1.36829 70.0391 1.54766 70.0658 1.83632C70.0733 1.91474 70.0908 1.99483 70.115 2.06992C70.2827 2.58801 70.6281 2.92506 71.1645 3.03435C71.8228 3.16866 72.4852 3.20537 73.1501 3.06188C73.4822 2.99013 73.8184 2.92506 74.1613 2.95926C74.2897 2.97261 74.4157 3.01516 74.5409 3.04436L74.5392 3.04603ZM97.6095 0.760935V0.791804C97.5428 0.791804 97.476 0.790135 97.4093 0.791804C96.5692 0.821838 95.729 0.851037 94.8898 0.883574C94.5953 0.895254 94.3224 0.977014 94.1055 1.18642C93.9161 1.36829 93.9145 1.5827 94.1055 1.7629C94.2615 1.91141 94.4384 2.02403 94.6653 2.04406C94.8505 2.06074 94.9098 2.13833 94.8998 2.32354C94.8906 2.48289 94.8722 2.64223 94.8514 2.80075C94.7438 3.59915 94.6153 4.39589 94.5327 5.19763C94.4985 5.52801 94.4259 5.80332 94.1581 6.01439C94.0388 6.10783 94.0313 6.24382 94.0897 6.37897C94.1322 6.47658 94.1764 6.57419 94.2307 6.66513C94.2757 6.74021 94.2816 6.81113 94.2607 6.89289C94.0096 7.8498 93.9111 8.83175 93.7843 9.80953C93.6976 10.4761 93.6258 11.146 93.4623 11.8009C93.2721 12.5626 94.0113 13.2 94.7095 13.0574C95.0599 12.9865 95.125 12.9381 95.1792 12.5893C95.246 12.1555 95.3052 11.7184 95.3353 11.2804C95.4045 10.2884 95.548 9.30646 95.7157 8.32868C95.7649 8.04252 95.86 7.76137 95.9626 7.48856C96.0386 7.28416 96.1962 7.16987 96.4357 7.14984C96.9671 7.10563 97.4985 7.04973 98.0258 6.97381C98.6257 6.88705 99.223 6.77859 99.8195 6.6693C100.094 6.61924 100.368 6.555 100.637 6.48075C100.764 6.44571 100.888 6.38731 100.998 6.31557C101.175 6.20127 101.188 6.05861 101.057 5.89259C101.032 5.86172 101.004 5.83168 100.974 5.80582C100.775 5.63312 100.555 5.49964 100.293 5.44458C99.9914 5.38117 99.686 5.34446 99.379 5.38368C98.7975 5.45876 98.2177 5.55137 97.6354 5.61894C97.2516 5.66316 96.8645 5.68235 96.479 5.70237C96.2997 5.71155 96.2713 5.68485 96.2505 5.50214C96.2354 5.37116 96.2379 5.23601 96.248 5.10419C96.3072 4.33165 96.4765 3.57663 96.6367 2.82077C96.7293 2.38611 96.8979 2.27432 97.3175 2.28016C98.0049 2.28933 98.6924 2.29434 99.379 2.28183C99.8988 2.27265 100.418 2.2326 100.937 2.20591C100.964 2.20424 100.991 2.20257 101.018 2.19923C101.297 2.15919 101.386 2.03071 101.327 1.75706C101.281 1.54432 101.178 1.35995 101.054 1.18391C100.947 1.02957 100.808 0.91778 100.621 0.886077C100.339 0.838523 100.056 0.77345 99.772 0.766775C99.052 0.75009 98.3312 0.760935 97.6112 0.760935H97.6095ZM37.7158 2.70063C37.6866 2.83996 37.6657 2.93757 37.6465 3.03518C37.4463 4.0505 37.3454 5.07833 37.2561 6.107C37.1677 7.11564 37.1076 8.12678 37.0367 9.13793C37.0025 9.62932 36.9883 10.1224 36.8973 10.6096C36.8656 10.7773 36.879 10.955 36.8857 11.1277C36.8932 11.3112 36.9574 11.4789 37.0667 11.6283C37.2619 11.8952 37.5005 12.1163 37.7884 12.2815C37.8684 12.3274 37.9552 12.3683 38.0445 12.3925C38.3089 12.4642 38.4791 12.3666 38.5325 12.0996C38.5626 11.9511 38.5634 11.7959 38.5667 11.6433C38.5751 11.277 38.5542 10.9091 38.5851 10.5454C38.6577 9.70274 38.7653 8.86262 38.8387 8.02C38.9614 6.60589 39.0948 5.19346 39.2917 3.7877C39.3393 3.44565 39.4002 3.10526 39.4569 2.75236C39.5837 2.74318 39.6964 2.7265 39.8081 2.729C40.1143 2.73651 40.4205 2.76487 40.7267 2.7607C41.2865 2.75319 41.8471 2.7265 42.4069 2.71148C42.5871 2.70647 42.7673 2.72233 42.9467 2.71398C43.2571 2.6998 43.378 2.56548 43.378 2.2593C43.378 1.75957 43.021 1.28737 42.5112 1.13302C42.3469 1.08297 42.1725 1.04793 42.0015 1.04292C41.3816 1.02373 40.7609 0.998705 40.1419 1.01539C39.3226 1.03792 38.5042 1.10299 37.6841 1.1397C37.1985 1.16139 36.7113 1.17974 36.2249 1.16806C35.6985 1.15555 35.1737 1.10299 34.6473 1.07296C34.2994 1.05293 33.9724 1.1422 33.6612 1.28987C33.4434 1.39248 33.4159 1.45839 33.4818 1.68365C33.5177 1.80462 33.5577 1.92475 33.5994 2.04406C33.7054 2.34857 33.9131 2.56048 34.2235 2.6414C34.4604 2.70314 34.7082 2.7557 34.9501 2.75486C35.6968 2.75236 36.4435 2.72149 37.1902 2.70314C37.3562 2.69897 37.5214 2.70314 37.7174 2.70314L37.7158 2.70063ZM106.134 6.68765C106.134 6.60089 106.126 6.50161 106.136 6.404C106.236 5.40286 106.335 4.40256 106.442 3.40226C106.488 2.97094 106.696 2.77989 107.129 2.74068C107.175 2.73651 107.222 2.73484 107.269 2.73484C107.702 2.73484 108.136 2.73651 108.569 2.73401C108.989 2.7315 109.409 2.72817 109.829 2.71815C109.975 2.71482 110.122 2.6973 110.266 2.67477C110.432 2.64807 110.484 2.59134 110.495 2.42282C110.512 2.1425 110.447 1.88387 110.204 1.71785C110.024 1.59521 109.826 1.49677 109.628 1.4025C109.412 1.29988 109.173 1.31657 108.94 1.30155C108.006 1.23981 107.073 1.26067 106.142 1.35077C105.704 1.39332 105.268 1.45088 104.826 1.4075C104.695 1.39499 104.561 1.42168 104.427 1.42836C104.15 1.44254 103.975 1.58771 103.865 1.83716C103.792 2.00067 103.803 2.14083 103.902 2.28767C104.024 2.46954 104.191 2.57883 104.401 2.62722C104.571 2.66643 104.668 2.77238 104.685 2.94508C104.698 3.07022 104.713 3.1987 104.702 3.32301C104.637 4.04633 104.567 4.76881 104.492 5.4913C104.425 6.14704 104.338 6.80112 104.28 7.45853C104.174 8.67991 104.086 9.90296 103.984 11.1243C103.947 11.5749 103.938 12.0287 103.809 12.4692C103.778 12.5727 103.813 12.6945 103.805 12.8063C103.792 12.9806 103.892 13.0615 104.037 13.1099C104.176 13.1567 104.319 13.1909 104.456 13.2417C104.718 13.3369 104.953 13.2893 105.128 13.0816C105.251 12.9364 105.351 12.7654 105.429 12.5918C105.586 12.244 105.67 11.8702 105.71 11.4923C105.79 10.7172 105.849 9.94051 105.919 9.16379C105.941 8.92519 105.956 8.68575 106 8.45048C106.041 8.22857 106.193 8.09175 106.414 8.03752C106.485 8.02 106.557 8.00498 106.63 7.99831C106.875 7.97578 107.121 7.95659 107.367 7.93657C107.899 7.89235 108.428 7.83145 108.964 7.85064C109.235 7.86065 109.511 7.83562 109.78 7.79224C110.085 7.74302 110.195 7.4969 110.046 7.22493C109.997 7.13566 109.914 7.05891 109.833 6.99383C109.74 6.91958 109.632 6.86369 109.529 6.80278C109.347 6.696 109.153 6.63593 108.939 6.63927C108.632 6.64344 108.325 6.64093 108.019 6.64677C107.4 6.65845 106.78 6.67431 106.132 6.68849L106.134 6.68765ZM31.2092 3.09024C31.2151 2.9968 31.2268 2.9042 31.2251 2.81076C31.2192 2.47204 31.2192 2.13249 31.1976 1.79461C31.1842 1.5852 31.0791 1.41501 30.8889 1.30822C30.5685 1.12885 30.2239 1.03041 29.856 1.04793C29.4823 1.06628 29.3296 1.26401 29.3396 1.63526C29.3538 2.16086 29.3605 2.68812 29.343 3.21288C29.3221 3.84526 29.2754 4.47681 29.2337 5.10836C29.1944 5.71322 29.1703 6.32057 29.0985 6.92209C28.9642 8.04669 28.8666 9.17464 28.7882 10.3043C28.7556 10.7689 28.7289 11.2345 28.7056 11.7C28.6989 11.826 28.7014 11.9545 28.7189 12.0788C28.7698 12.4267 28.9542 12.6986 29.2795 12.8246C29.524 12.9197 29.796 12.9498 30.0588 12.9923C30.2148 13.0182 30.2765 12.9706 30.3216 12.8121C30.3599 12.6786 30.3891 12.5401 30.3991 12.4016C30.4317 11.9636 30.4409 11.5231 30.4809 11.086C30.5451 10.3902 30.6277 9.69523 30.7037 9.00027C30.7762 8.33202 30.8547 7.66376 30.9231 6.99467C30.9748 6.48492 31.0015 5.97184 31.0624 5.46293C31.1567 4.67454 31.2101 3.88448 31.2084 3.09108L31.2092 3.09024Z" fill="#475467"/>
<path d="M66.4755 18.8007C66.4179 18.7907 66.3604 18.7732 66.3028 18.7715C65.4693 18.7532 64.6351 18.7456 63.8025 18.719C63.1959 18.6998 62.5902 18.6505 61.9837 18.6263C61.6851 18.6147 61.3847 18.6238 61.0852 18.6322C60.6105 18.6464 60.1792 18.5229 59.8421 18.185C59.6469 17.989 59.4926 17.7504 59.3307 17.5234C59.2373 17.3924 59.2364 17.254 59.3466 17.1188C59.4392 17.0053 59.5168 16.8802 59.6019 16.7609C59.747 16.5598 59.9489 16.4781 60.1909 16.4848C60.2643 16.4873 60.3377 16.4923 60.4103 16.5031C61.0694 16.6024 61.7284 16.7033 62.3867 16.8034C63.0808 16.9094 63.7799 16.9369 64.4807 16.9528C64.8662 16.962 65.2508 17.0237 65.637 17.0362C66.3704 17.0596 67.1037 17.0779 67.837 17.0746C69.3713 17.0679 70.9055 17.0446 72.4397 17.0295C74.1008 17.0128 75.7619 16.9987 77.4229 16.9828C78.4966 16.9728 79.5712 16.967 80.6449 16.9478C82.059 16.9227 83.4723 16.881 84.8864 16.8543C86.2738 16.8285 87.6612 16.8085 89.0486 16.7951C91.2102 16.7734 93.371 16.7651 95.5326 16.7417C97.3004 16.7225 99.0674 16.6958 100.835 16.6616C102.022 16.6383 103.21 16.6358 104.397 16.6841C105.31 16.7217 106.223 16.7709 107.137 16.7909C107.703 16.8034 108.27 16.7709 108.837 16.7592C109.238 16.7509 109.638 16.7684 110.027 16.8794C110.147 16.9136 110.267 16.9603 110.379 17.0162C110.611 17.1313 110.772 17.314 110.842 17.566C110.887 17.7328 110.92 17.9022 110.961 18.0707C110.972 18.1141 110.988 18.1566 111.002 18.2V18.5604C110.93 18.648 110.838 18.6897 110.725 18.6906C110.671 18.6906 110.619 18.7014 110.565 18.7064C110.098 18.7532 109.637 18.7532 109.176 18.6314C108.946 18.5704 108.703 18.5429 108.464 18.5371C107.164 18.502 105.863 18.4678 104.564 18.4528C103.79 18.4436 103.017 18.4812 102.244 18.4762C100.796 18.467 99.3494 18.4295 97.9019 18.4278C96.4745 18.4261 95.0479 18.4528 93.6204 18.4703C91.7867 18.4929 89.9529 18.5171 88.1184 18.5438C86.4448 18.5679 84.7712 18.5971 83.0968 18.623C81.3232 18.6505 79.5495 18.6797 77.775 18.7023C76.1481 18.7231 74.5204 18.7373 72.8928 18.7507C71.6989 18.7607 70.5051 18.7632 69.3112 18.7715C69.247 18.7715 69.1827 18.7907 69.1185 18.8007H66.4755Z" fill="#475467"/>
<path d="M66.116 0C66.207 0.015017 66.2987 0.0258627 66.3897 0.0442168C67.2665 0.225255 67.9364 0.677435 68.3002 1.52006C68.3494 1.63435 68.3803 1.76116 68.3928 1.88547C68.4095 2.05316 68.3377 2.13409 68.1734 2.16162C67.7671 2.23003 67.3967 2.16746 67.0654 1.89632C66.5574 1.48085 66.0168 1.44831 65.452 1.78703C64.9464 2.0907 64.5776 2.52787 64.3032 3.04011C63.8535 3.88023 63.6966 4.76957 63.916 5.7073C63.9995 6.06271 64.163 6.38307 64.4049 6.65838C64.772 7.07469 65.0882 7.5277 65.3927 7.98989C65.5396 8.21181 65.6956 8.42872 65.8557 8.64146C66.1703 9.0586 66.4498 9.4941 66.6083 9.998C66.8419 10.7388 66.7342 11.4255 66.2504 12.0336C65.4878 12.9939 64.505 13.6104 63.2912 13.8257C62.7214 13.9266 62.144 13.9191 61.5851 13.7581C61.1579 13.6355 60.785 13.3977 60.4513 13.104C60.3186 12.9872 60.2335 12.8346 60.206 12.6568C60.1968 12.5984 60.1927 12.5367 60.2002 12.4783C60.2302 12.2564 60.3895 12.1388 60.6106 12.1805C60.8592 12.228 61.1037 12.3014 61.354 12.3365C62.4619 12.4917 63.3971 12.1655 64.1146 11.2936C64.3941 10.9533 64.5493 10.5536 64.4742 10.1048C64.4441 9.92458 64.3832 9.73854 64.2881 9.5842C64.1004 9.27885 63.8877 8.98685 63.6683 8.70237C63.4322 8.39619 63.1727 8.10836 62.9308 7.80718C62.7806 7.62031 62.6413 7.42425 62.5019 7.22903C61.9471 6.44981 61.7427 5.57966 61.8395 4.63525C61.9647 3.40803 62.4193 2.31846 63.2161 1.37155C63.8143 0.659915 64.5618 0.209404 65.4837 0.0583995C65.6138 0.0367083 65.7448 0.0191884 65.8749 0C65.955 0 66.0351 0 66.1152 0L66.116 0Z" fill="#475467"/>
<path d="M69.1187 18.8007C69.1829 18.7907 69.2471 18.7724 69.3114 18.7715C70.5052 18.764 71.6991 18.7607 72.8929 18.7507C74.5206 18.7373 76.1475 18.7231 77.7751 18.7023C79.5488 18.6798 81.3225 18.6506 83.097 18.623C84.7706 18.5972 86.4441 18.568 88.1185 18.5438C89.9523 18.5171 91.786 18.4929 93.6206 18.4704C95.0481 18.4528 96.4747 18.4261 97.9021 18.4278C99.3496 18.4295 100.796 18.467 102.244 18.4762C103.017 18.4812 103.79 18.4437 104.564 18.4528C105.864 18.4679 107.164 18.5021 108.464 18.5371C108.703 18.5438 108.945 18.5713 109.176 18.6314C109.636 18.7532 110.098 18.7532 110.566 18.7065C110.619 18.7015 110.672 18.6906 110.725 18.6906C110.838 18.6906 110.93 18.6489 111.002 18.5605V18.8007H69.1203H69.1187Z" fill="#475467"/>
<path d="M25.8504 18.4391C25.3765 18.4391 24.9027 18.4391 24.4288 18.4391C21.8734 18.4399 19.3172 18.4341 16.7618 18.4441C14.7403 18.4516 12.7188 18.4908 10.6974 18.4917C9.08305 18.4917 7.46872 18.4558 5.85439 18.4349C4.93418 18.4233 4.01314 18.4116 3.09293 18.3949C2.55232 18.3849 2.01337 18.3665 1.48194 18.2472C1.06146 18.1521 0.710228 17.9627 0.479133 17.5831C0.347317 17.3671 0.194644 17.1643 0.0636617 16.9474C-0.043126 16.7722 -0.0180977 16.6629 0.157935 16.5636C0.442424 16.4035 0.737759 16.2683 1.07314 16.2416C1.62794 16.1966 2.17856 16.1807 2.7175 16.3584C2.79926 16.3851 2.88686 16.396 2.97279 16.4043C3.34405 16.441 3.71614 16.4785 4.08822 16.5094C5.21867 16.6029 6.35079 16.6713 7.48541 16.6779C8.72014 16.6854 9.95404 16.6754 11.1888 16.6838C12.9433 16.6963 14.6978 16.7247 16.4522 16.7347C18.2401 16.7455 20.0288 16.748 21.8167 16.743C23.6045 16.738 25.3932 16.7197 27.1811 16.7046C28.5685 16.693 29.9576 16.7055 31.3441 16.6588C33.706 16.5795 36.067 16.5962 38.4288 16.617C40.517 16.6354 42.6052 16.6629 44.6934 16.6813C46.4012 16.6963 48.1098 16.7063 49.8176 16.7138C50.0904 16.7146 50.3632 16.693 50.636 16.6829C50.7828 16.6779 50.9297 16.6704 51.0757 16.6721C51.4911 16.6779 51.8482 16.8314 52.121 17.1418C52.3096 17.3562 52.4747 17.5923 52.6308 17.8317C52.7676 18.0412 52.7125 18.2047 52.4881 18.3273C52.2487 18.4575 51.9825 18.4883 51.7181 18.5217C51.19 18.5884 50.6635 18.5409 50.1421 18.4691C49.4104 18.369 48.6788 18.3932 47.9446 18.4107C47.0511 18.4316 46.1568 18.4541 45.2632 18.4433C43.6623 18.4233 42.0621 18.3632 40.4611 18.3482C38.3462 18.3281 36.2313 18.3281 34.1156 18.3315C32.5613 18.334 31.0062 18.3523 29.452 18.3707C28.2515 18.3849 27.0509 18.4091 25.8496 18.4283C25.8496 18.4316 25.8496 18.4358 25.8496 18.4391H25.8504Z" fill="#475467"/>
<path d="M8.2225 6.97076C8.1908 7.02832 8.1666 7.06503 8.14742 7.10508C7.30896 8.90545 6.39793 10.6691 5.48106 12.4303C5.36176 12.6589 5.21159 12.8766 5.04556 13.0735C4.81614 13.3455 4.5158 13.5315 4.15622 13.5666C3.55638 13.625 3.05247 13.4222 2.69039 12.9292C2.46097 12.6163 2.36002 12.2484 2.29495 11.8713C2.12976 10.9035 2.04633 9.92661 2.05885 8.94633C2.07803 7.38039 2.12308 5.81528 2.15896 4.24934C2.17231 3.68287 2.19984 3.11722 2.20401 2.55075C2.20902 1.99428 2.30496 1.45033 2.39005 0.903882C2.41175 0.765391 2.42509 0.626067 2.45012 0.489245C2.46431 0.411657 2.486 0.333235 2.5202 0.261487C2.5786 0.137179 2.68122 0.058757 2.82305 0.0729398C3.3403 0.125499 3.80666 0.306538 4.1921 0.661107C4.33893 0.79626 4.39983 0.98731 4.40984 1.18503C4.41735 1.33771 4.41151 1.49205 4.39733 1.64389C4.3406 2.26125 4.26551 2.87612 4.22213 3.49432C4.11618 5.01771 4.08281 6.54361 4.09365 8.07034C4.10116 9.12987 4.14037 10.1886 4.16707 11.2481C4.16957 11.339 4.17958 11.4308 4.18876 11.5676C4.24299 11.5001 4.27553 11.4709 4.29388 11.4358C4.37063 11.2882 4.44655 11.1397 4.51747 10.9895C4.96631 10.0309 5.40848 9.06814 5.86399 8.11205C6.33453 7.12594 6.81757 6.14566 7.29478 5.16371C7.50001 4.74157 7.8429 4.50463 8.29925 4.42371C8.82986 4.32943 9.2203 4.60057 9.31457 5.13034C9.56152 6.52943 9.91942 7.90181 10.319 9.26252C10.4275 9.63044 10.5902 9.98251 10.7278 10.3421C10.7445 10.3421 10.762 10.3437 10.7787 10.3437C10.8179 10.257 10.8697 10.1744 10.8947 10.0835C11.0265 9.61542 11.1525 9.14656 11.2776 8.67686C11.4745 7.93685 11.6572 7.19351 11.7623 6.43265C11.875 5.61422 11.9884 4.79663 12.1036 3.97903C12.1728 3.49098 12.2421 3.00293 12.3205 2.51654C12.3488 2.33801 12.3739 2.16281 12.3505 1.98094C12.3388 1.88917 12.338 1.79406 12.3463 1.70145C12.363 1.50456 12.4807 1.37108 12.6759 1.3619C13.2549 1.3327 13.7371 1.52959 14.0741 2.01681C14.2126 2.21704 14.2452 2.45064 14.2026 2.6884C14.1092 3.20566 14.0041 3.72124 13.9098 4.2385C13.7713 4.99852 13.6353 5.75855 13.5052 6.52025C13.2924 7.76249 13.0346 8.99305 12.625 10.1877C12.5082 10.5298 12.3647 10.8593 12.167 11.1622C12.0986 11.2665 12.0176 11.3732 11.9175 11.4442C11.7115 11.5893 11.4962 11.7278 11.2701 11.8388C10.9506 11.9956 10.6311 11.9331 10.3316 11.7679C9.86353 11.5101 9.52898 11.1296 9.3421 10.6307C9.19444 10.2386 9.05761 9.84068 8.93748 9.43939C8.6947 8.63014 8.46694 7.81588 8.22333 6.97326L8.2225 6.97076Z" fill="#475467"/>
<path d="M22.8195 9.54036C22.862 9.04313 22.9171 8.39239 22.9722 7.74165C22.9797 7.65572 22.9905 7.56896 22.9897 7.48219C22.988 7.3362 22.9371 7.29365 22.7886 7.31367C22.7302 7.32118 22.6693 7.3362 22.6159 7.35955C21.7625 7.73164 20.8548 7.92603 19.9596 8.1613C19.6759 8.23555 19.3981 8.32815 19.117 8.41241C18.9635 8.4583 18.8658 8.55257 18.84 8.71776C18.7866 9.05982 18.709 9.39853 18.6756 9.74226C18.6072 10.4514 18.5655 11.1639 18.5021 11.8738C18.4812 12.1049 18.4445 12.3369 18.3853 12.5605C18.3252 12.7882 18.2209 12.8558 17.9865 12.8333C17.823 12.8174 17.6611 12.7707 17.5018 12.7248C17.3742 12.6881 17.2532 12.6289 17.1264 12.588C16.9695 12.5379 16.8677 12.4245 16.7843 12.2952C16.7518 12.2443 16.7434 12.1692 16.7468 12.1058C16.7626 11.7529 16.7751 11.4 16.8068 11.0479C16.8753 10.2779 16.952 9.50866 17.0304 8.74029C17.1013 8.03782 17.1789 7.33536 17.2532 6.63373C17.2966 6.22327 17.3266 5.8103 17.3833 5.4015C17.4759 4.73491 17.5861 4.07166 17.6862 3.40674C17.7571 2.93287 17.8313 2.459 17.813 1.97595C17.8055 1.78574 17.8313 1.58885 17.8731 1.40197C17.9331 1.13416 18.0749 1.03071 18.3469 1.04239C18.7207 1.05825 19.0669 1.18005 19.3814 1.37694C19.5925 1.50876 19.6801 1.72734 19.7126 1.96844C19.7544 2.27713 19.7101 2.5808 19.6601 2.88281C19.4573 4.11838 19.253 5.35395 19.0494 6.58868C19.0043 6.86316 19.0435 6.88735 19.3189 6.81644C19.7577 6.70381 20.204 6.62038 20.6404 6.49941C21.4046 6.28751 22.1629 6.05641 22.9238 5.83449C23.1057 5.7811 23.1966 5.65679 23.2258 5.47575C23.2942 5.04193 23.3668 4.6081 23.4335 4.17344C23.5762 3.2524 23.7163 2.33052 23.8582 1.40864C23.8774 1.2835 23.889 1.15586 23.9224 1.03489C23.9992 0.762076 24.1927 0.649448 24.4714 0.703677C24.6674 0.742053 24.8626 0.787104 25.0595 0.818807C25.2865 0.855515 25.4466 0.979823 25.5125 1.19173C25.5726 1.38695 25.616 1.59302 25.6277 1.79575C25.6552 2.27713 25.5793 2.7535 25.4975 3.2257C25.3123 4.29525 25.1079 5.36146 24.9369 6.43351C24.8259 7.13013 24.7567 7.83426 24.6774 8.53589C24.6374 8.89296 24.6082 9.25253 24.589 9.61127C24.5698 9.96334 24.5757 10.3171 24.5556 10.67C24.5465 10.841 24.5131 11.0129 24.4747 11.1814C24.4313 11.3699 24.3078 11.4751 24.1076 11.4909C23.7264 11.5209 23.381 11.425 23.0681 11.2106C22.9104 11.1021 22.8212 10.9503 22.8212 10.7551C22.8212 10.4022 22.8212 10.0493 22.8212 9.54119L22.8195 9.54036Z" fill="#475467"/>
<path d="M85.3662 12.6982C84.3985 12.6606 83.6001 12.221 82.9552 11.4734C82.8058 11.3008 82.6907 11.1089 82.6014 10.897C82.2151 9.98259 81.9824 9.02901 81.8464 8.0479C81.6971 6.96501 81.7429 5.88044 81.7947 4.79588C81.8214 4.24275 81.8597 3.69046 81.974 3.14901C82.0358 2.85702 82.12 2.56836 82.2202 2.28637C82.2744 2.13286 82.3712 1.9902 82.4671 1.85588C82.5747 1.70488 82.7266 1.6031 82.9159 1.58474C82.9902 1.57723 83.0803 1.58641 83.142 1.62312C83.3539 1.74826 83.5608 1.88425 83.7636 2.02357C84.0923 2.2505 84.2032 2.56502 84.109 2.94962C84.0564 3.16236 84.008 3.37927 83.9271 3.582C83.7519 4.0225 83.6952 4.48303 83.6551 4.94855C83.5742 5.88628 83.56 6.82485 83.6159 7.76425C83.6635 8.55681 83.7394 9.34604 83.9738 10.1094C84.0364 10.3121 84.1198 10.5099 84.2132 10.7001C84.2741 10.8235 84.3592 10.9395 84.4535 11.0413C84.6821 11.2866 84.9432 11.3416 85.2536 11.2107C85.594 11.0672 85.8668 10.8336 86.0754 10.5324C86.7052 9.62302 87.1774 8.63273 87.5746 7.60406C88.0451 6.38435 88.398 5.12792 88.7375 3.86733C88.886 3.31504 89.0128 2.75523 89.1905 2.21212C89.3182 1.82168 89.5034 1.44875 89.6828 1.07833C89.7537 0.932335 89.8655 0.79885 89.9823 0.682885C90.1441 0.523538 90.2701 0.545229 90.4295 0.700405C90.7932 1.05331 90.8716 1.48713 90.8182 1.96767C90.729 2.76858 90.6289 3.56782 90.4603 4.35705C89.9815 6.59292 89.2348 8.72784 88.0559 10.6984C87.834 11.0697 87.5896 11.4292 87.3309 11.7763C86.9272 12.3194 86.3632 12.5956 85.6999 12.6807C85.6006 12.6932 85.5005 12.6923 85.3662 12.6998V12.6982Z" fill="#475467"/>
<path d="M46.8182 6.3747C46.9667 6.35217 47.0709 6.32548 47.1752 6.32214C47.5081 6.31213 47.841 6.30128 48.1739 6.30796C48.581 6.3163 48.9881 6.33132 49.3936 6.36469C49.638 6.38471 49.8833 6.42893 50.1202 6.4915C50.4923 6.58911 50.6767 6.88528 50.8085 7.21649C50.8627 7.35331 50.8185 7.46844 50.6875 7.54185C50.5791 7.60276 50.4581 7.65115 50.3363 7.67868C49.9117 7.77462 49.4795 7.81466 49.0457 7.80799C48.6252 7.80132 48.2056 7.77212 47.7859 7.76711C47.5398 7.76377 47.2937 7.78463 47.0476 7.80132C46.9692 7.80632 46.8899 7.82885 46.814 7.85221C46.6279 7.90977 46.5161 8.02073 46.4778 8.22847C46.3226 9.06775 46.1916 9.90954 46.1491 10.763C46.1332 11.07 46.1407 11.3762 46.215 11.6774C46.2333 11.7541 46.2659 11.8292 46.3026 11.8985C46.3501 11.9877 46.426 12.0253 46.5337 12.0219C47.2403 11.9994 47.9478 11.9936 48.6536 11.9594C48.9923 11.9427 49.3293 11.8859 49.6647 11.8309C49.8249 11.8042 49.9717 11.8225 50.1102 11.8926C50.398 12.0386 50.6166 12.2614 50.7701 12.5425C50.8836 12.7494 50.8352 12.9321 50.6166 13.0222C50.4097 13.1073 50.1861 13.1632 49.9642 13.1966C49.6747 13.24 49.3794 13.2467 49.0874 13.2725C48.3966 13.3343 47.7067 13.4027 47.015 13.4594C46.7698 13.4794 46.522 13.4752 46.2759 13.4786C46.23 13.4786 46.1824 13.4702 46.1374 13.4594C45.334 13.2567 44.6882 12.7211 44.5731 11.8C44.478 11.0417 44.4838 10.2833 44.5539 9.52577C44.6866 8.09164 44.9619 6.67838 45.1997 5.25927C45.354 4.33989 45.5142 3.42135 45.6802 2.50364C45.7169 2.30175 45.6685 2.15241 45.505 2.03228C45.4408 1.98556 45.379 1.93216 45.3265 1.87209C45.2305 1.76364 45.228 1.67187 45.3365 1.57592C45.4241 1.49834 45.5284 1.42492 45.6385 1.38988C45.8537 1.3198 45.9388 1.17213 45.9789 0.966067C46.0081 0.817565 46.0498 0.667395 46.1123 0.529739C46.2016 0.332849 46.3201 0.270278 46.532 0.310323C46.7272 0.347866 46.9208 0.402094 47.1068 0.471339C47.3738 0.570618 47.4973 0.77752 47.4981 1.06201C47.4981 1.33398 47.5023 1.32814 47.7651 1.36569C48.3332 1.44578 48.8972 1.35985 49.4628 1.33816C49.9901 1.31813 50.5165 1.29978 51.0388 1.39572C51.4109 1.46413 51.7187 1.84957 51.712 2.2275C51.7104 2.34096 51.6553 2.42105 51.5594 2.46527C51.4884 2.4978 51.4075 2.51616 51.3291 2.5245C50.3205 2.62962 49.311 2.72139 48.2957 2.72556C48.1163 2.72556 47.9353 2.73808 47.7567 2.76227C47.5306 2.79314 47.3704 2.89492 47.3112 3.14604C47.0901 4.08043 46.8741 5.01399 46.8056 5.97508C46.7965 6.09855 46.8123 6.22286 46.8182 6.3747Z" fill="#475467"/>
<path d="M74.5392 3.0455C74.4141 3.0163 74.2881 2.97375 74.1596 2.9604C73.8168 2.92536 73.4805 2.99127 73.1485 3.06302C72.4836 3.20568 71.8212 3.16981 71.1629 3.03549C70.6265 2.9262 70.2811 2.58831 70.1134 2.07106C70.0892 1.99598 70.0717 1.91589 70.0642 1.83746C70.0375 1.54797 70.1818 1.36943 70.4713 1.36359C70.6832 1.35942 70.9001 1.3711 71.1079 1.41198C71.5542 1.49958 71.9989 1.46788 72.4435 1.427C73.0342 1.37277 73.6249 1.30853 74.2147 1.24846C74.2614 1.24346 74.3081 1.24262 74.354 1.23511C74.6452 1.18506 74.7245 1.09996 74.7553 0.804626C74.8029 0.350779 75.1933 0.0712951 75.6363 0.176414C75.7857 0.211454 75.9333 0.251499 76.081 0.292379C76.3221 0.359121 76.3938 0.450058 76.408 0.699507C76.4189 0.888054 76.4848 0.963139 76.6858 0.958134C76.932 0.952294 77.1772 0.915585 77.4234 0.899734C77.863 0.871369 78.3043 0.829655 78.7398 0.923094C79.3914 1.06325 79.8428 1.43034 80.0288 2.09192C80.0663 2.2254 80.033 2.31968 79.9237 2.37975C79.8144 2.43981 79.6968 2.49571 79.5766 2.51907C79.4415 2.54493 79.2971 2.54577 79.1587 2.53409C78.5121 2.47652 77.8655 2.47402 77.2223 2.56412C77.0387 2.58998 76.8569 2.63754 76.6792 2.69177C76.5507 2.73098 76.4881 2.82108 76.4656 2.97041C76.2595 4.28691 76.0468 5.60173 75.8249 6.91489C75.7164 7.55811 75.5804 8.19717 75.4653 8.83957C75.4328 9.02227 75.4269 9.21082 75.4152 9.39687C75.3744 10.0418 75.3285 10.6867 75.3001 11.3324C75.2876 11.611 75.321 11.8922 75.3201 12.1717C75.3201 12.2885 75.3009 12.412 75.2584 12.5204C75.1633 12.7649 74.9631 12.8566 74.7078 12.784C74.6127 12.7565 74.5184 12.7165 74.4341 12.6647C74.0912 12.4553 73.8268 12.1692 73.6357 11.8146C73.5106 11.5827 73.5131 11.3249 73.4897 11.0746C73.4121 10.2403 73.4739 9.41021 73.5857 8.58261C73.7509 7.36039 74.0395 6.1607 74.2606 4.94932C74.3682 4.36032 74.4466 3.76548 74.5376 3.17314C74.5426 3.14144 74.5376 3.10807 74.5376 3.04717L74.5392 3.0455Z" fill="#475467"/>
<path d="M97.6099 0.759673C98.3299 0.759673 99.0507 0.747993 99.7707 0.765513C100.054 0.772187 100.338 0.837261 100.62 0.884815C100.807 0.916518 100.945 1.02831 101.053 1.18265C101.176 1.35869 101.279 1.5439 101.326 1.7558C101.385 2.02945 101.296 2.15793 101.016 2.19797C100.99 2.20214 100.963 2.20381 100.936 2.20464C100.416 2.23134 99.8975 2.27055 99.3777 2.28056C98.6911 2.29308 98.0028 2.28724 97.3162 2.2789C96.8966 2.27306 96.7272 2.38485 96.6355 2.81951C96.4753 3.57537 96.3059 4.33039 96.2467 5.10293C96.2367 5.23475 96.2342 5.3699 96.2492 5.50088C96.27 5.68359 96.2976 5.71029 96.4778 5.70111C96.864 5.68109 97.2512 5.6619 97.6341 5.61768C98.2164 5.5501 98.7962 5.4575 99.3777 5.38241C99.6847 5.3432 99.9901 5.37991 100.292 5.44332C100.554 5.49838 100.774 5.6327 100.973 5.80456C101.003 5.83042 101.031 5.85962 101.055 5.89132C101.187 6.05735 101.174 6.20001 100.997 6.3143C100.887 6.38522 100.762 6.44445 100.636 6.47949C100.366 6.55374 100.094 6.61798 99.8182 6.66804C99.2217 6.77649 98.6244 6.88579 98.0245 6.97255C97.4964 7.04847 96.9658 7.10437 96.4344 7.14858C96.195 7.16861 96.0373 7.28374 95.9614 7.4873C95.8596 7.76011 95.7636 8.04126 95.7144 8.32742C95.5476 9.30603 95.4041 10.2871 95.334 11.2791C95.3031 11.7171 95.2447 12.1543 95.178 12.5881C95.1246 12.9368 95.0587 12.9844 94.7083 13.0561C94.0091 13.1988 93.2708 12.5614 93.461 11.7997C93.6245 11.1456 93.6963 10.4757 93.7831 9.80827C93.9099 8.83049 94.0083 7.84854 94.2594 6.89163C94.2811 6.80987 94.2744 6.73895 94.2294 6.66387C94.1752 6.57293 94.1309 6.47532 94.0884 6.37771C94.03 6.24256 94.0375 6.10657 94.1568 6.01313C94.4246 5.80206 94.4972 5.52674 94.5314 5.19637C94.614 4.39463 94.7425 3.59873 94.8501 2.79949C94.8718 2.64097 94.8893 2.48163 94.8985 2.32228C94.9093 2.13707 94.8493 2.06031 94.6641 2.04279C94.4371 2.02194 94.2603 1.90931 94.1042 1.76164C93.914 1.58144 93.9157 1.36703 94.1042 1.18516C94.322 0.975752 94.594 0.893992 94.8885 0.882312C95.7286 0.848941 96.5687 0.820576 97.408 0.790542C97.4747 0.788039 97.5415 0.790542 97.6082 0.790542V0.759673H97.6099Z" fill="#475467"/>
<path d="M37.7158 2.70005C37.5206 2.70005 37.3546 2.69672 37.1886 2.70005C36.4419 2.71841 35.6952 2.74928 34.9485 2.75178C34.7058 2.75178 34.458 2.70005 34.2219 2.63832C33.9115 2.55739 33.7046 2.34549 33.5978 2.04097C33.5561 1.92167 33.5161 1.80154 33.4802 1.68057C33.4143 1.45531 33.4418 1.3894 33.6596 1.28679C33.9708 1.13995 34.2978 1.05068 34.6457 1.06987C35.1721 1.09991 35.6969 1.15247 36.2233 1.16498C36.7089 1.17666 37.1961 1.15831 37.6825 1.13662C38.5017 1.10074 39.3202 1.03483 40.1403 1.01231C40.7593 0.995622 41.38 1.02065 41.9999 1.03984C42.1709 1.04484 42.3453 1.07988 42.5096 1.12994C43.0202 1.28428 43.3764 1.75648 43.3764 2.25622C43.3764 2.5624 43.2546 2.69588 42.9451 2.7109C42.7657 2.71924 42.5847 2.70339 42.4053 2.7084C41.8455 2.72341 41.2857 2.75011 40.7251 2.75762C40.4189 2.76179 40.1127 2.73259 39.8066 2.72592C39.6948 2.72341 39.5821 2.7401 39.4553 2.74928C39.3986 3.10218 39.3385 3.44256 39.2901 3.78462C39.0941 5.19038 38.9598 6.60281 38.8371 8.01691C38.7637 8.85954 38.6561 9.69966 38.5835 10.5423C38.5518 10.906 38.5727 11.2739 38.5651 11.6402C38.5618 11.7929 38.561 11.948 38.5309 12.0965C38.4775 12.3635 38.3074 12.462 38.0429 12.3894C37.9536 12.3652 37.8669 12.3243 37.7868 12.2784C37.4989 12.1132 37.2612 11.893 37.0651 11.6252C36.9558 11.4758 36.8916 11.3081 36.8841 11.1246C36.8774 10.9519 36.8649 10.7742 36.8958 10.6065C36.9867 10.1193 37.0009 9.62707 37.0351 9.13485C37.1052 8.12454 37.1661 7.11339 37.2545 6.10391C37.3446 5.07525 37.4447 4.04741 37.6449 3.0321C37.6641 2.93449 37.6858 2.83688 37.7142 2.69755L37.7158 2.70005Z" fill="#475467"/>
<path d="M106.135 6.68693C106.783 6.67275 107.403 6.65689 108.022 6.64521C108.329 6.63938 108.636 6.64188 108.942 6.63771C109.155 6.6352 109.35 6.69444 109.532 6.80122C109.636 6.86213 109.743 6.91802 109.837 6.99227C109.918 7.05735 110.001 7.1341 110.049 7.22337C110.198 7.49618 110.089 7.74229 109.783 7.79068C109.515 7.83406 109.239 7.85826 108.967 7.84908C108.431 7.82989 107.902 7.89163 107.371 7.93501C107.124 7.95503 106.878 7.97422 106.633 7.99675C106.561 8.00342 106.488 8.01927 106.417 8.03596C106.196 8.09019 106.044 8.22701 106.003 8.44893C105.96 8.68336 105.944 8.92363 105.922 9.16223C105.852 9.93811 105.793 10.7157 105.713 11.4907C105.674 11.8686 105.59 12.2424 105.433 12.5903C105.354 12.7638 105.254 12.9348 105.131 13.08C104.955 13.2877 104.721 13.3353 104.46 13.2402C104.322 13.1901 104.179 13.1551 104.04 13.1084C103.896 13.06 103.795 12.9791 103.808 12.8047C103.817 12.6929 103.782 12.5711 103.812 12.4676C103.942 12.0271 103.949 11.5733 103.988 11.1228C104.089 9.90141 104.178 8.67835 104.284 7.45697C104.341 6.80039 104.428 6.14632 104.496 5.48974C104.57 4.76725 104.64 4.04477 104.705 3.32145C104.716 3.19714 104.701 3.06866 104.688 2.94352C104.672 2.77166 104.574 2.6657 104.404 2.62566C104.194 2.57727 104.027 2.46798 103.905 2.28611C103.807 2.13927 103.796 1.99911 103.868 1.8356C103.979 1.58615 104.154 1.44098 104.431 1.4268C104.563 1.42013 104.698 1.39343 104.829 1.40594C105.272 1.44932 105.707 1.39176 106.145 1.34921C107.076 1.25911 108.009 1.23825 108.943 1.29999C109.175 1.31501 109.415 1.29832 109.631 1.40094C109.829 1.49438 110.027 1.59282 110.207 1.71629C110.45 1.88232 110.516 2.14094 110.498 2.42126C110.487 2.58978 110.436 2.64735 110.27 2.67321C110.125 2.69574 109.979 2.71326 109.833 2.71659C109.412 2.72661 108.992 2.72994 108.572 2.73245C108.139 2.73495 107.705 2.73245 107.272 2.73328C107.225 2.73328 107.179 2.73495 107.132 2.73912C106.699 2.7775 106.491 2.96855 106.445 3.4007C106.338 4.401 106.238 5.4013 106.139 6.40244C106.129 6.50005 106.138 6.59933 106.138 6.68609L106.135 6.68693Z" fill="#475467"/>
<path d="M31.2095 3.0891C31.2112 3.88333 31.1578 4.67256 31.0635 5.46095C31.0026 5.96986 30.976 6.48294 30.9242 6.99269C30.8558 7.66178 30.7782 8.33004 30.7048 8.99829C30.6289 9.69325 30.5471 10.3882 30.4821 11.084C30.4412 11.5212 30.432 11.9617 30.4003 12.3996C30.3903 12.5381 30.3611 12.6766 30.3227 12.8101C30.2777 12.9686 30.2159 13.0153 30.0599 12.9903C29.7979 12.9478 29.526 12.9169 29.2807 12.8226C28.9562 12.6967 28.771 12.4247 28.7201 12.0768C28.7017 11.9525 28.7 11.824 28.7067 11.698C28.7301 11.2325 28.7576 10.767 28.7893 10.3023C28.8677 9.17266 28.9653 8.04471 29.0997 6.9201C29.1714 6.31859 29.1948 5.71207 29.2348 5.10638C29.2765 4.47483 29.3232 3.84328 29.3441 3.2109C29.3616 2.6853 29.3549 2.15887 29.3408 1.63328C29.3308 1.26202 29.4826 1.0643 29.8572 1.04595C30.2251 1.02843 30.5697 1.12687 30.89 1.30624C31.0802 1.41303 31.1854 1.58322 31.1987 1.79263C31.2204 2.13051 31.2204 2.47006 31.2262 2.80878C31.2279 2.90138 31.2162 2.99482 31.2104 3.08826L31.2095 3.0891Z" fill="#475467"/>
</g>
<defs>
<clipPath id="clip0_11904_910">
<rect width="111" height="18.8013" fill="white"/>
</clipPath>
</defs>
</svg>
