<svg width="89" height="23" viewBox="0 0 89 23" fill="none" xmlns="http://www.w3.org/2000/svg">
<mask id="mask0_11904_834" style="mask-type:luminance" maskUnits="userSpaceOnUse" x="0" y="0" width="89" height="23">
<path d="M89 0H0V23H89V0Z" fill="white"/>
</mask>
<g mask="url(#mask0_11904_834)">
<path d="M87.6685 4.47564C86.5498 5.26579 85.4569 6.03772 84.351 6.81872C84.3009 6.76779 84.2556 6.72593 84.2152 6.68015C82.9476 5.24556 81.349 4.35826 79.4137 4.06944C77.4082 3.76812 75.359 4.22548 73.6976 5.34525C72.0363 6.46501 70.8922 8.15984 70.5064 10.073C70.1205 11.9862 70.5229 13.9684 71.6288 15.6025C72.7348 17.2366 74.458 18.3951 76.4358 18.8341C78.0897 19.2165 79.8299 19.0459 81.3691 18.3506C82.9128 17.6726 83.8449 16.5052 84.264 14.9418C84.2708 14.9147 84.276 14.8872 84.2795 14.8595C84.2824 14.8393 84.2823 14.8186 84.2853 14.7688C84.0036 14.7601 83.724 14.7659 83.4452 14.765C83.1545 14.7639 82.8638 14.765 82.5737 14.765H78.3132C78.2562 14.5623 78.2587 10.9751 78.3132 10.7972H88.6489C88.6546 10.8735 88.6645 10.9411 88.6641 11.0087C88.6597 11.7964 88.6691 12.5846 88.6448 13.3719C88.5983 14.8782 88.296 16.3339 87.6183 17.7019C86.5854 19.7861 84.9202 21.2332 82.7175 22.1222C81.5168 22.6056 80.2405 22.8934 78.9411 22.9738C73.1848 23.3446 67.9501 19.629 66.5687 14.2568C66.2805 13.1456 66.169 11.999 66.2381 10.8558C66.3738 8.53709 67.2378 6.31216 68.7164 4.47401C70.195 2.63585 72.2189 1.27067 74.5215 0.558232C76.8242 -0.15421 79.2976 -0.180506 81.6161 0.482806C83.9346 1.14612 85.9895 2.46793 87.5102 4.2742C87.5592 4.33263 87.6045 4.39393 87.6685 4.47564Z" fill="#475467"/>
<path d="M53.7411 10.7997H64.0777C64.0871 10.8599 64.0932 10.9204 64.0958 10.9812C64.0867 11.8734 64.1003 12.7666 64.0595 13.6575C64.0094 15.0621 63.6633 16.4424 63.0421 17.715C62.1412 19.5288 60.7417 20.8794 58.8835 21.7939C57.6305 22.4031 56.2723 22.7878 54.8756 22.9291C49.1879 23.5471 43.728 20.0664 42.1122 14.6664C41.7585 13.4924 41.6049 12.2712 41.6575 11.0501C41.7528 8.71313 42.5883 6.45965 44.0525 4.59037C45.5167 2.72109 47.54 1.32494 49.8523 0.588225C52.1646 -0.148489 54.656 -0.190718 56.994 0.467171C59.3319 1.12506 61.4053 2.45178 62.9373 4.27027C62.9867 4.32913 63.0345 4.3893 63.1029 4.47328C61.9886 5.26038 60.8864 6.03841 59.7738 6.82446C59.7097 6.75243 59.6587 6.69497 59.6076 6.63767C58.3403 5.2234 56.7484 4.35337 54.8293 4.06682C52.8137 3.76781 50.756 4.23472 49.0932 5.36841C47.4304 6.5021 46.2934 8.21329 45.9236 10.1387C45.5538 12.064 45.9803 14.052 47.1126 15.6803C48.2449 17.3087 49.9937 18.4494 51.9879 18.8601C53.6117 19.2048 55.3086 19.0235 56.8137 18.3444C58.3547 17.6628 59.2865 16.4945 59.6951 14.9267C59.707 14.8806 59.7124 14.8331 59.7244 14.7663H53.7541C53.6996 14.5969 53.6905 11.0264 53.7411 10.7997Z" fill="#475467"/>
<path d="M6.22784 18.7725H17.4015C17.3529 18.8663 17.3253 18.9282 17.2902 18.986C16.5635 20.1844 15.8333 21.3812 15.1107 22.582C15.082 22.6403 15.0353 22.6887 14.9769 22.7206C14.9186 22.7524 14.8513 22.7662 14.7845 22.7601C10.6884 22.756 6.59224 22.7548 2.49603 22.7565C1.72932 22.7565 1.07298 22.5045 0.565806 21.9436C-0.102341 21.2048 -0.184826 20.1411 0.350782 19.2721C0.438427 19.1356 0.534119 19.0041 0.63739 18.8782C4.43364 14.0741 8.23019 9.27033 12.027 4.46697C12.0792 4.40095 12.1296 4.33381 12.1774 4.27172C12.1723 4.26135 12.1664 4.25138 12.1597 4.24189C12.1555 4.23687 12.1499 4.23314 12.1435 4.23117C12.1295 4.22775 12.1151 4.22582 12.1006 4.22541C8.35319 4.22216 4.60582 4.21908 0.858501 4.21617C0.851654 4.21469 0.845154 4.212 0.839333 4.20823C0.78946 4.0613 0.778196 0.412079 0.830794 0.172792C0.896473 0.169391 0.967058 0.162502 1.03773 0.162502C6.01996 0.161979 11.0022 0.161979 15.9843 0.162502C16.5038 0.154445 17.0134 0.299437 17.4444 0.577941C18.4941 1.26162 18.7835 2.60212 18.1107 3.67245C18.0337 3.79066 17.9504 3.9049 17.861 4.01473C14.0442 8.85634 10.227 13.6976 6.40953 18.5384C6.35856 18.6031 6.30851 18.6685 6.22784 18.7725Z" fill="#475467"/>
<path d="M43.8499 22.716H43.5616C41.9277 22.716 40.2936 22.7128 38.6596 22.7202C38.5759 22.7291 38.4913 22.7122 38.4183 22.6718C38.3452 22.6315 38.2875 22.5699 38.2534 22.496C34.6164 16.2173 30.9758 9.94073 27.3315 3.66624C26.7066 2.58875 26.0815 1.51132 25.4562 0.433941C25.4185 0.368887 25.3858 0.301217 25.3394 0.213054C25.4192 0.205293 25.4733 0.195613 25.5275 0.195613C26.5805 0.195032 27.6336 0.195293 28.6866 0.196398C29.0429 0.196807 29.3974 0.244823 29.7399 0.339063C30.1375 0.441862 30.5093 0.621048 30.8327 0.865776C31.1561 1.1105 31.4244 1.41568 31.6214 1.76284C32.1983 2.74644 32.7734 3.73106 33.3466 4.71669C36.793 10.6182 40.2394 16.5201 43.6857 22.4224C43.7344 22.5057 43.7802 22.5908 43.8503 22.716" fill="#475467"/>
<path d="M24.1007 17.3707C22.8086 17.3707 21.5165 17.3707 20.2244 17.3707C19.9702 17.3799 19.716 17.3523 19.4704 17.2888C18.7427 17.0751 18.4066 16.5168 18.6134 15.8151C18.6873 15.5823 18.7905 15.3589 18.9207 15.15C20.1384 13.1146 21.3601 11.0813 22.5859 9.05018C22.6911 8.87525 22.7949 8.69936 22.9056 8.52765C23.0495 8.29198 23.2488 8.09189 23.4876 7.94339C23.672 7.82227 23.8903 7.75758 24.1138 7.75781C24.3372 7.75805 24.5554 7.8232 24.7395 7.9447C25.0179 8.12475 25.2451 8.36853 25.4008 8.65401C25.8001 9.3174 26.1993 9.98082 26.5984 10.6443C27.5091 12.1583 28.4199 13.6722 29.331 15.186C29.487 15.4298 29.5959 15.6986 29.6524 15.9796C29.7046 16.2245 29.6679 16.4791 29.5484 16.7012C29.4289 16.9233 29.2339 17.0995 28.9957 17.2004C28.7658 17.3061 28.5147 17.3627 28.2599 17.3661C27.9551 17.371 27.6501 17.3709 27.3452 17.371C26.2637 17.3714 25.1821 17.3714 24.1004 17.371" fill="#475467"/>
<path d="M86.8516 1.18935C86.8533 0.985752 86.9176 0.787167 87.0366 0.618629C87.1556 0.450091 87.3239 0.319144 87.5204 0.242293C87.7168 0.165442 87.9325 0.146127 88.1403 0.186783C88.3481 0.227439 88.5388 0.326247 88.6882 0.470751C88.8376 0.615255 88.9392 0.798987 88.98 0.998789C89.0208 1.19859 88.9991 1.40552 88.9175 1.59349C88.836 1.78146 88.6984 1.94206 88.5219 2.05505C88.3455 2.16803 88.1381 2.22835 87.926 2.22839C87.7841 2.22899 87.6434 2.20246 87.5123 2.15036C87.3811 2.09826 87.2621 2.02163 87.1621 1.92492C87.0621 1.82822 86.9831 1.71338 86.9298 1.58709C86.8765 1.46081 86.85 1.3256 86.8516 1.18935ZM88.2411 1.38347C88.286 1.34911 88.3147 1.32862 88.3416 1.30638C88.4068 1.25525 88.4544 1.18641 88.4782 1.10887C88.5019 1.03133 88.5007 0.948713 88.4747 0.871844C88.457 0.799895 88.4167 0.734894 88.3593 0.685593C88.3019 0.636293 88.2301 0.605061 88.1537 0.596105C87.9128 0.565107 87.669 0.560193 87.4269 0.581455V1.79359H87.7036C87.7143 1.66435 87.7237 1.54942 87.7326 1.44015C87.7561 1.42827 87.7819 1.42127 87.8084 1.41962C87.8348 1.41796 87.8614 1.42169 87.8862 1.43055C87.9111 1.43942 87.9337 1.45322 87.9527 1.47106C87.9716 1.4889 87.9864 1.51037 87.9961 1.53407C88.0201 1.5768 88.0511 1.61587 88.0795 1.65615C88.2043 1.83379 88.2575 1.848 88.4985 1.76333L88.2407 1.38338" fill="#475467"/>
<path d="M87.7388 0.840173C87.8381 0.835126 87.9377 0.835942 88.037 0.842615C88.0587 0.843879 88.0799 0.849386 88.0993 0.858797C88.1186 0.868208 88.1358 0.881324 88.1497 0.89734C88.1636 0.913355 88.174 0.931932 88.1801 0.951929C88.1863 0.971925 88.1881 0.99292 88.1855 1.01362C88.1839 1.05213 88.167 1.0886 88.1383 1.11554C88.1096 1.14248 88.0712 1.15787 88.0311 1.15855C87.939 1.16387 87.8463 1.15977 87.739 1.15977L87.7388 0.840173Z" fill="#475467"/>
</g>
</svg>
