<svg width="25" height="25" viewBox="0 0 25 25" fill="none" xmlns="http://www.w3.org/2000/svg">
<path d="M20.8985 4.10119C17.7103 2.47853 13.4407 2.72072 10.3743 5.78712C9.60635 6.55509 8.98916 7.28244 8.48057 7.96681L8.45869 7.94494C7.23994 6.72619 5.25791 6.72619 4.03916 7.94494C2.82041 9.16369 2.82041 11.1457 4.03916 12.3645L4.4376 12.7629L6.52432 11.7199C6.23213 12.7543 6.2462 13.3442 6.32276 13.8887L11.1126 18.6785C11.6564 18.7543 12.2462 18.7692 13.2814 18.477L12.2376 20.5637L12.636 20.9621C13.8548 22.1809 15.8368 22.1809 17.0556 20.9621C18.2743 19.7434 18.2743 17.7613 17.0556 16.5426L17.0337 16.5207C17.7181 16.0113 18.4454 15.3949 19.2134 14.627C22.2376 11.6012 22.5485 7.34181 20.8985 4.10119ZM4.83369 10.8176C4.56338 10.2387 4.66651 9.52697 5.14385 9.04962C5.75323 8.44025 6.74463 8.44025 7.35323 9.04962L7.59541 9.29181C7.55557 9.35978 7.51104 9.43009 7.47354 9.4965L4.83369 10.8176ZM15.9501 17.6465C16.5595 18.2559 16.5595 19.2465 15.9501 19.8559C15.4728 20.3332 14.761 20.4363 14.1821 20.166L15.5032 17.5254C15.5696 17.4879 15.6399 17.4434 15.7079 17.4035L15.9501 17.6465ZM11.8087 17.1645L7.83213 13.1879C7.86573 12.477 8.24307 10.1277 11.479 6.89103C14.8384 3.53166 18.7345 4.85119 19.7282 5.27072C20.1485 6.26759 21.4665 10.1621 18.1079 13.5199C14.8907 16.7379 12.5337 17.127 11.8087 17.1645ZM13.0024 9.65353C13.0024 10.9457 14.054 11.9973 15.3462 11.9973C16.6384 11.9973 17.6899 10.9457 17.6899 9.65353C17.6899 8.36134 16.6384 7.30978 15.3462 7.30978C14.054 7.30978 13.0024 8.36134 13.0024 9.65353ZM16.1274 9.65353C16.1274 10.084 15.7774 10.4348 15.3462 10.4348C14.9149 10.4348 14.5649 10.084 14.5649 9.65353C14.5649 9.22306 14.9149 8.87228 15.3462 8.87228C15.7774 8.87228 16.1274 9.22306 16.1274 9.65353ZM3.81182 17.8731C3.0251 18.6598 3.01495 20.6246 3.03057 21.209L3.05166 21.9481L3.96104 21.9707C5.04776 21.9707 6.47901 21.8348 7.12588 21.1887C8.04385 20.2699 8.03995 18.7887 7.12588 17.8738C6.24073 16.9879 4.69698 16.9887 3.81182 17.8731ZM6.02198 20.0824C5.90323 20.191 5.40713 20.3348 4.61182 20.3879C4.66026 19.7246 4.77979 19.1301 4.91651 18.9793C5.2212 18.6754 5.71416 18.6731 6.02119 18.9793C6.32744 19.2832 6.32588 19.7801 6.02198 20.0824Z" fill="white"/>
</svg>
