<svg width="26" height="26" viewBox="0 0 26 26" fill="none" xmlns="http://www.w3.org/2000/svg">
<path d="M9.75016 16.25H21.6668M9.75016 11.9167H14.0835M9.75016 7.58333H14.0835M3.79183 22.75C5.2876 22.75 6.50016 21.5374 6.50016 20.0417V4.25C6.50016 3.69771 6.94788 3.25 7.50016 3.25H23.9168C24.4691 3.25 24.9168 3.69772 24.9168 4.25V20.0417C24.9168 21.5374 23.7043 22.75 22.2085 22.75H3.79183ZM3.79183 22.75C2.29606 22.75 1.0835 21.5374 1.0835 20.0417V8.58333C1.0835 8.03105 1.53121 7.58333 2.0835 7.58333H6.52718M20.5835 10.9167V8.58333C20.5835 8.03105 20.1358 7.58333 19.5835 7.58333H18.3335C17.7812 7.58333 17.3335 8.03105 17.3335 8.58333V10.9167C17.3335 11.469 17.7812 11.9167 18.3335 11.9167H19.5835C20.1358 11.9167 20.5835 11.469 20.5835 10.9167Z" stroke="white" stroke-width="2"/>
</svg>
