<svg width="26" height="26" viewBox="0 0 26 26" fill="none" xmlns="http://www.w3.org/2000/svg">
<path d="M9.74984 3.25H16.2498C16.5372 3.25 16.8127 3.36414 17.0159 3.5673C17.219 3.77047 17.3332 4.04602 17.3332 4.33333V7.58333H8.6665V4.33333C8.6665 4.04602 8.78064 3.77047 8.98381 3.5673C9.18697 3.36414 9.46252 3.25 9.74984 3.25Z" stroke="white" stroke-width="2" stroke-linecap="round" stroke-linejoin="round"/>
<path d="M21.6668 13V21.6667C21.6668 21.954 21.5527 22.2295 21.3495 22.4327C21.1464 22.6359 20.8708 22.75 20.5835 22.75H5.41683C5.12951 22.75 4.85396 22.6359 4.6508 22.4327C4.44763 22.2295 4.3335 21.954 4.3335 21.6667V13" stroke="white" stroke-width="2" stroke-linecap="round" stroke-linejoin="round"/>
<path d="M21.6667 7.58301H4.33333C4.04602 7.58301 3.77047 7.69714 3.5673 7.90031C3.36414 8.10347 3.25 8.37902 3.25 8.66634V9.61967C3.25022 11.0907 3.83475 12.5013 4.875 13.5413C5.91503 14.5816 7.32568 15.1661 8.79667 15.1663H17.2033C18.6743 15.1661 20.085 14.5816 21.125 13.5413C22.1653 12.5013 22.7498 11.0907 22.75 9.61967V8.66634C22.75 8.37902 22.6359 8.10347 22.4327 7.90031C22.2295 7.69714 21.954 7.58301 21.6667 7.58301Z" stroke="white" stroke-width="2" stroke-linecap="round" stroke-linejoin="round"/>
</svg>
