<svg width="26" height="26" viewBox="0 0 26 26" fill="none" xmlns="http://www.w3.org/2000/svg">
<path d="M20.5833 23.833H5.41667C4.225 23.833 3.25 22.858 3.25 21.6663V6.49967C3.25 5.30801 4.225 4.33301 5.41667 4.33301H20.5833C21.775 4.33301 22.75 5.30801 22.75 6.49967V21.6663C22.75 22.858 21.775 23.833 20.5833 23.833Z" stroke="white" stroke-width="2" stroke-linecap="round" stroke-linejoin="round"/>
<path d="M17.3335 2.16699V4.33366" stroke="white" stroke-width="2" stroke-linecap="round" stroke-linejoin="round"/>
<path d="M8.6665 2.16699V4.33366" stroke="white" stroke-width="2" stroke-linecap="round" stroke-linejoin="round"/>
<path d="M13 15.167C14.7949 15.167 16.25 13.7119 16.25 11.917C16.25 10.1221 14.7949 8.66699 13 8.66699C11.2051 8.66699 9.75 10.1221 9.75 11.917C9.75 13.7119 11.2051 15.167 13 15.167Z" stroke="white" stroke-width="2" stroke-linecap="round" stroke-linejoin="round"/>
<path d="M18.4168 20.042C16.9002 18.9587 15.0585 18.417 13.0002 18.417C10.9418 18.417 9.10016 19.067 7.5835 20.042" stroke="white" stroke-width="2" stroke-linecap="round" stroke-linejoin="round"/>
</svg>
