<svg width="28" height="28" viewBox="0 0 28 28" fill="none" xmlns="http://www.w3.org/2000/svg">
<path d="M14.5864 8.6709C15.9671 8.6709 17.0864 7.55161 17.0864 6.1709C17.0864 4.79019 15.9671 3.6709 14.5864 3.6709C13.2057 3.6709 12.0864 4.79019 12.0864 6.1709C12.0864 7.55161 13.2057 8.6709 14.5864 8.6709Z" stroke="white" stroke-width="1.7"/>
<path d="M22.0864 16.6709C23.191 16.6709 24.0864 15.5516 24.0864 14.1709C24.0864 12.7902 23.191 11.6709 22.0864 11.6709C20.9819 11.6709 20.0864 12.7902 20.0864 14.1709C20.0864 15.5516 20.9819 16.6709 22.0864 16.6709Z" stroke="white" stroke-width="1.7"/>
<path d="M14.5864 24.6709C15.9671 24.6709 17.0864 23.5516 17.0864 22.1709C17.0864 20.7902 15.9671 19.6709 14.5864 19.6709C13.2057 19.6709 12.0864 20.7902 12.0864 22.1709C12.0864 23.5516 13.2057 24.6709 14.5864 24.6709Z" stroke="white" stroke-width="1.7"/>
<path d="M6.58643 20.6709C7.96714 20.6709 9.08643 19.5516 9.08643 18.1709C9.08643 16.7902 7.96714 15.6709 6.58643 15.6709C5.20571 15.6709 4.08643 16.7902 4.08643 18.1709C4.08643 19.5516 5.20571 20.6709 6.58643 20.6709Z" stroke="white" stroke-width="1.7"/>
<path d="M6.58643 11.6709C7.96714 11.6709 9.08643 10.5516 9.08643 9.1709C9.08643 7.79019 7.96714 6.6709 6.58643 6.6709C5.20571 6.6709 4.08643 7.79019 4.08643 9.1709C4.08643 10.5516 5.20571 11.6709 6.58643 11.6709Z" stroke="white" stroke-width="1.7"/>
<path d="M14.0864 15.6709C15.191 15.6709 16.0864 14.7755 16.0864 13.6709C16.0864 12.5663 15.191 11.6709 14.0864 11.6709C12.9819 11.6709 12.0864 12.5663 12.0864 13.6709C12.0864 14.7755 12.9819 15.6709 14.0864 15.6709Z" stroke="white" stroke-width="1.7"/>
<path d="M8.08643 7.6709L12.0864 6.6709" stroke="white" stroke-width="1.7"/>
<path d="M16.0864 7.6709L20.0864 12.6709" stroke="white" stroke-width="1.7"/>
<path d="M21.0864 15.6709L16.0864 20.6709" stroke="white" stroke-width="1.7"/>
<path d="M8.08643 11.6709L13.0864 19.6709" stroke="white" stroke-width="1.7"/>
<path d="M9.08643 19.6709L12.0864 21.6709" stroke="white" stroke-width="1.7"/>
<path d="M7.08643 16.6709L13.0864 7.6709" stroke="white" stroke-width="1.7"/>
<path d="M9.08643 9.6709L13.0864 12.6709" stroke="white" stroke-width="1.7"/>
<path d="M16.0864 13.6709H20.0864" stroke="white" stroke-width="1.7"/>
<path d="M14.0864 15.6709V19.6709" stroke="white" stroke-width="1.7"/>
</svg>
