<svg width="21" height="23" viewBox="0 0 21 23" fill="none" xmlns="http://www.w3.org/2000/svg">
<path fill-rule="evenodd" clip-rule="evenodd" d="M14.9905 5.20833C14.971 5.12427 14.9508 5.04002 14.9297 4.95569C14.6547 3.8556 14.2216 2.66024 13.5155 1.71875C12.7874 0.747938 11.7242 0 10.2733 0C8.82236 0 7.75922 0.747938 7.0311 1.71875C6.32499 2.66024 5.89192 3.8556 5.61689 4.9557C5.59581 5.04002 5.57555 5.12427 5.55606 5.20833H3.88903C2.24383 5.20833 0.880395 6.48391 0.770957 8.12546L0.00706162 19.5837C-0.113178 21.3875 1.31745 22.9167 3.12515 22.9167H17.4214C19.2291 22.9167 20.6598 21.3875 20.5396 19.5837L19.7756 8.12546C19.6662 6.48391 18.3028 5.20833 16.6576 5.20833H14.9905ZM6.10663 10.4167C6.70349 10.4167 7.14628 9.96708 7.14831 9.37309C7.14847 9.34831 7.14876 9.32354 7.14918 9.29877C7.15009 9.24388 7.15196 9.16099 7.15578 9.0541C7.16342 8.84012 7.17882 8.53124 7.20981 8.15942C7.23179 7.89558 7.2614 7.60273 7.30115 7.29167H13.2455C13.2852 7.60273 13.3148 7.89558 13.3368 8.15943C13.3678 8.53124 13.3832 8.84012 13.3908 9.0541C13.3947 9.16099 13.3965 9.24388 13.3975 9.29877C13.3979 9.32431 13.3982 9.34986 13.3983 9.37542C13.3983 9.37542 13.3983 10.4167 14.44 10.4167C15.4816 10.4167 15.4816 9.3736 15.4816 9.3736C15.4815 9.33708 15.4811 9.30056 15.4805 9.26405C15.4793 9.19687 15.4772 9.10073 15.4728 8.97975C15.4642 8.738 15.4471 8.39584 15.4129 7.98641C15.3952 7.77294 15.3726 7.53971 15.344 7.29167H16.6576C17.206 7.29167 17.6605 7.71685 17.6969 8.26404L18.4608 19.7224C18.5009 20.3236 18.024 20.8333 17.4214 20.8333H3.12515C2.52258 20.8333 2.04571 20.3236 2.08578 19.7224L2.84968 8.26404C2.88616 7.71685 3.34063 7.29167 3.88903 7.29167H5.20255C5.17398 7.53971 5.15146 7.77294 5.13367 7.98642C5.09955 8.39584 5.08241 8.738 5.07377 8.97975C5.06945 9.10073 5.06725 9.19687 5.06613 9.26405C5.06553 9.29984 5.06508 9.33564 5.06497 9.37144C5.06418 9.96583 5.51114 10.4167 6.10663 10.4167ZM7.70405 5.20833H12.8426C12.6017 4.32627 12.2743 3.5361 11.8488 2.96875C11.4051 2.37706 10.9057 2.08333 10.2733 2.08333C9.64091 2.08333 9.14153 2.37706 8.69778 2.96875C8.27226 3.5361 7.94488 4.32627 7.70405 5.20833Z" fill="white"/>
</svg>
