<svg width="27" height="27" viewBox="0 0 27 27" fill="none" xmlns="http://www.w3.org/2000/svg">
<path d="M26.7559 10.5169L19.781 3.54192C19.4556 3.2165 18.9279 3.2165 18.6025 3.54192L15.2175 6.92689C14.8921 7.25231 14.8921 7.77997 15.2175 8.10539L15.855 8.7429L14.0723 8.8991C13.8756 8.91634 13.6843 8.95679 13.4995 9.01844C13.3153 8.95695 13.1235 8.91629 12.9277 8.8991L11.1449 8.7429L11.7824 8.10539C12.1078 7.77997 12.1078 7.25231 11.7824 6.92689L8.39744 3.54192C8.07206 3.2165 7.54435 3.2165 7.21893 3.54192L0.244068 10.5169C-0.081356 10.8423 -0.081356 11.37 0.244068 11.6954L3.62903 15.0804C3.9543 15.4056 4.48217 15.4057 4.80754 15.0804L5.56154 14.3264L5.71742 16.1087C5.76847 16.6933 6.02528 17.2439 6.44025 17.6589L11.4592 22.6772C12.8369 24.0549 14.2917 23.9263 15.2333 22.9848C15.6795 22.5385 20.5417 17.677 20.5601 17.6585C20.975 17.2436 21.2316 16.6932 21.2826 16.1087L21.4385 14.3263L22.1925 15.0803C22.5177 15.4056 23.0456 15.4057 23.371 15.0803L26.756 11.6953C27.0813 11.37 27.0813 10.8423 26.7559 10.5169ZM4.21829 13.3126L2.01183 11.1061L7.80829 5.30973L10.0147 7.51614C3.01837 14.5125 4.80533 12.7255 4.21829 13.3126ZM18.625 17.2339C18.6249 17.234 18.6248 17.2341 18.6247 17.2342C18.319 17.5403 17.8239 17.5404 17.5175 17.2339C17.5169 17.2334 17.5163 17.2329 17.5158 17.2324L16.1851 15.9017C15.8597 15.5763 15.3321 15.5763 15.0066 15.9017C14.6812 16.2271 14.6812 16.7548 15.0066 17.0802L16.339 18.4125C16.3392 18.4128 16.3395 18.413 16.3398 18.4133C16.645 18.7193 16.6457 19.2139 16.3387 19.5203C16.033 19.8263 15.5378 19.8265 15.2313 19.52C15.231 19.5196 15.2305 19.5193 15.2302 19.519L13.899 18.1878C13.5736 17.8624 13.0459 17.8624 12.7205 18.1878C12.3951 18.5132 12.3951 19.0409 12.7205 19.3663L14.0528 20.6986C14.053 20.6988 14.0531 20.6989 14.0534 20.6992C14.3576 21.0041 14.361 21.4987 14.052 21.8069C13.8689 21.9905 13.6063 22.0706 13.3494 22.0213C13.0694 21.9676 12.9702 21.8313 12.6376 21.4987L7.61855 16.4802C7.48023 16.3419 7.39464 16.1584 7.3776 15.9635L7.09991 12.788C7.44816 12.4397 9.05055 10.837 9.60658 10.2812L12.7821 10.5594C12.9768 10.5765 13.1601 10.662 13.2983 10.8C14.5179 12.0192 18.3109 15.8123 18.6246 16.1261C18.9301 16.4317 18.9302 16.9287 18.625 17.2339ZM19.7185 14.8628C19.4576 14.6019 16.5992 11.7433 15.3186 10.463L17.3932 10.2813C17.9858 10.8734 19.7246 12.6129 19.8999 12.7881L19.7185 14.8628ZM22.7817 13.3126C22.0012 12.5321 17.1577 7.68858 16.9853 7.51619L19.1917 5.30979L24.9881 11.1061L22.7817 13.3126Z" fill="white"/>
</svg>
