<svg width="1080" height="302" viewBox="0 0 1080 302" fill="none" xmlns="http://www.w3.org/2000/svg">
<path d="M114.54 15.2399L12.37 261.84L12.13 15.1899L114.54 15.2399Z" fill="#ED2224"/>
<path d="M288.78 15.23L288.53 261.41L186.62 15.2L288.78 15.23Z" fill="#ED2224"/>
<path d="M173.21 262.72L153.48 212.52L106.12 212.43L150.6 106.5L215.68 262.57L173.21 262.72Z" fill="#ED2224"/>
<path d="M597.33 225.6L597.38 278.65H578.48L578.45 229.57C578.45 226.64 577.68 223.59 576.56 221.07C572.53 211.99 558.13 213.04 549.89 220.54L549.87 278.63L530.82 278.5L530.78 211.11L530.11 199.82L547.3 199.72L548.6 206.76C561.44 195.25 582.88 193.74 592.29 208.45C600.7 200.72 611.12 196.85 622.16 198.06C632.4 199.18 640.5 206.01 643.12 215.95C643.94 219.06 644.82 222.51 644.83 225.87L644.9 278.63L625.84 278.51L625.81 229.29C625.36 225.13 624.51 221.01 621.74 217.98C616.05 211.75 603.6 214.34 596.94 220.87L597.35 225.59L597.33 225.6Z" fill="#ED2224"/>
<path d="M731.28 233.46L731.24 278.53L712.28 278.65L712.06 227.05C712.04 221.59 708.47 216.62 703.56 215.3C696.33 213.35 689.36 215.74 683.78 220.53L683.73 278.65H664.69L664.58 210.84L664.09 199.77H681.2L682.39 206.8C695.04 195.35 716.82 193.64 726.06 208.51C735.32 199.99 747.15 196.03 759.09 198.65C773.2 201.74 778.72 214.59 778.72 228.5V278.65H759.73L759.6 228.6C759.59 224.71 757.86 220.63 755.49 217.94C750.07 211.8 737.15 214.24 730.78 220.94L731.28 233.44V233.46Z" fill="#ED2224"/>
<path d="M696.05 80.03C695.03 94.28 687.74 106.41 675.61 113.52C668.73 117.55 661.26 119.41 653.32 120.09H645.81C638.89 120.11 632.35 118.66 625.27 116.26L625.25 4.33004L644.27 4.29004L644.42 40.06C664.91 33.77 686.9 40.81 694.02 61.86C696 67.71 696.51 73.59 696.05 80.03ZM675.16 67.39C671.05 54.61 657.05 51.68 644.39 55.9V103.19C650.98 104.57 657.01 104.2 662.71 101.68C675.8 95.89 679.32 80.32 675.17 67.4L675.16 67.39Z" fill="#ED2224"/>
<path d="M519.74 113.38C494.48 125.24 458.58 123.52 450.12 93.9301C444.77 75.2201 450.31 54.8501 467.34 44.5201C475.4 39.6401 484.59 37.2701 493.98 37.9501L500.03 38.3901L500.14 4.31006L519.11 4.37006L519.15 106.9L519.74 113.37V113.38ZM500.08 102.43V54.9501C493.55 52.9901 486.29 53.5801 480.09 56.7301C468.04 62.8501 465.29 77.7401 469.63 90.0801C473.97 102.42 487.37 105.62 500.08 102.43Z" fill="#ED2224"/>
<path d="M413.03 90.78L375.09 90.73L365.82 118.61L347.19 118.48L380.28 23.43C381.32 20.13 381.66 17.23 381.87 13.77L405.56 13.81L442.84 118.4L424.85 118.72C423.68 118.74 422.25 117.84 421.86 116.7L413.03 90.77V90.78ZM407.88 73.25L393.88 29.67L380.08 73.27L407.88 73.24V73.25Z" fill="#ED2224"/>
<path d="M511.7 258.79C505.08 273.91 490.04 281.51 473.45 280.09C461.71 279.09 451.28 273.1 445.35 262.59C433.78 242.09 439.1 211.91 460.64 201.74C471.23 196.74 483.45 196.57 494.16 201.21C515.22 210.34 520.61 238.41 511.7 258.79ZM494 252.43C499.38 238.35 496.39 216.45 479.7 214.1C471.71 212.97 464.61 217.14 461.39 224.73C457.5 233.91 457.59 244.82 461.87 253.92C465.03 260.64 471.61 264.36 478.67 264.02C485.37 263.69 491.33 259.44 494 252.43Z" fill="#ED2224"/>
<path d="M575.76 120.06L568.52 120.01C555.48 119.17 544.15 112.06 538.48 100.05C532.88 88.1899 532.35 74.4899 536.8 62.2499C542.25 47.2599 555.68 38.1199 571.34 37.8199C587 37.5199 599.65 44.4499 605.94 58.3599C611.5 70.6599 611.8 84.8799 606.67 97.4799C601.54 110.08 589.73 118.86 575.76 120.05V120.06ZM582.62 100.39C586.63 97.1499 588.8 92.8299 589.84 88.0199C592.48 75.8899 590 59.1199 578.24 55.0299C567.61 51.3399 557.91 56.5299 554.65 67.7199C550.86 80.7199 553.57 98.7999 566.48 102.99C572.17 104.83 578.01 104.11 582.62 100.39Z" fill="#ED2224"/>
<path d="M384.3 254.69C396.53 264.64 414.06 264.85 429.75 260.16L429.98 274.91C430 275.94 428.9 277.5 427.84 277.78C422.58 279.16 417.66 280.17 412.3 280.12L401.19 280.01C393.18 279.28 385.6 277.47 378.53 273.75C367.42 267.89 359.3 258.38 355.52 246.37C352.06 235.39 351.59 224.15 353.96 212.87C357.49 196.09 368.89 182.54 385.02 176.35C398.74 171.09 413.62 170.83 427.94 173.92C428.78 174.1 430.77 175.21 430.77 176.11L430.72 192.86C423.98 190.18 417.92 189.1 411.13 189.12H406.13C393.44 189.17 381.93 195.9 376.24 207.39C372.48 215 371.68 223.31 372.58 231.79C373.54 240.77 377.28 248.99 384.29 254.69H384.3Z" fill="#ED2224"/>
<path d="M741.76 102.69C751.78 104.88 761.43 103.73 771.34 99.6699L771.39 115.05C764.77 118.51 758.16 119.5 751.02 120.08L741.63 119.94C725.96 118.79 713.39 108.96 709.46 93.7399C705.56 78.6699 707.87 61.3999 718.13 49.5199C725.06 41.4999 734.44 37.9199 744.87 37.8599C756.76 37.7999 767.34 43.0399 772.93 53.7699C776.52 60.6699 777.7 68.2499 777.26 76.1599L776.34 82.7499L765.85 83.5399L726.92 83.5599C726.98 92.6899 732.58 100.29 741.76 102.69ZM759.23 69.8799C759.48 64.2399 757.6 59.2399 753.39 56.0299C747.56 51.5899 738.89 52.0699 733.29 56.9099C729.45 60.2299 727.55 65.1299 726.91 69.9699L759.23 69.8799Z" fill="#ED2224"/>
<path d="M1033.36 262.88C1043.31 264.98 1052.78 263.6 1062.27 259.72L1062.33 275.07C1051.63 280.65 1036.83 281.6 1025.09 278.67C998.54 272.06 992.46 239.13 1004.2 216.59C1010.55 204.4 1022.57 197.87 1036.08 197.85C1051.14 197.82 1063.25 207 1066.9 221.72C1068.58 228.53 1068.64 235.42 1067.51 242.73L1057.65 243.63L1017.9 243.65C1017.8 252.72 1023.83 260.88 1033.39 262.89L1033.36 262.88ZM1050.18 229.96C1050.46 224.49 1048.39 218.92 1043.84 215.78C1037.52 211.43 1028.64 212.37 1023.31 217.85C1020.08 221.17 1018.5 225.65 1017.79 229.91L1050.18 229.96Z" fill="#ED2224"/>
<path d="M828.84 262.9C838.77 264.99 848.37 263.58 857.72 259.72L857.7 274.98C851.51 278.61 844.6 279.62 837.4 280.16C820.66 281.41 804.54 275.38 797.84 259.35C792.04 245.46 792.8 229.43 799.88 216.19C806.05 204.65 817.57 198.09 830.54 197.91C837.6 197.82 844.37 199.35 850.12 203.39C862.46 212.06 865.51 228.25 862.81 242.94L844.88 243.68L813.19 243.6C813.41 252.93 819.29 260.89 828.84 262.9ZM813.39 229.9L845.55 229.97C846.11 224.23 843.52 218.17 838.37 215.17C832.85 211.96 825.61 212.48 820.57 216.28C816.21 219.57 813.81 224.85 813.39 229.89V229.9Z" fill="#ED2224"/>
<path d="M968.56 262.46C975.67 263.62 982.24 263.04 989.36 261.34L989.4 277.5C978.85 281.01 967.39 281.36 956.63 278.07C937.18 272.11 928.05 252.91 930.62 233.01C932.89 215.42 946.05 202 963.49 198.92C972.09 197.4 980.57 197.43 989.31 199.74L989.12 216.69C983.35 214.9 979 214.33 973.78 214.58C967.32 214.45 960.92 216.56 956.34 221.04C951.24 226.03 949.81 232.56 949.78 239.49C949.73 250.9 956.78 260.55 968.57 262.47L968.56 262.46Z" fill="#ED2224"/>
<path d="M880.19 278.76C879.15 278.76 878.09 277.6 878.09 276.44V213.62L877.4 199.77H894.31C895.74 202.81 896.08 206.02 896.52 210.2C903.19 202.73 912.19 197.3 923.05 198.09L923.07 216.96C913.55 216.8 903.73 218.6 897.46 225.39V278.64L880.2 278.76H880.19Z" fill="#ED2224"/>
</svg>
