<svg width="924" height="156" viewBox="0 0 924 156" fill="none" xmlns="http://www.w3.org/2000/svg">
<path d="M919.997 44.9086C915.058 35.9569 904.41 29.1676 892.845 29.1676C882.673 29.1676 873.727 33.3334 873.727 44.1349C873.727 53.2303 884.989 59.3997 896.713 66.9626C909.508 74.9819 922.779 84.846 922.779 101.976C922.779 124.342 901.033 138.065 875.889 138.065C865.553 138.065 854.762 136.061 842.577 131.434L844.576 101.663C850.443 113.546 861.398 122.949 877.58 122.949C890.078 122.949 899.327 116.938 899.327 106.444C899.327 97.4973 891.764 91.9478 882.519 86.3984C863.079 74.6795 850.75 65.2615 850.75 48.3007C850.75 22.8445 872.03 14.364 894.085 14.364C906.88 14.364 914.909 16.68 923.077 16.68L919.997 44.9086ZM812.191 71.5848C809.404 76.2168 805.873 82.53 803.701 87.167C801.856 95.955 800.928 107.684 800.928 120.633C800.928 126.033 801.856 133.279 804.321 135.749H772.09C777.788 130.353 780.109 97.1997 779.807 86.7058C775.487 71.7483 769.615 57.4011 760.674 39.9691C754.98 29.0239 748.34 18.6785 744.174 16.68C751.42 16.0699 760.674 15.6039 765.152 15.6039C773.166 15.6039 775.333 16.68 780.273 27.4813C787.97 44.9134 793.678 58.0111 797.075 67.7363C805.253 54.9314 810.956 46.1432 818.361 34.1121C820.21 31.1811 821.753 27.4813 821.753 23.9305C821.753 21.1485 821.287 18.0686 820.057 16.68H851.985C845.815 18.0686 818.048 61.7207 812.191 71.5848ZM700.061 44.6059L680.942 86.0859H712.092L700.061 44.6059ZM737.543 136.825C727.357 136.825 726.593 136.522 718.415 108.452L715.489 98.1171C710.559 100.428 701.757 101.509 687.727 101.509H673.538L671.068 106.751C667.522 114.627 662.742 123.866 662.742 130.358C662.742 131.9 662.895 133.591 663.515 135.754H579.301C584.087 130.358 585.629 112.931 587.94 81.305L588.401 73.752C589.636 55.7049 590.573 41.8237 590.41 32.1133C590.256 24.0942 589.482 19.001 587.325 16.69H619.873C615.241 20.2407 613.54 39.3592 611.388 70.9847L610.768 78.5378C609.994 90.2617 608.457 102.288 608.457 114.012C608.457 119.403 610.614 120.638 616.173 120.638C635.907 120.638 640.851 120.176 649.788 114.161C655.337 103.979 661.67 91.1741 667.83 77.913L676.172 60.1782C684.032 43.52 691.739 26.5491 691.739 23.3155C691.739 20.9947 691.124 18.8423 690.207 16.68H716.114C716.114 16.68 726.598 55.5512 728.914 63.8729L733.997 82.6936C742.785 114.314 748.345 129.733 755.749 135.749C749.57 136.522 740.782 136.825 737.543 136.825ZM527.639 138.065C496.946 138.065 479.207 112.772 479.207 84.3946C479.207 44.9134 500.641 14.364 541.516 14.364C554.316 14.364 560.336 16.68 570.662 16.68L567.582 47.0658C561.72 36.4231 552.153 29.1726 539.358 29.1726C513.912 29.1726 503.577 56.6323 503.577 80.2288C503.577 105.829 517.924 119.859 537.043 119.859C547.378 119.859 556.473 117.082 571.748 106.444C565.578 126.192 551.231 138.065 527.639 138.065ZM421.222 31.1811C418.291 31.1811 414.735 31.1811 411.968 31.4886C411.041 36.5768 410.267 45.3698 409.186 59.5534L408.566 67.8902C410.118 68.2025 412.117 68.3612 413.972 68.3612C428.77 68.3612 438.957 59.4047 438.957 45.8408C438.957 36.5768 432.48 31.1811 421.222 31.1811ZM464.244 140.842C455.456 140.842 453.294 139.448 450.368 135.436L417.051 89.1656C414.428 85.6197 412.424 82.6888 408.263 82.6888H407.49L406.88 91.6353C406.101 103.82 405.64 113.546 405.64 120.791C405.794 128.811 406.721 133.74 408.883 135.749H376.648C381.27 131.583 382.961 117.702 385.589 81.3002L386.056 73.7469C387.29 55.8586 388.218 41.9726 388.059 32.2623C387.9 23.7767 386.983 18.5298 384.662 16.68H428.616C442.959 16.68 462.702 19.1546 462.702 42.4386C462.702 61.5571 449.897 72.051 434.017 76.9805C435.56 78.3741 438.332 81.9201 440.033 84.0824L464.244 116.164C479.36 136.061 480.59 136.983 485.996 139.761C479.207 140.529 470.111 140.842 464.244 140.842ZM314.036 44.6059L294.744 86.0859H326.053L314.036 44.6059ZM351.504 136.825C341.332 136.825 340.559 136.522 332.386 108.452L329.455 98.1171C324.51 100.428 315.722 101.509 301.687 101.509H287.499L285.034 106.751C282.564 112.311 276.548 123.727 276.702 130.358C276.702 131.9 276.856 133.443 277.476 135.754H248.945C257.118 127.581 267.453 108.611 281.796 77.9178L290.127 60.1833C297.68 44.1447 305.704 25.944 305.704 23.3205C305.704 20.9997 305.094 18.8473 304.162 16.685H330.08C330.08 16.685 336.854 42.4436 342.875 63.8779L347.963 82.6986C356.756 114.319 362.305 129.738 369.71 135.754C363.079 136.522 354.747 136.825 351.504 136.825ZM204.673 31.0274C202.357 31.0274 199.277 31.0274 196.346 31.3399C195.111 39.6664 194.338 47.6856 193.728 56.4737C193.728 56.4737 193.261 64.0267 193.261 63.7192H196.346C211.462 63.7192 225.348 58.4773 225.348 44.6059C225.348 36.5768 218.713 31.0274 204.673 31.0274ZM200.824 78.2203H192.344L191.109 95.8013C190.494 103.518 190.182 109.99 190.028 117.702C190.028 118.788 193.42 121.099 201.434 121.099C218.093 121.099 229.048 112.772 229.048 99.0397C229.048 83.7699 216.55 78.2203 200.824 78.2203ZM202.674 135.749H161.031C166.278 131.117 167.666 113.075 169.977 81.3002L170.439 73.9006C171.678 55.8538 172.601 41.9726 172.447 32.2623C172.293 23.9305 171.366 18.5298 169.05 16.68H215.628C226.732 16.68 248.945 17.2999 248.945 40.4303C248.945 55.8536 234.598 65.4153 221.49 68.8174C239.998 70.6672 253.879 79.6089 253.879 98.7322C253.874 119.398 234.444 135.749 202.674 135.749Z" fill="#00AEEF"/>
<path d="M67.3015 0.00998889C63.1753 0.00998889 62.3223 0.729164 60.9833 2.22192C60.4334 2.18903 59.8827 2.17413 59.3318 2.17728C56.1579 2.17728 52.0813 2.64339 48.6048 4.96932C45.2473 7.18614 43.6504 11.1089 45.4407 13.9804C45.4407 13.9804 46.6409 12.2199 50.5885 12.2199C51.144 12.2199 51.7589 12.2793 52.4136 12.3339C57.8688 12.9786 61.9057 15.8501 61.4147 23.4329C60.9783 31.0107 58.1366 39.4615 46.5119 39.5607C46.5119 39.5607 45.0142 39.5607 43.4173 39.4119C38.0067 38.8218 36.3056 35.4245 36.3056 35.4245C36.3056 35.4245 40.9823 34.1549 41.022 28.2186C40.9823 24.1817 37.4661 20.4871 32.3927 18.9943C30.6407 18.4996 28.8274 18.2558 27.0069 18.2703C21.0259 18.2703 14.311 20.7747 9.78313 26.6862C-0.482688 40.2401 -1.31586 59.9981 1.18861 78.3724C3.70795 96.7864 15.3872 113.842 15.7294 114.308C15.9773 114.635 16.2005 114.814 16.4534 114.814C16.6035 114.804 16.7456 114.743 16.8551 114.64C21.8988 109.745 26.7093 103.055 28.7675 98.5817C30.9694 100.337 29.8188 104.072 28.6088 108.059C27.4582 112.135 24.6611 117.546 23.6494 119.292C22.6724 120.998 21.3632 122.981 23.1237 124.018C23.3303 124.136 23.5655 124.194 23.8032 124.187C26.0646 124.187 31.386 120.244 37.3223 112.329C43.9678 103.422 47.3402 95.5168 47.3402 95.5168C47.8262 95.6259 48.6395 96.4492 48.5056 98.6908C48.4163 100.967 46.0755 109.438 41.5179 117.323C36.9107 125.203 32.6556 130.133 31.7976 131.254C31.267 131.904 31.7183 132.31 32.0605 132.573C32.3977 132.801 40.5459 140.409 52.3838 146.836C66.4088 154.31 72.6278 155.654 72.6278 155.654C72.6278 155.654 78.8319 154.344 92.8569 146.876C104.69 140.438 112.873 132.796 113.175 132.538C113.517 132.305 113.954 131.938 113.438 131.224C112.63 130.153 108.36 125.199 103.762 117.318C99.2197 109.487 96.7897 100.962 96.755 98.7155C96.6607 96.4491 97.4245 95.7003 97.8906 95.5118C97.8906 95.5118 101.298 103.467 107.943 112.324C113.909 120.249 119.181 124.182 121.452 124.182C121.698 124.19 121.941 124.132 122.157 124.013C123.863 122.977 122.593 120.963 121.591 119.277C120.659 117.541 117.822 112.165 116.617 108.054C115.462 104.022 114.261 100.293 116.503 98.5767C118.566 103.05 123.342 109.775 128.4 114.6C128.455 114.663 128.522 114.713 128.597 114.749C128.672 114.785 128.754 114.805 128.837 114.809C129.06 114.809 129.298 114.635 129.506 114.332C129.878 113.836 141.577 96.8111 144.077 78.3674C146.586 59.9534 145.758 40.2401 135.482 26.6812C130.984 20.7548 124.22 18.2355 118.199 18.2355C116.32 18.2355 114.524 18.4785 112.883 18.9497C107.77 20.4871 104.268 24.2166 104.298 28.2138C104.298 34.1501 109 35.4195 109 35.4195C109 35.4195 107.427 38.7325 101.823 39.4069C100.816 39.5316 99.8029 39.5945 98.7883 39.5954C94.5728 39.5954 91.022 38.2564 87.7488 33.6343C84.5748 29.1857 84.679 20.0259 84.4955 16.971C84.3517 13.8714 83.6871 6.91841 80.4288 4.08167C77.1805 1.17054 73.2229 0.193414 68.2884 0C67.9263 0.00991867 67.604 0.00998889 67.3015 0.00998889Z" fill="#00AFE9"/>
</svg>
