<svg width="78" height="23" viewBox="0 0 78 23" fill="none" xmlns="http://www.w3.org/2000/svg">
<path d="M19.5681 22.2301C17.9278 22.2301 16.4281 21.2897 15.4783 19.6869C14.5285 21.2866 13.0288 22.2301 11.3884 22.2301H11.3603C9.57005 22.2176 7.96098 21.0866 7.04866 19.2026V19.1901L0 4.19295L8.98891 0L15.4689 13.738L21.8802 0L30.866 4.18982L23.9111 19.2058C22.9987 21.0898 21.3897 22.2208 19.5994 22.2333H19.5713M17.5467 18.1403C18.0372 19.1183 18.7777 19.6775 19.5713 19.6775H19.5806C20.3837 19.6713 21.1241 19.0995 21.6052 18.0997L27.4791 5.43022L23.1206 3.39623L16.8905 16.7468L17.5498 18.1403H17.5467ZM9.35759 18.0997C9.84185 19.0995 10.5792 19.6744 11.3791 19.6775H11.3916C12.1883 19.6775 12.9257 19.1183 13.4193 18.1435L14.066 16.7562L7.76103 3.39311L3.4056 5.42396L9.35447 18.0934L9.35759 18.0997Z" fill="black"/>
<path d="M51.9688 8.23341H49.3098V19.1269H51.9688V8.23341ZM74.5321 8.22479V9.4256C73.7204 8.42972 72.635 7.93177 71.2759 7.93177C69.7732 7.93177 68.5213 8.47856 67.5201 9.57208C66.5152 10.6637 66.0127 12.0274 66.0127 13.663C66.0127 15.2985 66.5152 16.6621 67.5201 17.7538C68.5213 18.8454 69.7732 19.3912 71.2759 19.3912C72.6408 19.3912 73.7262 18.8971 74.5321 17.9089V19.1097H77.2168V8.22479H74.5321ZM68.6945 13.663C68.6945 12.7704 68.9692 12.0235 69.5186 11.4222C70.0776 10.8055 70.7916 10.4971 71.6607 10.4971C72.5355 10.4971 73.2505 10.7978 73.8056 11.3992C74.3473 11.9929 74.6182 12.7475 74.6182 13.663C74.6182 14.5842 74.3531 15.3387 73.8228 15.9267C73.2735 16.5281 72.5527 16.8287 71.6607 16.8287C70.7744 16.8287 70.0546 16.5194 69.5014 15.9009C68.9635 15.3072 68.6945 14.5612 68.6945 13.663ZM62.7278 8.30236L59.7272 16.6132L56.7353 8.30236L54.128 9.24467L57.4042 17.5555C57.946 18.7793 58.7203 19.3912 59.7272 19.3912C60.7265 19.3912 61.5036 18.7793 62.0588 17.5555L65.335 9.24467L62.7278 8.30236ZM44.5951 8.30236L41.5945 16.6132L38.5939 8.30236L35.9953 9.24467L39.2716 17.5555C39.8133 18.7793 40.5875 19.3912 41.5945 19.3912C42.5995 19.3912 43.3738 18.7793 43.9175 17.5555L47.2023 9.24467L44.5951 8.30236ZM50.6393 2.83835C50.1589 2.83835 49.7559 3.00402 49.4304 3.33533C49.105 3.66666 48.9423 4.07268 48.9423 4.55339C48.9423 5.03411 49.105 5.43725 49.4304 5.76283C49.7617 6.08841 50.1645 6.2512 50.6393 6.2512C51.1141 6.2512 51.517 6.08841 51.8482 5.76283C52.1793 5.43725 52.3449 5.03411 52.3449 4.55339C52.3449 4.07268 52.1822 3.66666 51.8567 3.33533C51.5256 3.00402 51.1198 2.83835 50.6393 2.83835Z" fill="black"/>
</svg>
